<?xml version="1.0" encoding="UTF-8" standalone="no"?>
<!-- Created with Inkscape (http://www.inkscape.org/) -->

<svg
   version="1.1"
   id="svg1"
   width="412.39505"
   height="50.032928"
   viewBox="0 0 412.39504 50.032928"
   sodipodi:docname="大礼堂-辅助.pdf"
   xmlns:inkscape="http://www.inkscape.org/namespaces/inkscape"
   xmlns:sodipodi="http://sodipodi.sourceforge.net/DTD/sodipodi-0.dtd"
   xmlns="http://www.w3.org/2000/svg"
   xmlns:svg="http://www.w3.org/2000/svg">
  <defs
     id="defs1">
    <clipPath
       clipPathUnits="userSpaceOnUse"
       id="clipPath666">
      <path
         d="M 0,595.276 H 841.89 V 0 H 0 Z"
         transform="translate(-409.03061,-335.95361)"
         id="path666" />
    </clipPath>
    <clipPath
       clipPathUnits="userSpaceOnUse"
       id="clipPath668">
      <path
         d="M 0,595.276 H 841.89 V 0 H 0 Z"
         transform="translate(-409.03061,-343.61771)"
         id="path668" />
    </clipPath>
    <clipPath
       clipPathUnits="userSpaceOnUse"
       id="clipPath670">
      <path
         d="M 0,595.276 H 841.89 V 0 H 0 Z"
         transform="translate(-409.03061,-345.65871)"
         id="path670" />
    </clipPath>
    <clipPath
       clipPathUnits="userSpaceOnUse"
       id="clipPath672">
      <path
         d="M 0,595.276 H 841.89 V 0 H 0 Z"
         transform="translate(-409.03061,-333.91261)"
         id="path672" />
    </clipPath>
    <clipPath
       clipPathUnits="userSpaceOnUse"
       id="clipPath674">
      <path
         d="M 0,595.276 H 841.89 V 0 H 0 Z"
         transform="translate(-409.03061,-341.57671)"
         id="path674" />
    </clipPath>
    <clipPath
       clipPathUnits="userSpaceOnUse"
       id="clipPath676">
      <path
         d="M 0,595.276 H 841.89 V 0 H 0 Z"
         transform="translate(-409.03061,-325.74881)"
         id="path676" />
    </clipPath>
    <clipPath
       clipPathUnits="userSpaceOnUse"
       id="clipPath678">
      <path
         d="M 0,595.276 H 841.89 V 0 H 0 Z"
         transform="translate(-409.03061,-327.78981)"
         id="path678" />
    </clipPath>
    <clipPath
       clipPathUnits="userSpaceOnUse"
       id="clipPath680">
      <path
         d="M 0,595.276 H 841.89 V 0 H 0 Z"
         transform="translate(-409.03061,-331.87191)"
         id="path680" />
    </clipPath>
    <clipPath
       clipPathUnits="userSpaceOnUse"
       id="clipPath682">
      <path
         d="M 0,595.276 H 841.89 V 0 H 0 Z"
         transform="translate(-409.03061,-329.83081)"
         id="path682" />
    </clipPath>
    <clipPath
       clipPathUnits="userSpaceOnUse"
       id="clipPath684">
      <path
         d="M 0,595.276 H 841.89 V 0 H 0 Z"
         transform="translate(-460.57991,-309.22201)"
         id="path684" />
    </clipPath>
    <clipPath
       clipPathUnits="userSpaceOnUse"
       id="clipPath686">
      <path
         d="M 0,595.276 H 841.89 V 0 H 0 Z"
         transform="translate(-409.03061,-339.53591)"
         id="path686" />
    </clipPath>
    <clipPath
       clipPathUnits="userSpaceOnUse"
       id="clipPath688">
      <path
         d="M 0,595.276 H 841.89 V 0 H 0 Z"
         transform="translate(-409.03061,-337.49511)"
         id="path688" />
    </clipPath>
    <clipPath
       clipPathUnits="userSpaceOnUse"
       id="clipPath690">
      <path
         d="M 0,595.276 H 841.89 V 0 H 0 Z"
         transform="translate(-512.12921,-335.95361)"
         id="path690" />
    </clipPath>
    <clipPath
       clipPathUnits="userSpaceOnUse"
       id="clipPath692">
      <path
         d="M 0,595.276 H 841.89 V 0 H 0 Z"
         transform="translate(-512.12921,-343.61771)"
         id="path692" />
    </clipPath>
    <clipPath
       clipPathUnits="userSpaceOnUse"
       id="clipPath694">
      <path
         d="M 0,595.276 H 841.89 V 0 H 0 Z"
         transform="translate(-512.12921,-345.65871)"
         id="path694" />
    </clipPath>
    <clipPath
       clipPathUnits="userSpaceOnUse"
       id="clipPath696">
      <path
         d="M 0,595.276 H 841.89 V 0 H 0 Z"
         transform="translate(-512.12921,-333.91261)"
         id="path696" />
    </clipPath>
    <clipPath
       clipPathUnits="userSpaceOnUse"
       id="clipPath698">
      <path
         d="M 0,595.276 H 841.89 V 0 H 0 Z"
         transform="translate(-512.12921,-341.57671)"
         id="path698" />
    </clipPath>
    <clipPath
       clipPathUnits="userSpaceOnUse"
       id="clipPath700">
      <path
         d="M 0,595.276 H 841.89 V 0 H 0 Z"
         transform="translate(-512.12921,-325.74881)"
         id="path700" />
    </clipPath>
    <clipPath
       clipPathUnits="userSpaceOnUse"
       id="clipPath702">
      <path
         d="M 0,595.276 H 841.89 V 0 H 0 Z"
         transform="translate(-512.12921,-327.78981)"
         id="path702" />
    </clipPath>
    <clipPath
       clipPathUnits="userSpaceOnUse"
       id="clipPath704">
      <path
         d="M 0,595.276 H 841.89 V 0 H 0 Z"
         transform="translate(-512.12921,-331.87191)"
         id="path704" />
    </clipPath>
    <clipPath
       clipPathUnits="userSpaceOnUse"
       id="clipPath706">
      <path
         d="M 0,595.276 H 841.89 V 0 H 0 Z"
         transform="translate(-512.12921,-329.83081)"
         id="path706" />
    </clipPath>
    <clipPath
       clipPathUnits="userSpaceOnUse"
       id="clipPath708">
      <path
         d="M 0,595.276 H 841.89 V 0 H 0 Z"
         transform="translate(-563.67851,-309.22201)"
         id="path708" />
    </clipPath>
    <clipPath
       clipPathUnits="userSpaceOnUse"
       id="clipPath710">
      <path
         d="M 0,595.276 H 841.89 V 0 H 0 Z"
         transform="translate(-512.12921,-339.53591)"
         id="path710" />
    </clipPath>
    <clipPath
       clipPathUnits="userSpaceOnUse"
       id="clipPath712">
      <path
         d="M 0,595.276 H 841.89 V 0 H 0 Z"
         transform="translate(-512.12921,-337.49511)"
         id="path712" />
    </clipPath>
    <clipPath
       clipPathUnits="userSpaceOnUse"
       id="clipPath714">
      <path
         d="M 0,595.276 H 841.89 V 0 H 0 Z"
         transform="translate(-615.22781,-335.95361)"
         id="path714" />
    </clipPath>
    <clipPath
       clipPathUnits="userSpaceOnUse"
       id="clipPath716">
      <path
         d="M 0,595.276 H 841.89 V 0 H 0 Z"
         transform="translate(-615.22781,-343.61771)"
         id="path716" />
    </clipPath>
    <clipPath
       clipPathUnits="userSpaceOnUse"
       id="clipPath718">
      <path
         d="M 0,595.276 H 841.89 V 0 H 0 Z"
         transform="translate(-615.22781,-345.65871)"
         id="path718" />
    </clipPath>
    <clipPath
       clipPathUnits="userSpaceOnUse"
       id="clipPath720">
      <path
         d="M 0,595.276 H 841.89 V 0 H 0 Z"
         transform="translate(-615.22781,-333.91261)"
         id="path720" />
    </clipPath>
    <clipPath
       clipPathUnits="userSpaceOnUse"
       id="clipPath722">
      <path
         d="M 0,595.276 H 841.89 V 0 H 0 Z"
         transform="translate(-615.22781,-341.57671)"
         id="path722" />
    </clipPath>
    <clipPath
       clipPathUnits="userSpaceOnUse"
       id="clipPath724">
      <path
         d="M 0,595.276 H 841.89 V 0 H 0 Z"
         transform="translate(-615.22781,-325.74881)"
         id="path724" />
    </clipPath>
    <clipPath
       clipPathUnits="userSpaceOnUse"
       id="clipPath726">
      <path
         d="M 0,595.276 H 841.89 V 0 H 0 Z"
         transform="translate(-615.22781,-327.78981)"
         id="path726" />
    </clipPath>
    <clipPath
       clipPathUnits="userSpaceOnUse"
       id="clipPath728">
      <path
         d="M 0,595.276 H 841.89 V 0 H 0 Z"
         transform="translate(-615.22781,-331.87191)"
         id="path728" />
    </clipPath>
    <clipPath
       clipPathUnits="userSpaceOnUse"
       id="clipPath730">
      <path
         d="M 0,595.276 H 841.89 V 0 H 0 Z"
         transform="translate(-615.22781,-329.83081)"
         id="path730" />
    </clipPath>
    <clipPath
       clipPathUnits="userSpaceOnUse"
       id="clipPath732">
      <path
         d="M 0,595.276 H 841.89 V 0 H 0 Z"
         transform="translate(-666.77722,-309.22201)"
         id="path732" />
    </clipPath>
    <clipPath
       clipPathUnits="userSpaceOnUse"
       id="clipPath734">
      <path
         d="M 0,595.276 H 841.89 V 0 H 0 Z"
         transform="translate(-615.22781,-339.53591)"
         id="path734" />
    </clipPath>
    <clipPath
       clipPathUnits="userSpaceOnUse"
       id="clipPath736">
      <path
         d="M 0,595.276 H 841.89 V 0 H 0 Z"
         transform="translate(-615.22781,-337.49511)"
         id="path736" />
    </clipPath>
  </defs>
  <sodipodi:namedview
     id="namedview1"
     pagecolor="#ffffff"
     bordercolor="#000000"
     borderopacity="0.25"
     inkscape:showpageshadow="2"
     inkscape:pageopacity="0.0"
     inkscape:pagecheckerboard="0"
     inkscape:deskcolor="#d1d1d1">
    <inkscape:page
       x="0"
       y="0"
       width="412.39505"
       height="50.032928"
       id="page2"
       margin="0"
       bleed="0" />
  </sodipodi:namedview>
  <g
     id="layer-MC0"
     inkscape:groupmode="layer"
     inkscape:label="图层 1"
     transform="translate(-476.64121,-332.1564)">
    <path
       id="path665"
       d="m 0,0 c -6.013,0 -11.942,-0.541 -17.736,-1.586 -0.206,-0.205 -0.404,-0.41 -0.596,-0.617 C -12.35,-1.08 -6.22,-0.5 0,-0.5 c 6.205,0 12.321,-0.578 18.29,-1.696 -0.186,0.205 -0.38,0.41 -0.58,0.616 C 11.924,-0.538 6.003,0 0,0"
       style="fill:#ac9a8a;fill-opacity:1;fill-rule:nonzero;stroke:none"
       transform="matrix(1.3333333,0,0,-1.3333333,545.37413,345.7632)"
       clip-path="url(#clipPath666)" />
    <path
       id="path667"
       d="m 0,0 c 2.311,0 4.608,-0.083 6.892,-0.241 l 0.005,0.5 C 4.612,0.416 2.313,0.5 0,0.5 -2.309,0.5 -4.605,0.417 -6.887,0.261 l 0.016,-0.5 C -4.595,-0.082 -2.304,0 0,0"
       style="fill:#ac9a8a;fill-opacity:1;fill-rule:nonzero;stroke:none"
       transform="matrix(1.3333333,0,0,-1.3333333,545.37413,335.5444)"
       clip-path="url(#clipPath668)" />
    <path
       id="path669"
       d="m 0,0 c 0.379,0 0.757,-0.01 1.135,-0.014 v 0.5 C 0.757,0.49 0.379,0.5 0,0.5 -0.375,0.5 -0.749,0.49 -1.123,0.486 V -0.013 C -0.749,-0.009 -0.375,0 0,0"
       style="fill:#ac9a8a;fill-opacity:1;fill-rule:nonzero;stroke:none"
       transform="matrix(1.3333333,0,0,-1.3333333,545.37413,332.82307)"
       clip-path="url(#clipPath670)" />
    <path
       id="path671"
       d="m 0,0 c -6.744,0 -13.383,-0.678 -19.844,-1.99 -0.147,-0.2 -0.29,-0.4 -0.426,-0.599 6.594,1.377 13.377,2.089 20.27,2.089 6.884,0 13.658,-0.709 20.243,-2.082 -0.139,0.199 -0.282,0.4 -0.434,0.603 C 13.359,-0.673 6.731,0 0,0"
       style="fill:#ac9a8a;fill-opacity:1;fill-rule:nonzero;stroke:none"
       transform="matrix(1.3333333,0,0,-1.3333333,545.37413,348.48453)"
       clip-path="url(#clipPath672)" />
    <path
       id="path673"
       d="M 0,0 C 1.934,0 3.859,-0.062 5.774,-0.173 V 0.328 C 3.859,0.438 1.934,0.5 0,0.5 -1.932,0.5 -3.855,0.438 -5.768,0.328 v -0.5 C -3.855,-0.062 -1.932,0 0,0"
       style="fill:#ac9a8a;fill-opacity:1;fill-rule:nonzero;stroke:none"
       transform="matrix(1.3333333,0,0,-1.3333333,545.37413,338.26573)"
       clip-path="url(#clipPath674)" />
    <path
       id="path675"
       d="m 0,0 c -10.092,0 -19.95,-1.511 -29.324,-4.413 v -0.524 c 9.371,2.918 19.23,4.437 29.324,4.437 10.094,0 19.953,-1.517 29.324,-4.434 v 0.525 C 19.95,-1.509 10.092,0 0,0"
       style="fill:#ac9a8a;fill-opacity:1;fill-rule:nonzero;stroke:none"
       transform="matrix(1.3333333,0,0,-1.3333333,545.37413,359.3696)"
       clip-path="url(#clipPath676)" />
    <path
       id="path677"
       d="m 0,0 c -10.092,0 -19.95,-1.511 -29.324,-4.413 v -0.524 c 9.371,2.918 19.23,4.437 29.324,4.437 10.094,0 19.953,-1.517 29.324,-4.434 v 0.525 C 19.95,-1.509 10.092,0 0,0"
       style="fill:#ac9a8a;fill-opacity:1;fill-rule:nonzero;stroke:none"
       transform="matrix(1.3333333,0,0,-1.3333333,545.37413,356.64827)"
       clip-path="url(#clipPath678)" />
    <path
       id="path679"
       d="m 0,0 c -7.268,0 -14.416,-0.781 -21.348,-2.302 -0.109,-0.197 -0.212,-0.392 -0.31,-0.583 7.028,1.574 14.28,2.385 21.658,2.385 7.385,0 14.646,-0.809 21.682,-2.386 -0.1,0.189 -0.207,0.382 -0.318,0.578 C 14.426,-0.785 7.273,0 0,0"
       style="fill:#ac9a8a;fill-opacity:1;fill-rule:nonzero;stroke:none"
       transform="matrix(1.3333333,0,0,-1.3333333,545.37413,351.20547)"
       clip-path="url(#clipPath680)" />
    <path
       id="path681"
       d="m 0,0 c -7.653,0 -15.17,-0.872 -22.445,-2.555 -0.08,-0.196 -0.154,-0.384 -0.222,-0.565 7.342,1.726 14.935,2.62 22.667,2.62 7.748,0 15.356,-0.897 22.713,-2.63 -0.067,0.181 -0.141,0.37 -0.222,0.566 C 15.202,-0.874 7.668,0 0,0"
       style="fill:#ac9a8a;fill-opacity:1;fill-rule:nonzero;stroke:none"
       transform="matrix(1.3333333,0,0,-1.3333333,545.37413,353.92693)"
       clip-path="url(#clipPath682)" />
    <path
       id="path683"
       d="m 0,0 c -15.361,9.436 -33.066,14.486 -51.549,14.486 -18.484,0 -36.19,-5.047 -51.55,-14.485 v -0.589 c 15.343,9.494 33.055,14.574 51.55,14.574 18.494,0 36.205,-5.081 51.549,-14.573 z"
       style="fill:#ac9a8a;fill-opacity:1;fill-rule:nonzero;stroke:none"
       transform="matrix(1.3333333,0,0,-1.3333333,614.10653,381.40533)"
       clip-path="url(#clipPath684)" />
    <path
       id="path685"
       d="M 0,0 C 3.724,0 7.415,-0.213 11.063,-0.619 10.413,-0.344 9.784,-0.115 9.192,0.075 6.154,0.353 3.088,0.5 0,0.5 -2.809,0.5 -5.598,0.376 -8.365,0.145 -8.984,-0.043 -9.656,-0.271 -10.358,-0.542 -6.94,-0.186 -3.484,0 0,0"
       style="fill:#ac9a8a;fill-opacity:1;fill-rule:nonzero;stroke:none"
       transform="matrix(1.3333333,0,0,-1.3333333,545.37413,340.9868)"
       clip-path="url(#clipPath686)" />
    <path
       id="path687"
       d="m 0,0 c 5.283,0 10.501,-0.421 15.621,-1.235 -0.294,0.229 -0.59,0.444 -0.887,0.649 C 9.899,0.132 4.978,0.5 0,0.5 -4.894,0.5 -9.733,0.144 -14.488,-0.552 -14.819,-0.76 -15.147,-0.98 -15.471,-1.211 -10.4,-0.414 -5.232,0 0,0"
       style="fill:#ac9a8a;fill-opacity:1;fill-rule:nonzero;stroke:none"
       transform="matrix(1.3333333,0,0,-1.3333333,545.37413,343.70787)"
       clip-path="url(#clipPath688)" />
    <path
       id="path689"
       d="m 0,0 c -6.013,0 -11.942,-0.541 -17.736,-1.586 -0.206,-0.205 -0.404,-0.41 -0.596,-0.617 C -12.35,-1.08 -6.22,-0.5 0,-0.5 c 6.205,0 12.321,-0.578 18.29,-1.696 -0.186,0.205 -0.38,0.41 -0.58,0.616 C 11.924,-0.538 6.003,0 0,0"
       style="fill:#ac9a8a;fill-opacity:1;fill-rule:nonzero;stroke:none"
       transform="matrix(1.3333333,0,0,-1.3333333,682.83893,345.7632)"
       clip-path="url(#clipPath690)" />
    <path
       id="path691"
       d="m 0,0 c 2.311,0 4.609,-0.083 6.892,-0.241 l 0.005,0.5 C 4.612,0.416 2.313,0.5 0,0.5 -2.309,0.5 -4.605,0.417 -6.887,0.261 l 0.016,-0.5 C -4.595,-0.082 -2.304,0 0,0"
       style="fill:#ac9a8a;fill-opacity:1;fill-rule:nonzero;stroke:none"
       transform="matrix(1.3333333,0,0,-1.3333333,682.83893,335.5444)"
       clip-path="url(#clipPath692)" />
    <path
       id="path693"
       d="m 0,0 c 0.379,0 0.757,-0.01 1.135,-0.014 v 0.5 C 0.757,0.49 0.379,0.5 0,0.5 -0.375,0.5 -0.749,0.49 -1.123,0.486 V -0.013 C -0.749,-0.009 -0.375,0 0,0"
       style="fill:#ac9a8a;fill-opacity:1;fill-rule:nonzero;stroke:none"
       transform="matrix(1.3333333,0,0,-1.3333333,682.83893,332.82307)"
       clip-path="url(#clipPath694)" />
    <path
       id="path695"
       d="m 0,0 c -6.744,0 -13.383,-0.678 -19.844,-1.99 -0.147,-0.2 -0.29,-0.4 -0.426,-0.599 6.594,1.377 13.377,2.089 20.27,2.089 6.884,0 13.658,-0.709 20.244,-2.082 -0.14,0.199 -0.283,0.4 -0.435,0.603 C 13.359,-0.673 6.731,0 0,0"
       style="fill:#ac9a8a;fill-opacity:1;fill-rule:nonzero;stroke:none"
       transform="matrix(1.3333333,0,0,-1.3333333,682.83893,348.48453)"
       clip-path="url(#clipPath696)" />
    <path
       id="path697"
       d="M 0,0 C 1.934,0 3.859,-0.062 5.774,-0.173 V 0.328 C 3.859,0.438 1.934,0.5 0,0.5 -1.932,0.5 -3.855,0.438 -5.768,0.328 v -0.5 C -3.855,-0.062 -1.932,0 0,0"
       style="fill:#ac9a8a;fill-opacity:1;fill-rule:nonzero;stroke:none"
       transform="matrix(1.3333333,0,0,-1.3333333,682.83893,338.26573)"
       clip-path="url(#clipPath698)" />
    <path
       id="path699"
       d="m 0,0 c -10.092,0 -19.95,-1.511 -29.323,-4.413 v -0.524 c 9.37,2.918 19.229,4.437 29.323,4.437 10.094,0 19.953,-1.517 29.324,-4.434 v 0.525 C 19.95,-1.509 10.092,0 0,0"
       style="fill:#ac9a8a;fill-opacity:1;fill-rule:nonzero;stroke:none"
       transform="matrix(1.3333333,0,0,-1.3333333,682.83893,359.3696)"
       clip-path="url(#clipPath700)" />
    <path
       id="path701"
       d="m 0,0 c -10.092,0 -19.95,-1.511 -29.323,-4.413 v -0.524 c 9.37,2.918 19.229,4.437 29.323,4.437 10.094,0 19.953,-1.517 29.324,-4.434 v 0.525 C 19.95,-1.509 10.092,0 0,0"
       style="fill:#ac9a8a;fill-opacity:1;fill-rule:nonzero;stroke:none"
       transform="matrix(1.3333333,0,0,-1.3333333,682.83893,356.64827)"
       clip-path="url(#clipPath702)" />
    <path
       id="path703"
       d="m 0,0 c -7.268,0 -14.416,-0.781 -21.348,-2.302 -0.109,-0.197 -0.212,-0.392 -0.31,-0.583 7.028,1.574 14.28,2.385 21.658,2.385 7.385,0 14.646,-0.809 21.682,-2.386 -0.1,0.189 -0.207,0.382 -0.318,0.578 C 14.426,-0.785 7.273,0 0,0"
       style="fill:#ac9a8a;fill-opacity:1;fill-rule:nonzero;stroke:none"
       transform="matrix(1.3333333,0,0,-1.3333333,682.83893,351.20547)"
       clip-path="url(#clipPath704)" />
    <path
       id="path705"
       d="m 0,0 c -7.653,0 -15.17,-0.872 -22.445,-2.555 -0.08,-0.196 -0.154,-0.384 -0.222,-0.565 7.342,1.726 14.935,2.62 22.667,2.62 7.748,0 15.356,-0.897 22.714,-2.63 -0.068,0.181 -0.142,0.37 -0.223,0.566 C 15.202,-0.874 7.668,0 0,0"
       style="fill:#ac9a8a;fill-opacity:1;fill-rule:nonzero;stroke:none"
       transform="matrix(1.3333333,0,0,-1.3333333,682.83893,353.92693)"
       clip-path="url(#clipPath706)" />
    <path
       id="path707"
       d="m 0,0 c -15.361,9.436 -33.066,14.486 -51.549,14.486 -18.484,0 -36.19,-5.047 -51.55,-14.485 v -0.589 c 15.343,9.494 33.055,14.574 51.55,14.574 18.494,0 36.205,-5.081 51.549,-14.573 z"
       style="fill:#ac9a8a;fill-opacity:1;fill-rule:nonzero;stroke:none"
       transform="matrix(1.3333333,0,0,-1.3333333,751.57133,381.40533)"
       clip-path="url(#clipPath708)" />
    <path
       id="path709"
       d="M 0,0 C 3.724,0 7.416,-0.213 11.063,-0.619 10.413,-0.344 9.784,-0.115 9.192,0.075 6.154,0.353 3.088,0.5 0,0.5 -2.809,0.5 -5.598,0.376 -8.365,0.145 -8.984,-0.043 -9.656,-0.271 -10.358,-0.542 -6.94,-0.186 -3.484,0 0,0"
       style="fill:#ac9a8a;fill-opacity:1;fill-rule:nonzero;stroke:none"
       transform="matrix(1.3333333,0,0,-1.3333333,682.83893,340.9868)"
       clip-path="url(#clipPath710)" />
    <path
       id="path711"
       d="m 0,0 c 5.283,0 10.502,-0.421 15.621,-1.235 -0.294,0.229 -0.59,0.444 -0.887,0.649 C 9.899,0.132 4.978,0.5 0,0.5 -4.894,0.5 -9.733,0.144 -14.488,-0.552 -14.819,-0.76 -15.147,-0.98 -15.471,-1.211 -10.4,-0.414 -5.232,0 0,0"
       style="fill:#ac9a8a;fill-opacity:1;fill-rule:nonzero;stroke:none"
       transform="matrix(1.3333333,0,0,-1.3333333,682.83893,343.70787)"
       clip-path="url(#clipPath712)" />
    <path
       id="path713"
       d="m 0,0 c -6.013,0 -11.942,-0.541 -17.736,-1.586 -0.206,-0.205 -0.404,-0.41 -0.596,-0.617 C -12.349,-1.08 -6.22,-0.5 0,-0.5 c 6.205,0 12.321,-0.578 18.29,-1.696 -0.186,0.205 -0.38,0.41 -0.58,0.616 C 11.924,-0.538 6.003,0 0,0"
       style="fill:#ac9a8a;fill-opacity:1;fill-rule:nonzero;stroke:none"
       transform="matrix(1.3333333,0,0,-1.3333333,820.30373,345.7632)"
       clip-path="url(#clipPath714)" />
    <path
       id="path715"
       d="m 0,0 c 2.311,0 4.609,-0.083 6.892,-0.241 l 0.005,0.5 C 4.612,0.416 2.313,0.5 0,0.5 -2.309,0.5 -4.605,0.417 -6.887,0.261 l 0.016,-0.5 C -4.595,-0.082 -2.304,0 0,0"
       style="fill:#ac9a8a;fill-opacity:1;fill-rule:nonzero;stroke:none"
       transform="matrix(1.3333333,0,0,-1.3333333,820.30373,335.5444)"
       clip-path="url(#clipPath716)" />
    <path
       id="path717"
       d="m 0,0 c 0.379,0 0.757,-0.01 1.135,-0.014 v 0.5 C 0.757,0.49 0.379,0.5 0,0.5 -0.375,0.5 -0.749,0.49 -1.123,0.486 V -0.013 C -0.749,-0.009 -0.375,0 0,0"
       style="fill:#ac9a8a;fill-opacity:1;fill-rule:nonzero;stroke:none"
       transform="matrix(1.3333333,0,0,-1.3333333,820.30373,332.82307)"
       clip-path="url(#clipPath718)" />
    <path
       id="path719"
       d="m 0,0 c -6.744,0 -13.383,-0.678 -19.844,-1.99 -0.147,-0.2 -0.29,-0.4 -0.426,-0.599 6.594,1.377 13.377,2.089 20.27,2.089 6.884,0 13.658,-0.709 20.244,-2.082 -0.14,0.199 -0.283,0.4 -0.435,0.603 C 13.359,-0.673 6.731,0 0,0"
       style="fill:#ac9a8a;fill-opacity:1;fill-rule:nonzero;stroke:none"
       transform="matrix(1.3333333,0,0,-1.3333333,820.30373,348.48453)"
       clip-path="url(#clipPath720)" />
    <path
       id="path721"
       d="M 0,0 C 1.934,0 3.859,-0.062 5.774,-0.173 V 0.328 C 3.859,0.438 1.934,0.5 0,0.5 -1.932,0.5 -3.854,0.438 -5.768,0.328 v -0.5 C -3.855,-0.062 -1.932,0 0,0"
       style="fill:#ac9a8a;fill-opacity:1;fill-rule:nonzero;stroke:none"
       transform="matrix(1.3333333,0,0,-1.3333333,820.30373,338.26573)"
       clip-path="url(#clipPath722)" />
    <path
       id="path723"
       d="m 0,0 c -10.092,0 -19.95,-1.511 -29.323,-4.413 v -0.524 c 9.37,2.918 19.229,4.437 29.323,4.437 10.094,0 19.953,-1.517 29.324,-4.434 v 0.525 C 19.95,-1.509 10.092,0 0,0"
       style="fill:#ac9a8a;fill-opacity:1;fill-rule:nonzero;stroke:none"
       transform="matrix(1.3333333,0,0,-1.3333333,820.30373,359.3696)"
       clip-path="url(#clipPath724)" />
    <path
       id="path725"
       d="m 0,0 c -10.092,0 -19.95,-1.511 -29.323,-4.413 v -0.524 c 9.37,2.918 19.229,4.437 29.323,4.437 10.094,0 19.953,-1.517 29.324,-4.434 v 0.525 C 19.95,-1.509 10.092,0 0,0"
       style="fill:#ac9a8a;fill-opacity:1;fill-rule:nonzero;stroke:none"
       transform="matrix(1.3333333,0,0,-1.3333333,820.30373,356.64827)"
       clip-path="url(#clipPath726)" />
    <path
       id="path727"
       d="m 0,0 c -7.268,0 -14.415,-0.781 -21.348,-2.302 -0.109,-0.197 -0.212,-0.392 -0.31,-0.583 7.028,1.574 14.28,2.385 21.658,2.385 7.385,0 14.646,-0.809 21.682,-2.386 -0.1,0.189 -0.207,0.382 -0.318,0.578 C 14.426,-0.785 7.274,0 0,0"
       style="fill:#ac9a8a;fill-opacity:1;fill-rule:nonzero;stroke:none"
       transform="matrix(1.3333333,0,0,-1.3333333,820.30373,351.20547)"
       clip-path="url(#clipPath728)" />
    <path
       id="path729"
       d="m 0,0 c -7.653,0 -15.17,-0.872 -22.445,-2.555 -0.08,-0.196 -0.154,-0.384 -0.222,-0.565 7.342,1.726 14.935,2.62 22.667,2.62 7.748,0 15.356,-0.897 22.714,-2.63 -0.068,0.181 -0.142,0.37 -0.223,0.566 C 15.202,-0.874 7.668,0 0,0"
       style="fill:#ac9a8a;fill-opacity:1;fill-rule:nonzero;stroke:none"
       transform="matrix(1.3333333,0,0,-1.3333333,820.30373,353.92693)"
       clip-path="url(#clipPath730)" />
    <path
       id="path731"
       d="m 0,0 c -15.361,9.436 -33.066,14.486 -51.549,14.486 -18.484,0 -36.19,-5.047 -51.55,-14.485 v -0.589 c 15.343,9.494 33.055,14.574 51.55,14.574 18.494,0 36.205,-5.081 51.549,-14.573 z"
       style="fill:#ac9a8a;fill-opacity:1;fill-rule:nonzero;stroke:none"
       transform="matrix(1.3333333,0,0,-1.3333333,889.03627,381.40533)"
       clip-path="url(#clipPath732)" />
    <path
       id="path733"
       d="M 0,0 C 3.724,0 7.416,-0.213 11.063,-0.619 10.413,-0.344 9.785,-0.115 9.192,0.075 6.154,0.353 3.088,0.5 0,0.5 -2.809,0.5 -5.598,0.376 -8.365,0.145 -8.984,-0.043 -9.656,-0.271 -10.358,-0.542 -6.94,-0.186 -3.484,0 0,0"
       style="fill:#ac9a8a;fill-opacity:1;fill-rule:nonzero;stroke:none"
       transform="matrix(1.3333333,0,0,-1.3333333,820.30373,340.9868)"
       clip-path="url(#clipPath734)" />
    <path
       id="path735"
       d="m 0,0 c 5.283,0 10.502,-0.421 15.621,-1.235 -0.294,0.229 -0.59,0.444 -0.887,0.649 C 9.9,0.132 4.978,0.5 0,0.5 -4.894,0.5 -9.733,0.144 -14.488,-0.552 -14.819,-0.76 -15.147,-0.98 -15.471,-1.211 -10.4,-0.414 -5.232,0 0,0"
       style="fill:#ac9a8a;fill-opacity:1;fill-rule:nonzero;stroke:none"
       transform="matrix(1.3333333,0,0,-1.3333333,820.30373,343.70787)"
       clip-path="url(#clipPath736)" />
  </g>
</svg>
