<?xml version="1.0" encoding="UTF-8" standalone="no"?>
<!-- Created with Inkscape (http://www.inkscape.org/) -->

<svg
   version="1.1"
   id="svg1"
   width="412.39465"
   height="150.09734"
   viewBox="0 0 412.39465 150.09733"
   sodipodi:docname="大礼堂-辅助.pdf"
   xmlns:inkscape="http://www.inkscape.org/namespaces/inkscape"
   xmlns:sodipodi="http://sodipodi.sourceforge.net/DTD/sodipodi-0.dtd"
   xmlns="http://www.w3.org/2000/svg"
   xmlns:svg="http://www.w3.org/2000/svg">
  <defs
     id="defs1">
    <clipPath
       clipPathUnits="userSpaceOnUse"
       id="clipPath738">
      <path
         d="M 0,595.276 H 841.89 V 0 H 0 Z"
         transform="translate(-512.12902,-476.40021)"
         id="path738" />
    </clipPath>
    <clipPath
       clipPathUnits="userSpaceOnUse"
       id="clipPath740">
      <path
         d="M 0,595.276 H 841.89 V 0 H 0 Z"
         transform="translate(-512.12902,-499.39261)"
         id="path740" />
    </clipPath>
    <clipPath
       clipPathUnits="userSpaceOnUse"
       id="clipPath742">
      <path
         d="M 0,595.276 H 841.89 V 0 H 0 Z"
         transform="translate(-512.12902,-505.51541)"
         id="path742" />
    </clipPath>
    <clipPath
       clipPathUnits="userSpaceOnUse"
       id="clipPath744">
      <path
         d="M 0,595.276 H 841.89 V 0 H 0 Z"
         transform="translate(-512.12902,-470.27711)"
         id="path744" />
    </clipPath>
    <clipPath
       clipPathUnits="userSpaceOnUse"
       id="clipPath746">
      <path
         d="M 0,595.276 H 841.89 V 0 H 0 Z"
         transform="translate(-512.12902,-493.26961)"
         id="path746" />
    </clipPath>
    <clipPath
       clipPathUnits="userSpaceOnUse"
       id="clipPath748">
      <path
         d="M 0,595.276 H 841.89 V 0 H 0 Z"
         transform="translate(-512.12902,-445.78621)"
         id="path748" />
    </clipPath>
    <clipPath
       clipPathUnits="userSpaceOnUse"
       id="clipPath750">
      <path
         d="M 0,595.276 H 841.89 V 0 H 0 Z"
         transform="translate(-512.12902,-451.90901)"
         id="path750" />
    </clipPath>
    <clipPath
       clipPathUnits="userSpaceOnUse"
       id="clipPath752">
      <path
         d="M 0,595.276 H 841.89 V 0 H 0 Z"
         transform="translate(-512.12902,-464.15511)"
         id="path752" />
    </clipPath>
    <clipPath
       clipPathUnits="userSpaceOnUse"
       id="clipPath754">
      <path
         d="M 0,595.276 H 841.89 V 0 H 0 Z"
         transform="translate(-512.12902,-458.03201)"
         id="path754" />
    </clipPath>
    <clipPath
       clipPathUnits="userSpaceOnUse"
       id="clipPath756">
      <path
         d="M 0,595.276 H 841.89 V 0 H 0 Z"
         transform="translate(-666.77722,-396.20541)"
         id="path756" />
    </clipPath>
    <clipPath
       clipPathUnits="userSpaceOnUse"
       id="clipPath758">
      <path
         d="M 0,595.276 H 841.89 V 0 H 0 Z"
         transform="translate(-512.12902,-487.14751)"
         id="path758" />
    </clipPath>
    <clipPath
       clipPathUnits="userSpaceOnUse"
       id="clipPath760">
      <path
         d="M 0,595.276 H 841.89 V 0 H 0 Z"
         transform="translate(-512.12902,-481.02441)"
         id="path760" />
    </clipPath>
  </defs>
  <sodipodi:namedview
     id="namedview1"
     pagecolor="#ffffff"
     bordercolor="#000000"
     borderopacity="0.25"
     inkscape:showpageshadow="2"
     inkscape:pageopacity="0.0"
     inkscape:pagecheckerboard="0"
     inkscape:deskcolor="#d1d1d1">
    <inkscape:page
       x="0"
       y="0"
       width="412.39465"
       height="150.09734"
       id="page2"
       margin="0"
       bleed="0" />
  </sodipodi:namedview>
  <g
     id="layer-MC0"
     inkscape:groupmode="layer"
     inkscape:label="图层 1"
     transform="translate(-476.64161,-117.68214)">
    <path
       id="path737"
       d="m 0,0 c -18.039,0 -35.825,-1.623 -53.208,-4.759 -0.618,-0.613 -1.212,-1.23 -1.788,-1.85 17.948,3.37 36.337,5.11 54.996,5.11 18.616,0 36.962,-1.735 54.871,-5.088 -0.56,0.614 -1.14,1.229 -1.742,1.847 C 35.771,-1.614 18.01,0 0,0"
       style="fill:#ac9a8a;fill-opacity:1;fill-rule:nonzero;stroke:none"
       transform="matrix(1.3333333,0,0,-1.3333333,682.83867,158.50107)"
       clip-path="url(#clipPath738)" />
    <path
       id="path739"
       d="m 0,0 c 6.932,0 13.826,-0.251 20.676,-0.723 l 0.015,1.501 C 13.836,1.248 6.937,1.499 0,1.499 c -6.927,0 -13.816,-0.247 -20.662,-0.715 l 0.048,-1.5 C -13.784,-0.247 -6.912,0 0,0"
       style="fill:#ac9a8a;fill-opacity:1;fill-rule:nonzero;stroke:none"
       transform="matrix(1.3333333,0,0,-1.3333333,682.83867,127.84453)"
       clip-path="url(#clipPath740)" />
    <path
       id="path741"
       d="M 0,0 C 1.137,0 2.27,-0.029 3.406,-0.042 V 1.457 C 2.27,1.47 1.137,1.499 0,1.499 -1.125,1.499 -2.246,1.471 -3.369,1.458 V -0.04 C -2.246,-0.028 -1.125,0 0,0"
       style="fill:#ac9a8a;fill-opacity:1;fill-rule:nonzero;stroke:none"
       transform="matrix(1.3333333,0,0,-1.3333333,682.83867,119.6808)"
       clip-path="url(#clipPath742)" />
    <path
       id="path743"
       d="m 0,0 c -20.232,0 -40.149,-2.035 -59.531,-5.97 -0.442,-0.601 -0.871,-1.199 -1.278,-1.796 19.781,4.131 40.129,6.267 60.809,6.267 20.652,0 40.973,-2.13 60.731,-6.247 -0.42,0.598 -0.849,1.199 -1.305,1.808 C 40.076,-2.019 20.194,0 0,0"
       style="fill:#ac9a8a;fill-opacity:1;fill-rule:nonzero;stroke:none"
       transform="matrix(1.3333333,0,0,-1.3333333,682.83867,166.6652)"
       clip-path="url(#clipPath744)" />
    <path
       id="path745"
       d="M 0,0 C 5.803,0 11.576,-0.187 17.323,-0.518 V 0.983 C 11.576,1.313 5.803,1.499 0,1.499 -5.797,1.499 -11.564,1.313 -17.304,0.984 V -0.517 C -11.564,-0.187 -5.797,0 0,0"
       style="fill:#ac9a8a;fill-opacity:1;fill-rule:nonzero;stroke:none"
       transform="matrix(1.3333333,0,0,-1.3333333,682.83867,136.00853)"
       clip-path="url(#clipPath746)" />
    <path
       id="path747"
       d="m 0,0 c -30.276,0 -59.851,-4.533 -87.971,-13.24 v -1.572 C -59.86,-6.058 -30.283,-1.499 0,-1.499 c 30.281,0 59.86,-4.553 87.971,-13.302 v 1.572 C 59.851,-4.526 30.275,0 0,0"
       style="fill:#ac9a8a;fill-opacity:1;fill-rule:nonzero;stroke:none"
       transform="matrix(1.3333333,0,0,-1.3333333,682.83867,199.31973)"
       clip-path="url(#clipPath748)" />
    <path
       id="path749"
       d="m 0,0 c -30.276,0 -59.851,-4.533 -87.971,-13.24 v -1.572 C -59.86,-6.057 -30.283,-1.499 0,-1.499 c 30.281,0 59.86,-4.553 87.971,-13.302 v 1.572 C 59.851,-4.526 30.275,0 0,0"
       style="fill:#ac9a8a;fill-opacity:1;fill-rule:nonzero;stroke:none"
       transform="matrix(1.3333333,0,0,-1.3333333,682.83867,191.156)"
       clip-path="url(#clipPath750)" />
    <path
       id="path751"
       d="m 0,0 c -21.804,0 -43.246,-2.343 -64.043,-6.905 -0.327,-0.593 -0.636,-1.176 -0.931,-1.751 21.084,4.722 42.84,7.157 64.974,7.157 22.156,0 43.939,-2.428 65.046,-7.158 -0.301,0.567 -0.62,1.146 -0.955,1.734 C 43.278,-2.356 21.821,0 0,0"
       style="fill:#ac9a8a;fill-opacity:1;fill-rule:nonzero;stroke:none"
       transform="matrix(1.3333333,0,0,-1.3333333,682.83867,174.82787)"
       clip-path="url(#clipPath752)" />
    <path
       id="path753"
       d="m 0,0 c -22.958,0 -45.511,-2.615 -67.336,-7.666 -0.239,-0.587 -0.461,-1.152 -0.665,-1.695 22.027,5.18 44.806,7.862 68.001,7.862 23.243,0 46.07,-2.693 68.141,-7.892 -0.203,0.544 -0.425,1.11 -0.667,1.699 C 45.606,-2.623 23.006,0 0,0"
       style="fill:#ac9a8a;fill-opacity:1;fill-rule:nonzero;stroke:none"
       transform="matrix(1.3333333,0,0,-1.3333333,682.83867,182.992)"
       clip-path="url(#clipPath754)" />
    <path
       id="path755"
       d="m 0,0 c -46.083,28.309 -99.198,43.458 -154.648,43.458 -55.45,0 -108.567,-15.141 -154.648,-43.454 v -1.768 c 46.028,28.483 99.163,43.723 154.648,43.723 55.484,0 108.617,-15.245 154.648,-43.721 z"
       style="fill:#ac9a8a;fill-opacity:1;fill-rule:nonzero;stroke:none"
       transform="matrix(1.3333333,0,0,-1.3333333,889.03627,265.42747)"
       clip-path="url(#clipPath756)" />
    <path
       id="path757"
       d="M 0,0 C 11.173,0 22.246,-0.639 33.191,-1.858 31.239,-1.032 29.354,-0.345 27.575,0.224 18.462,1.059 9.265,1.499 0,1.499 -8.426,1.499 -16.794,1.128 -25.095,0.436 -26.953,-0.13 -28.968,-0.812 -31.074,-1.628 -20.819,-0.559 -10.453,0 0,0"
       style="fill:#ac9a8a;fill-opacity:1;fill-rule:nonzero;stroke:none"
       transform="matrix(1.3333333,0,0,-1.3333333,682.83867,144.17133)"
       clip-path="url(#clipPath758)" />
    <path
       id="path759"
       d="m 0,0 c 15.851,0 31.505,-1.264 46.862,-3.703 -0.882,0.684 -1.769,1.33 -2.659,1.944 C 29.699,0.398 14.934,1.499 0,1.499 c -14.681,0 -29.198,-1.068 -43.465,-3.154 -0.993,-0.623 -1.976,-1.285 -2.949,-1.979 C -31.201,-1.24 -15.697,0 0,0"
       style="fill:#ac9a8a;fill-opacity:1;fill-rule:nonzero;stroke:none"
       transform="matrix(1.3333333,0,0,-1.3333333,682.83867,152.33547)"
       clip-path="url(#clipPath760)" />
  </g>
</svg>
