<?xml version="1.0" encoding="UTF-8" standalone="no"?>
<!-- Created with Inkscape (http://www.inkscape.org/) -->

<svg
   version="1.1"
   id="svg1"
   width="521.57477"
   height="157.31012"
   viewBox="0 0 521.57476 157.31012"
   sodipodi:docname="标准字横排.pdf"
   xmlns:inkscape="http://www.inkscape.org/namespaces/inkscape"
   xmlns:sodipodi="http://sodipodi.sourceforge.net/DTD/sodipodi-0.dtd"
   xmlns="http://www.w3.org/2000/svg"
   xmlns:svg="http://www.w3.org/2000/svg">
  <defs
     id="defs1">
    <clipPath
       clipPathUnits="userSpaceOnUse"
       id="clipPath650">
      <path
         d="M 0,595.276 H 841.89 V 0 H 0 Z"
         transform="translate(-640.20422,-448.15951)"
         id="path650" />
    </clipPath>
    <clipPath
       clipPathUnits="userSpaceOnUse"
       id="clipPath652">
      <path
         d="M 0,595.276 H 841.89 V 0 H 0 Z"
         transform="translate(-368.88141,-436.12961)"
         id="path652" />
    </clipPath>
    <clipPath
       clipPathUnits="userSpaceOnUse"
       id="clipPath654">
      <path
         d="M 0,595.276 H 841.89 V 0 H 0 Z"
         transform="translate(-395.09191,-407.04521)"
         id="path654" />
    </clipPath>
    <clipPath
       clipPathUnits="userSpaceOnUse"
       id="clipPath656">
      <path
         d="M 0,595.276 H 841.89 V 0 H 0 Z"
         transform="translate(-445.24421,-427.99781)"
         id="path656" />
    </clipPath>
    <clipPath
       clipPathUnits="userSpaceOnUse"
       id="clipPath658">
      <path
         d="M 0,595.276 H 841.89 V 0 H 0 Z"
         transform="translate(-503.00791,-454.32561)"
         id="path658" />
    </clipPath>
    <clipPath
       clipPathUnits="userSpaceOnUse"
       id="clipPath660">
      <path
         d="M 0,595.276 H 841.89 V 0 H 0 Z"
         transform="translate(-461.86041,-429.22511)"
         id="path660" />
    </clipPath>
    <clipPath
       clipPathUnits="userSpaceOnUse"
       id="clipPath662">
      <path
         d="M 0,595.276 H 841.89 V 0 H 0 Z"
         transform="translate(-428.15241,-419.25481)"
         id="path662" />
    </clipPath>
    <clipPath
       clipPathUnits="userSpaceOnUse"
       id="clipPath664">
      <path
         d="M 0,595.276 H 841.89 V 0 H 0 Z"
         transform="translate(-585.97282,-443.30851)"
         id="path664" />
    </clipPath>
    <clipPath
       clipPathUnits="userSpaceOnUse"
       id="clipPath666">
      <path
         d="M 0,595.276 H 841.89 V 0 H 0 Z"
         transform="translate(-599.01772,-408.69731)"
         id="path666" />
    </clipPath>
    <clipPath
       clipPathUnits="userSpaceOnUse"
       id="clipPath668">
      <path
         d="M 0,595.276 H 841.89 V 0 H 0 Z"
         transform="translate(-537.76621,-442.96221)"
         id="path668" />
    </clipPath>
    <clipPath
       clipPathUnits="userSpaceOnUse"
       id="clipPath670">
      <path
         d="M 0,595.276 H 841.89 V 0 H 0 Z"
         transform="translate(-680.02061,-405.02641)"
         id="path670" />
    </clipPath>
    <clipPath
       clipPathUnits="userSpaceOnUse"
       id="clipPath672">
      <path
         d="M 0,595.276 H 841.89 V 0 H 0 Z"
         transform="translate(-692.55431,-479.37301)"
         id="path672" />
    </clipPath>
  </defs>
  <sodipodi:namedview
     id="namedview1"
     pagecolor="#ffffff"
     bordercolor="#000000"
     borderopacity="0.25"
     inkscape:showpageshadow="2"
     inkscape:pageopacity="0.0"
     inkscape:pagecheckerboard="0"
     inkscape:deskcolor="#d1d1d1"
     showgrid="false">
    <inkscape:page
       x="0"
       y="0"
       width="521.57477"
       height="157.31012"
       id="page2"
       margin="0"
       bleed="0" />
  </sodipodi:namedview>
  <g
     id="g1"
     inkscape:groupmode="layer"
     inkscape:label="1"
     transform="translate(-428.62507,-117.68295)">
    <path
       id="path649"
       d="m 0,0 c -1.359,0 -3.863,-3.689 -4.293,-4.528 -0.377,-0.733 -0.828,-1.752 -1.162,-2.451 -0.626,-1.311 -1.21,-2.485 -1.813,-3.747 -0.737,-1.546 -1.947,-3 -2.638,-4.511 -1.29,-2.818 -0.108,-4.74 3.036,-4.821 3.051,-0.079 5.752,2.727 6.988,5.293 0.11,0.23 0.209,0.461 0.299,0.694 0.905,2.368 0.972,3.45 0.785,5.943 C 1.014,-5.609 -0.701,-4.011 0,0"
       style="fill:#231f20;fill-opacity:1;fill-rule:evenodd;stroke:none"
       transform="matrix(1.3333333,0,0,-1.3333333,853.6056,196.15533)"
       clip-path="url(#clipPath650)" />
    <path
       id="path651"
       d="M 0,0 C 0.623,0.461 2.303,0.445 2.348,1.435 2.414,2.866 -3.024,4.694 -4.501,4.566 -5.966,4.44 -8.29,2.699 -9.716,3.557 c -1.313,0.79 -0.87,4.287 -0.717,5.568 0.137,1.136 0.744,1.604 1.8,1.691 1.386,0.114 2.741,0.402 4.117,0.548 1.005,0.106 2.164,0.089 2.69,1.161 0.279,0.57 -0.56,2.675 -0.914,3.131 -1.125,1.448 -1.827,0.388 -3.326,0 -1.246,-0.323 -3.171,-1.038 -3.658,0.337 -0.545,1.539 -0.272,3.964 -0.261,5.589 0.011,1.873 1.863,1.597 3.456,1.922 4.842,0.989 9.687,1.979 14.569,2.756 1.168,0.185 2.356,0.309 3.516,0.541 0.854,0.171 1.275,0.392 1.01,-0.644 C 12.164,24.577 11.12,23.185 10.437,21.722 9.506,19.729 8.262,18.347 6.85,16.308 5.275,14.035 3.431,11.493 1.305,9.263 0.828,8.763 -0.096,7.528 -0.913,7.306 -1.785,7.068 -2.843,7.419 -3.691,7 -5.044,6.332 -3.222,5.691 -2.595,5.471 -0.865,4.863 1.144,3.983 3.031,4.692 c 1.944,0.729 3.884,2.391 5.482,3.704 3.139,2.578 6.035,5.452 8.642,8.567 1.28,1.529 2.49,3.116 3.625,4.756 0.526,0.76 0.898,1.152 1.569,1.702 0.51,0.418 0.82,0.65 0.984,1.348 0.364,1.55 -0.782,2.364 -1.596,3.418 -0.955,1.238 -0.881,3.285 -2.428,4.203 -1.01,0.598 -2.473,0.521 -3.562,0.32 -1.364,-0.251 -19.883,-4.179 -22.401,-4.791 -1.632,-0.396 -2.586,-0.79 -2.906,1.34 -0.275,1.835 -0.417,3.453 0.069,5.25 0.411,1.517 0.789,1.269 2.196,1.3 0.937,0.021 1.887,0.017 2.82,0.128 1.83,0.217 -3.004,5.514 -3.333,6.145 -0.778,1.497 -0.017,3.543 -0.232,5.143 -0.305,2.277 0.019,4.909 0.509,7.164 0.296,1.363 0.356,2.776 0.178,4.158 -0.092,0.714 -0.252,1.433 -0.608,2.058 -0.745,1.31 -2.262,2.03 -3.76,2.194 -0.36,0.04 -0.717,0.051 -1.073,0.041 -1.444,-0.042 -2.852,-0.432 -4.272,-0.658 -1.303,-0.208 -3.029,-0.206 -4.004,-1.255 -1.04,-1.121 0.84,-2.435 1.632,-2.994 0.531,-0.376 1.218,-0.662 1.55,-1.221 0.345,-0.58 0.433,-1.537 0.569,-2.201 0.786,-3.846 0.512,-7.781 0.449,-11.683 -0.034,-2.086 -0.477,-2.111 -2.308,-2.645 -4.245,-1.237 -8.788,-2.123 -13.228,-2.079 -0.293,0.002 -2.455,-0.195 -2.428,-0.27 0.423,-1.146 2.909,-2.589 3.815,-3.224 1.075,-0.751 2.473,-1.385 4.013,-1.864 2.396,-0.744 2.544,-0.547 5.188,0.291 2.112,0.67 3.383,0.884 4.988,0.884 0.184,0 -0.037,-5.332 -0.054,-5.75 -0.113,-2.72 -0.942,-2.6 -3.509,-3.177 -2.372,-0.532 -4.761,-0.985 -7.135,-1.51 -1.418,-0.315 -2.586,-0.815 -4.175,-1.305 -1.455,-0.449 -4.267,-1.755 -6.653,-1.696 0,-0.155 3.581,-1.749 4.044,-1.957 1.282,-0.576 2.625,-0.886 3.653,-0.783 2.061,0.206 4.398,1.126 6.468,1.563 1.435,0.304 4.978,2.025 6.301,1.671 1.56,-0.417 0.891,-3.347 0.758,-4.61 -0.089,-0.847 -0.067,-2.411 -0.535,-3.137 -0.779,-1.207 -3.158,-1.229 -4.381,-1.619 -2.216,-0.705 -11.481,-2.822 -11.481,-4.827 0,-0.158 3.054,-0.538 3.3,-0.576 0.697,-0.108 1.347,-0.313 2.021,-0.456 0.952,-0.202 1.886,0.135 2.795,0.439 1.612,0.538 3.297,0.823 4.972,1.08 1.229,0.188 2.792,0.948 3.178,-0.606 0.201,-0.808 0.054,-1.5 0.068,-2.311 0.025,-1.429 -0.153,-2.64 -0.435,-3.996 -0.04,-0.189 -0.244,-0.306 -0.436,-0.312 -0.766,-0.023 -1.481,0.073 -2.272,-0.085 -0.745,-0.15 -1.847,-0.183 -2.493,-0.613 -1.472,-0.591 -2.814,-1.457 -4.211,-2.198 -0.921,-0.488 -2.96,-1.897 -3.823,-0.593 -0.297,0.449 -0.329,1.016 -0.385,1.552 -0.339,3.237 -1.857,6.215 -3.348,9.108 -0.344,0.666 -0.688,1.239 -1.128,1.83 -0.417,0.56 -0.593,1.212 -1.137,1.689 -0.574,0.505 -1.271,0.865 -1.992,1.108 -1.68,0.566 -3.53,0.716 -5.283,0.838 -0.733,0.05 -3.32,0.284 -3.274,-0.948 0.03,-0.798 1.047,-1.588 1.503,-2.17 0.734,-0.936 1.52,-1.85 2.073,-2.91 0.793,-1.521 1.827,-3.48 2.732,-5 0.861,-1.447 2.093,-3.602 3.576,-4.447 0.393,-0.224 0.901,-0.289 1.322,-0.449 0.368,-0.141 0.737,-0.327 1.037,-0.585 0.19,-0.165 0.308,-0.39 0.464,-0.583 0.122,-0.151 0.428,-0.312 0.449,-0.517 0.038,-0.366 -0.644,-0.472 -0.89,-0.537 -0.639,-0.169 -0.408,-0.81 0.056,-1.027 1.423,-0.666 3.571,-0.156 5.025,0.149 1.18,0.248 2.36,0.496 3.541,0.744 1.046,0.22 2.095,0.441 3.121,0.744 0.88,0.26 1.741,0.581 2.607,0.887 0.78,0.277 1.565,0.544 2.366,0.755 0.34,0.09 0.661,0.224 0.963,0.388 0.692,-1.262 0.275,-3.375 0.305,-4.78 0.042,-1.982 -2.484,-4.013 -3.656,-5.376 -1.513,-1.759 -3.071,-3.478 -4.664,-5.164 -3.147,-3.33 -6.43,-6.529 -9.774,-9.661 -1.388,-1.3 -2.815,-2.559 -4.279,-3.773 -0.732,-0.607 -1.474,-1.203 -2.223,-1.788 -0.134,-0.104 -1.64,-1.31 -1.558,-1.337 -0.592,0.196 -0.706,-0.376 -0.194,-0.588 0.253,-0.104 0.806,0.177 1.239,0.196 1.415,0.06 2.885,0.844 4.129,1.458 1.464,0.721 2.929,1.444 4.393,2.166 2.854,1.407 5.522,3.325 7.965,5.353 2.343,1.946 4.679,3.772 6.77,6.011 0.316,0.338 0.754,1.229 1.142,0.592 0.225,-0.369 0.019,-1.06 0.027,-1.469 0.025,-1.229 0.06,-2.457 0.095,-3.685 0.067,-2.387 0.154,-4.776 0.137,-7.164 -0.003,-0.513 0.218,-2.879 -0.006,-3.78 -0.614,-2.468 -4.47,-1.618 -6.256,-1.439 -1.658,0.167 -3.156,0.881 -4.865,0.698 -1.528,-0.163 0.49,-1.882 0.821,-2.264 2.002,-2.307 5.336,-4.196 8.088,-5.349 1.699,-0.711 4.257,-2.548 6.192,-1.866 0.778,0.274 1.241,1.016 1.41,1.784 0.195,0.877 0.439,1.735 0.54,2.641 0.126,1.143 0.307,2.249 0.35,3.403 0.145,3.891 0.289,7.783 0.325,11.678 0.035,3.794 -0.229,7.581 -0.218,11.37 0.005,1.763 -0.048,3.133 1.171,4.519 0.96,1.091 2.199,1.898 3.146,3.001 1.284,1.494 2.634,3.06 3.982,4.411 C -1.952,-2.043 -0.96,-0.712 0,0"
       style="fill:#231f20;fill-opacity:1;fill-rule:evenodd;stroke:none"
       transform="matrix(1.3333333,0,0,-1.3333333,491.84187,212.1952)"
       clip-path="url(#clipPath652)" />
    <path
       id="path653"
       d="m 0,0 c -0.404,1.302 -0.971,2.595 -2.033,3.497 -2.418,2.054 -5.732,2.846 -8.716,3.764 -3.443,1.059 -6.942,1.937 -10.474,2.648 -0.743,0.15 -1.495,0.255 -2.247,0.361 -0.6,0.084 -5.925,0.475 -6.002,0.94 0.386,-2.312 4.4,-4.833 6.393,-5.609 2.78,-1.084 5.028,-2.464 7.567,-3.458 0.826,-0.323 4.546,-1.294 4.957,-2.022 1.681,-2.976 -6.078,-5.606 -7.028,-7.96 0.569,-0.211 1.185,-0.061 1.763,0.074 1.863,0.436 3.661,0.563 5.471,1.212 3.149,1.128 6.395,2.266 9.457,3.609 C 0.684,-2.254 0.474,-1.527 0,0"
       style="fill:#231f20;fill-opacity:1;fill-rule:evenodd;stroke:none"
       transform="matrix(1.3333333,0,0,-1.3333333,526.7892,250.9744)"
       clip-path="url(#clipPath654)" />
    <path
       id="path655"
       d="m 0,0 c 0.14,-0.028 0.287,-0.054 0.423,-0.011 0.346,0.108 0.825,0.785 1.115,1.044 0.634,0.567 1.26,1.131 1.846,1.752 1.642,1.738 3.151,3.71 4.592,5.616 0.538,0.711 3.529,4.301 0.998,3.992 C 6.588,12.102 4.414,10.743 2.63,9.223 1.211,8.013 -0.62,6.552 -2.593,6.697 -3.131,6.736 -4.997,6.524 -4.417,7.471 c 0.954,1.56 2.335,2.939 3.365,4.48 1.19,1.778 2.28,3.626 3.183,5.566 1.271,2.73 2.426,5.496 3.297,8.386 0.871,2.888 1.554,5.827 2.341,8.737 0.41,1.518 0.555,3.102 1.033,4.581 0.222,0.686 0.189,1.99 0.808,2.465 0.762,0.584 2.041,0.388 2.934,0.556 1.241,0.233 2.499,0.478 3.76,0.685 2.771,0.454 5.531,1.023 8.21,1.877 1.589,0.506 3.083,1.081 4.692,1.452 1.346,0.311 2.855,1.481 2.498,3.055 -0.273,1.208 -1.688,1.718 -2.514,2.503 -1.335,1.269 -1.169,1.326 -2.347,0.379 -0.338,-0.271 -0.301,-0.707 -0.69,-1.104 -0.399,-0.408 -0.224,0.096 -0.966,-0.276 -2.701,-1.355 -5.573,-2.137 -8.536,-2.799 -1.354,-0.302 -3.38,-1.318 -4.758,-0.729 -1.675,0.716 -1.289,4.267 -1.014,5.739 0.265,1.407 1.909,3.198 0.664,4.563 -0.165,0.181 -0.426,0.228 -0.668,0.262 C 9.688,58.012 8.489,58.092 7.291,58.087 6.922,58.085 5.33,58.326 5.028,58.128 4.4,57.716 4.828,54.943 4.854,54.343 4.922,52.788 5.026,51.231 5.161,49.681 5.231,48.868 5.69,47.365 5.073,46.666 4.353,45.848 2.003,45.859 0.985,45.688 c -3.236,-0.543 -6.527,-0.898 -9.81,-0.654 -3.069,0.228 -1.208,-3.088 0.257,-4.063 1.28,-0.852 2.901,-0.985 4.396,-0.951 1.547,0.036 3.026,0.318 4.541,0.493 1.545,0.178 3.925,1.044 4.029,-1.031 C 4.5,37.443 3.614,35.648 3.236,33.694 2.597,30.386 1.885,27.314 0.751,24.721 -0.954,20.819 -2.725,17.032 -5.047,13.538 -5.421,12.975 -6.376,12.204 -6.842,11.744 -7.611,10.984 -7.442,10.555 -8.469,10.05 -9.141,9.719 -10.095,10.202 -10.92,9.753 -11.295,9.549 -11.491,9.201 -11.827,8.95 -11.72,8.616 -11.311,8.513 -10.975,8.411 -9.774,8.047 -8.866,7.082 -8.018,6.156 -5.725,3.655 -3.521,0.715 0,0"
       style="fill:#231f20;fill-opacity:1;fill-rule:evenodd;stroke:none"
       transform="matrix(1.3333333,0,0,-1.3333333,593.65893,223.0376)"
       clip-path="url(#clipPath656)" />
    <path
       id="path657"
       d="m 0,0 c -0.055,0.194 -0.177,0.361 -0.3,0.521 -1.102,1.438 -2.586,3.086 -4.076,4.128 -1.387,0.97 -2.839,0.233 -4.245,-0.27 -3.038,-1.088 -6.063,-1.549 -9.164,-2.393 -3.506,-0.954 -7.011,-1.909 -10.517,-2.863 -2.756,-0.75 -5.572,-1.232 -8.347,-1.896 -1.309,-0.313 -3.578,-0.733 -4.572,-1.654 -2.067,-1.914 1.051,-2.13 2.933,-2.521 3.625,-0.753 6.898,-0.325 10.566,0.37 2.417,0.458 18.19,5.408 18.713,2.515 0.099,-0.546 -0.19,-1.323 -0.216,-1.887 -0.047,-1.051 0.011,-2.114 -0.016,-3.168 -0.052,-2.037 -0.185,-4.071 -0.381,-6.099 -0.392,-4.068 -1.042,-8.107 -1.828,-12.116 -0.346,-1.765 -0.72,-3.524 -1.111,-5.279 -0.767,-3.446 -1.61,-6.907 -3.12,-10.098 -0.544,-1.149 -1.195,-2.25 -2.153,-3.103 -1.105,-0.983 -2.453,-0.907 -3.871,-0.989 -1.37,-0.079 -2.745,-0.131 -4.117,-0.112 -0.86,0.011 -1.72,0.052 -2.576,0.138 -0.774,0.079 -1.406,0.248 -2.161,0.094 -0.272,-0.056 -0.965,-0.028 -1.081,-0.322 -0.126,-0.318 0.366,-0.662 0.553,-0.827 1.298,-1.144 2.89,-1.894 4.17,-3.061 2.413,-2.199 4.678,-4.641 6.903,-6.765 0.675,-0.644 1.17,-1.818 2.034,-2.232 2.703,-1.296 6.662,6.274 7.637,8.039 5.804,10.517 7.194,23.744 8.655,35.368 0.65,5.171 0.537,10.543 1.641,15.628 C 0.014,-0.572 0.079,-0.277 0,0"
       style="fill:#231f20;fill-opacity:1;fill-rule:evenodd;stroke:none"
       transform="matrix(1.3333333,0,0,-1.3333333,670.6772,187.93387)"
       clip-path="url(#clipPath658)" />
    <path
       id="path659"
       d="M 0,0 C 2.711,1.666 5.83,2.516 8.842,3.455 9.331,3.607 10.494,3.934 10.243,4.679 10.044,5.269 8.699,5.327 8.188,5.408 6.612,5.658 5.168,5.737 3.587,5.346 2.645,5.113 1.835,4.434 0.907,4.122 -0.312,3.712 -2.295,2.479 -3.564,3.004 c -1.011,0.418 -0.168,0.937 0.265,1.35 0.736,0.702 1.584,1.36 2.137,2.228 1.165,1.83 2.857,3.772 3.727,5.522 1.495,3.006 -3.298,3.797 -5.729,3.797 -0.324,0.198 0.006,-0.917 0,-1.657 C -3.175,12.98 -4.072,12.01 -4.544,10.793 -5.478,8.388 -6.486,6.82 -7.72,4.718 -8.28,3.763 -9.102,2.54 -9.791,1.405 c -1.616,-2.663 -5.587,-3.83 -8.442,-4.437 -1.23,-0.262 -2.733,-0.189 -3.817,-0.899 -1.645,-1.075 0.32,-2.432 1.386,-2.999 1.288,-0.685 2.755,-1.034 4.214,-0.984 2.05,0.071 3.738,1.157 5.176,2.496 1.17,1.09 2.998,1.313 3.623,-0.494 0.645,-1.86 0.208,-3.858 0.208,-5.522 -0.977,0.326 -2.81,-1.059 -3.713,-1.442 -1.44,-0.612 -2.85,-1.292 -4.325,-1.816 -1.74,-0.618 -3.304,-1.516 -5.002,-2.222 -1.307,-0.543 -0.342,-1.262 0.525,-1.702 1.896,-0.965 4.612,-0.48 6.578,0.072 1.647,0.463 3.166,1.325 4.825,1.73 0.235,0.057 0.479,0.106 0.716,0.058 0.986,-0.201 0.358,-1.761 0.326,-2.409 -0.052,-1.097 -0.115,-2.727 -0.138,-3.59 -0.101,-3.9 -0.682,-7.628 -1.344,-11.422 -0.274,-1.576 -0.642,-3.047 -1.031,-4.588 -0.419,-1.672 1.353,-1.666 2.414,-1.048 1.437,0.837 1.921,3.283 2.481,4.757 0.791,2.083 1.5,4.199 2.09,6.348 1.122,4.079 1.89,8.344 1.665,12.589 -0.091,1.709 -0.639,3.263 1.45,3.841 1.404,0.388 2.758,0.953 4.147,1.421 0.334,0.113 0.67,0.223 1.014,0.299 0.388,0.085 0.794,0.13 1.141,0.323 2.167,1.207 -1.555,3.458 -2.637,3.633 C 2.079,-6.333 1.192,-7.346 -0.095,-8.128 -1.68,-9.091 -1.6,-9.034 -1.843,-7.433 -2.243,-4.802 -2.602,-1.599 0,0"
       style="fill:#231f20;fill-opacity:1;fill-rule:evenodd;stroke:none"
       transform="matrix(1.3333333,0,0,-1.3333333,615.81387,221.4012)"
       clip-path="url(#clipPath660)" />
    <path
       id="path661"
       d="m 0,0 c -0.341,2.188 -0.421,4.404 -0.431,6.616 -0.007,1.597 0.039,3.197 0.058,4.794 0.014,1.152 0.31,2.503 -0.189,3.592 -0.226,0.493 -0.755,0.906 -1.161,1.242 -0.574,0.476 -0.955,1.135 -1.444,1.688 -0.437,0.494 -0.952,0.936 -1.359,1.451 -0.183,0.231 -0.471,0.495 -0.782,0.528 -0.14,0.014 -0.284,-0.018 -0.426,-0.121 -0.277,-0.201 -0.23,-0.619 -0.153,-0.952 0.165,-0.72 0.032,-1.503 0.022,-2.234 C -5.885,15.126 -5.939,13.56 -6.192,12.101 -6.601,9.766 -7.182,7.466 -7.754,5.167 -7.892,4.612 -8.03,4.057 -8.165,3.501 -9.009,0.017 -8.804,-3.602 -6.961,-6.737 c 1.162,-1.978 3.409,-5.526 5.885,-5.939 4.331,-0.722 2.872,6.093 2.126,8.33 C 0.578,-2.93 0.23,-1.475 0,0"
       style="fill:#231f20;fill-opacity:1;fill-rule:evenodd;stroke:none"
       transform="matrix(1.3333333,0,0,-1.3333333,570.86987,234.69493)"
       clip-path="url(#clipPath662)" />
    <path
       id="path663"
       d="m 0,0 c 2.81,1.198 5.627,2.534 8.537,3.501 1.189,0.394 2.409,0.723 3.66,0.842 0.916,0.086 2.392,-0.331 3.065,0.285 2.169,1.988 -1.634,7.506 -2.929,9.054 -1.752,2.096 -2.925,1.415 -4.964,0.129 C 5.714,12.767 4.153,11.577 2.396,10.7 -0.188,9.411 -2.861,8.378 -5.551,7.307 -7.441,6.555 -9.017,6.109 -10.986,5.609 -12.592,5.201 -14.223,4.867 -15.847,4.54 c -2.856,-0.576 -3.975,-1.217 -4.314,2.085 -0.43,4.204 -0.48,8.429 -0.509,12.652 -0.011,1.673 -0.019,3.346 -0.046,5.017 -0.067,4.135 -0.415,8.28 -0.399,12.414 0.003,0.745 0.239,2.036 0.4,2.759 0.514,2.305 1.435,2.52 -0.963,3.753 -1.842,0.947 -2.942,0.361 -4.714,-0.341 -0.29,-0.127 -0.13,-6.472 -0.153,-7.137 -0.15,-4.234 0.529,-8.438 0.134,-12.611 -0.454,-4.811 -0.136,-9.727 -0.35,-14.556 -0.072,-1.625 0.525,-4.327 -0.606,-5.707 -0.976,-1.191 -3.241,-0.655 -4.566,-0.796 -2.239,-0.239 -4.495,-0.325 -6.746,-0.254 -2.264,0.07 -4.501,-0.444 -6.784,-0.456 -0.336,-0.001 -0.664,0.012 -0.987,0.038 l 0.267,-0.947 c 2.352,-1.597 5.032,-2.996 7.718,-3.939 2.782,-0.976 5.718,-1.745 8.666,-2.184 0.802,-0.12 2.069,-0.021 2.476,-0.886 0.477,-1.012 -0.273,-2.125 -0.478,-3.103 -0.601,-2.876 -1.182,-5.76 -2.031,-8.575 -0.734,-2.436 -1.552,-4.848 -2.474,-7.219 -0.868,-2.234 -2.561,-4.198 -3.906,-6.188 -3.141,-4.645 -7.389,-8.086 -12.91,-9.363 -0.523,-0.121 -1.091,-0.27 -1.412,-0.701 -0.33,-0.443 -0.291,-1.088 -0.014,-1.567 0.277,-0.479 0.751,-0.814 1.249,-1.056 0.948,-0.461 2.007,-0.633 3.048,-0.799 5.487,-0.876 12.22,-2.293 16.844,1.7 0.945,0.816 2.976,2.845 3.279,4.047 2.013,8.012 3.4,16.181 4.147,24.408 0.187,2.057 0.316,4.117 0.439,6.179 0.04,0.663 -0.137,1.854 0.459,2.321 0.725,0.567 2.268,0.203 3.076,0.206 3.125,0.011 6.243,0.748 9.049,2.12 1.31,0.64 2.364,1.427 3.73,1.917 C -3.456,-1.592 -1.732,-0.738 0,0"
       style="fill:#231f20;fill-opacity:1;fill-rule:evenodd;stroke:none"
       transform="matrix(1.3333333,0,0,-1.3333333,781.29707,202.62333)"
       clip-path="url(#clipPath664)" />
    <path
       id="path665"
       d="m 0,0 c -0.746,1.114 -1.515,2.142 -2.2,3.036 -3.405,4.445 -8.137,7.976 -13.545,9.552 -0.544,0.159 -4.176,0.6 -4.337,0.913 0,0 1.509,-0.859 0.537,-0.84 0.758,-1.378 1.865,-2.582 2.715,-3.907 0.989,-1.54 1.968,-3.085 2.886,-4.668 1.192,-2.055 2.354,-4.331 3.084,-6.598 0.661,-2.052 0.929,-4.19 2.001,-6.135 1.194,-2.167 3.718,-3.692 6.118,-3.981 1.731,-0.209 5.715,-1.685 6.435,0.976 0.39,1.437 -0.259,4.077 -0.643,5.489 C 2.449,-3.946 1.269,-1.896 0,0"
       style="fill:#231f20;fill-opacity:1;fill-rule:evenodd;stroke:none"
       transform="matrix(1.3333333,0,0,-1.3333333,798.69027,248.7716)"
       clip-path="url(#clipPath666)" />
    <path
       id="path667"
       d="M 0,0 C 0.923,0.815 0.37,2.129 -0.487,2.684 -1.436,3.3 -2.548,3.53 -3.64,3.716 -4.407,3.846 -5.18,3.586 -5.681,2.952 -5.949,2.613 -6.009,2.261 -6.375,2.034 -6.702,1.832 -7.322,1.885 -7.451,1.433 -7.536,1.138 -7.278,0.86 -7.024,0.687 -6.155,0.094 -5.283,0.155 -4.292,-0.001 -3.541,-0.119 -2.77,-0.177 -2.01,-0.143 -1.438,-0.116 -0.45,-0.397 0,0"
       style="fill:#231f20;fill-opacity:1;fill-rule:evenodd;stroke:none"
       transform="matrix(1.3333333,0,0,-1.3333333,717.0216,203.08507)"
       clip-path="url(#clipPath668)" />
    <path
       id="path669"
       d="m 0,0 c -0.019,-0.146 -0.037,-0.292 -0.055,-0.437 -0.332,-2.688 -0.58,-5.175 -2.179,-7.556 -0.814,-1.211 -1.917,-2.256 -3.219,-2.927 -1.043,-0.538 -2.759,-1.197 -3.937,-1.038 -1.664,0.225 -3.177,0.657 -4.447,1.837 -1.948,1.811 -2.6,4.927 -1.469,7.348 1.097,2.346 3.569,3.585 5.927,4.318 1.715,0.533 3.498,0.73 5.276,0.927 1.026,0.114 2.114,0.485 3.15,0.275 C 0.707,2.411 0.165,1.295 0,0 M 25.179,3.123 C 24.37,4.724 23.954,6.547 22.073,6.943 20.175,7.342 18.074,7.589 16.136,7.665 13.796,7.76 11.384,7.78 9.05,7.595 8.512,7.552 7.724,7.257 7.354,7.82 7.071,8.251 7.087,8.991 7.029,9.49 c -0.149,1.281 0.278,2.958 -0.522,4.061 -0.932,1.285 -2.689,1.206 -3.779,1.313 -1.696,0.167 -3.634,0.258 -4.903,0.258 0.109,2.135 1.249,3.459 2.58,5.032 2.607,3.082 5.512,5.826 8,9.032 0.407,0.524 1.897,1.748 1.974,2.235 0.36,2.282 -3.113,3.667 -4.887,3.552 -1.319,-0.086 -2.561,-0.731 -3.797,-1.142 -3.504,-1.163 -6.674,-2.842 -9.677,-4.516 -1.245,-0.711 -2.351,-1.57 -3.498,-2.442 -0.09,-0.069 -0.182,-0.138 -0.249,-0.229 -0.095,-0.127 -0.136,-0.286 -0.165,-0.442 -0.233,-1.278 0.551,-3.25 1.609,-4.036 0.703,-0.523 1.262,0.118 1.869,0.544 1.541,1.08 3.225,2.072 4.945,2.899 1.389,0.667 3.196,2.029 4.779,2.029 C 0.581,23.273 -2.92,20.558 -4.498,16.801 -5.163,15.216 -4.91,13.228 -3.952,11.813 -3.225,10.74 -1.975,9.661 -1.9,8.278 -1.771,5.898 -5.529,6.125 -7.264,5.757 c -2.541,-0.538 -5.08,-1.239 -7.299,-2.635 -7.484,-4.707 -3.228,-17.202 4.775,-18.709 3.784,-0.712 7.873,0.651 10.743,3.151 2.127,1.853 3.853,4.263 4.868,6.897 0.54,1.404 0.87,2.884 1.097,4.368 0.054,0.347 0.266,3.734 0.478,3.781 1.312,0.292 2.66,0.288 3.993,0.178 1.707,-0.141 3.407,-0.376 5.088,-0.703 2.577,-0.501 5.112,-1.217 7.568,-2.141 0.536,-0.202 2.166,-1.067 2.523,-0.117 0.254,0.677 -1.072,2.67 -1.391,3.296"
       style="fill:#231f20;fill-opacity:1;fill-rule:evenodd;stroke:none"
       transform="matrix(1.3333333,0,0,-1.3333333,906.69413,253.66613)"
       clip-path="url(#clipPath670)" />
    <path
       id="path671"
       d="m 0,0 c -0.154,-1.624 -0.282,-2.506 -0.387,-4.258 -0.141,-2.351 -0.627,-4.661 -0.995,-6.983 -0.097,-0.613 0.038,-1.557 -0.611,-1.892 -0.572,-0.295 -1.905,0.209 -2.337,0.647 -1.553,1.575 -0.205,4.559 0.756,6.016 1.017,1.544 2.408,3.465 0.616,5.023 -2.933,2.55 -6.399,-2.16 -9.687,-2.424 -0.03,0.246 -0.656,2.72 -0.387,2.581 -1.194,0 -1.763,3.387 -3.225,3.225 0.285,2.281 3.749,4.013 5.483,5.162 0.775,0.513 4.968,2.446 4.968,3.096 2.751,0.29 5.271,2.265 6.193,-2.58 C 0.786,5.52 0.167,1.754 0,0 m -2.001,-19.906 c -0.068,-1.487 -1.528,-1.713 -2.681,-1.862 -1.674,-0.216 -3.329,-0.653 -4.97,-1.042 -0.431,-0.102 -4.075,-0.679 -4.136,-0.933 0.702,2.934 1.233,5.821 1.531,8.841 0.175,1.791 0.208,4.365 0.193,6.322 -0.008,0.968 -0.514,3.228 0.064,3.806 -0.258,-0.086 -0.344,0 -0.258,0.258 0.017,0.05 1.348,0.218 1.466,0.221 0.569,0.017 0.914,-0.075 1.372,-0.453 0.787,-0.65 1.181,-1.723 1.255,-2.716 0.101,-1.345 -0.255,-2.677 -0.383,-4.019 -0.128,-1.342 0.022,-2.823 0.945,-3.806 0.76,-0.809 1.944,-1.204 2.909,-1.702 1.294,-0.668 2.217,-1.242 3.743,-1.26 -0.62,0.007 -1.031,-1.216 -1.05,-1.655 m -1.483,-7.19 c 0,0.168 -4.7,1.456 -5.032,1.29 0.497,0.995 4.532,0.737 5.548,0.903 -0.032,-0.099 -0.042,-2.322 -0.516,-2.193 m -12.163,12.291 c -0.163,-1.261 -0.352,-3.808 -1.163,-4.97 -1.428,-2.047 -2.686,-0.218 -3.576,1.066 -1.308,1.884 -1.176,3.662 -0.867,6.436 0.166,1.489 0.769,10.079 2.673,10.079 0,0.969 1.627,-0.699 1.807,-1.032 0.393,-0.731 0.27,-1.812 0.386,-2.709 0.29,-2.232 0.616,-4.632 0.775,-7.097 0.022,-0.354 0.03,-1.267 -0.035,-1.773 m 35.072,-10.126 c -0.348,0.73 -0.806,1.408 -1.361,1.964 -1.409,1.414 -3.12,2.253 -5.29,2.451 -2.021,0.185 -4.393,0.271 -6.516,0.129 -1.434,-0.096 -2.341,0 -3.267,0 0.079,0 1.091,9.438 1.154,10.147 0.124,1.389 0.026,2.722 0.202,4.137 0.437,3.514 0.746,7.043 0.986,10.575 0.076,1.103 -0.162,2.129 -0.083,3.215 0.072,0.979 0.208,1.952 0.153,2.937 -0.112,2.021 -1.135,3.551 -2.694,4.795 -2.046,1.635 -5.099,0.297 -7.741,-0.71 -3.272,-1.246 -6.788,-4.248 -8.774,-7.225 -0.939,-1.408 -2.278,-3.185 -3.59,-4.235 -1.965,-1.573 -2.396,1.114 -2.281,2.428 0.172,1.943 0.027,4.218 0.323,6.452 0.084,0.634 0.285,2.786 0.774,3.483 0.813,1.16 4.001,2.313 5.101,2.694 1.126,0.39 2.027,1.213 3.028,1.564 1.216,0.428 3.489,0.473 4.387,1.291 1.965,1.789 -6.581,3.282 -6.581,1.548 -0.618,-0.175 -1.731,-1.139 -2.193,-1.419 -0.775,-0.47 -1.734,-0.99 -2.581,-1.42 -0.393,1.217 0.389,2.745 0.258,4 -0.078,0.751 -0.089,1.386 -0.645,2.258 -1.629,2.559 -3.975,1.097 -5.29,1.097 0,-0.631 1.435,-0.559 0,-0.516 2.101,-1.051 0.518,-5.754 0.323,-7.548 -0.183,-1.671 -0.277,-2.475 -0.259,-4.065 0.015,-1.285 -0.441,-3.103 -0.58,-4.516 -0.141,-1.424 -0.056,-4.2 -0.065,-6.193 -0.005,-1.1 -0.175,-2.806 0.323,-3.613 0.902,-1.462 2.311,-2.17 1.806,-4.258 -1.357,-5.607 -3.635,-11.451 -2.439,-17.273 0.181,-0.883 0.301,-1.892 0.774,-2.677 0.299,-0.497 1.617,-1.204 1.287,-1.853 -0.258,-0.505 -1.238,-0.257 -1.686,-0.325 -1.373,-0.21 -2.425,-0.736 -3.871,-1.097 0.317,0.079 0.563,5.623 0.601,6.085 0.078,0.975 1.126,7.496 -0.702,6.809 -0.069,-0.769 -0.129,-3.457 -1.313,-3.475 -0.332,-0.005 -2.812,6.632 -3.026,7.38 -0.768,2.693 -1.005,5.501 0.444,8.039 0.77,1.355 2.008,2.919 1.598,4.578 -0.165,0.665 -1.461,2.824 -2.343,2.754 -1.367,-0.109 -1.745,-3.395 -1.968,-4.428 -1.081,-4.989 -1.407,-10.146 -0.948,-15.23 0.225,-2.488 0.638,-4.959 1.25,-7.38 0.112,-0.44 1.871,-6.691 1.762,-6.68 -0.152,0.014 -0.195,0.1 -0.129,0.258 -1.264,0 -3.588,-1.282 -4.774,-1.678 0,0.78 0.658,1.507 0.774,2.387 0.129,0.977 -0.389,2.848 -0.451,3.807 -0.214,3.244 -0.565,7.81 -0.71,12.064 -0.12,3.501 -2.449,5.285 -5.419,6.774 -0.597,0.299 -2.063,1.339 -2.71,0.903 -0.551,-0.371 -0.069,-2.064 -0.516,-2.064 1.006,-1.691 1.881,-2.43 2.193,-4.129 0.174,-0.95 0.624,-2.907 0.774,-4.129 0.432,-3.519 0.65,-7.69 1.097,-10.968 0.322,-2.36 0.76,-3.969 1.226,-6.322 -0.722,0 -1.546,-1.678 -2.71,-1.29 0,-0.28 -0.129,0.021 -0.129,-0.258 3.442,-0.626 6.272,-0.207 9.419,0.387 1.311,0.247 2.891,1.281 3.983,0.509 0.307,-0.217 1.173,-2.228 1.565,-2.316 1.414,-0.315 0.736,3.071 1.162,3.742 0.656,1.032 2.943,1.243 4.003,1.457 0.936,0.189 1.878,0.344 2.822,0.491 1.235,0.192 1.43,-0.069 2.508,-0.64 0.136,-0.072 0.284,-0.141 0.436,-0.121 0.221,0.029 0.371,0.234 0.488,0.425 0.599,0.967 0.686,1.094 1.783,1.353 1.233,0.292 2.477,0.54 3.732,0.718 0.65,0.092 1.336,0.095 1.978,0.219 0.413,0.08 0.81,0.325 1.253,0.219 1.388,-0.334 0.687,-2.695 0.997,-3.734 0.387,-1.301 1.565,-2.727 2.861,-3.194 1.458,-0.525 2.914,0.665 3.636,1.858 0.755,1.247 1.191,2.647 1.547,4.051 0.251,0.991 0.944,2.07 0.994,3.069 2.111,-0.305 4.309,0.375 6.445,0.28 0.409,-0.017 1.5,0.169 2.189,-0.006 2,-0.505 0.983,-0.333 0.392,-1.284 -0.817,-1.311 -1.871,-2.016 -2.974,-3.243 -1.819,-2.023 -3.604,-4.024 -5.745,-5.726 -1.144,-0.909 -2.351,-1.742 -3.487,-2.661 -0.287,-0.232 -2.055,-1.065 -1.929,-1.486 0.059,-0.196 0.321,-0.226 0.526,-0.214 1.657,0.101 3.046,0.365 4.625,0.845 2.453,0.744 4.848,1.665 7.112,2.873 2.282,1.215 3.892,2.69 6,3.935 1.201,0.709 2.302,1.486 3.35,2.147 0.485,0.306 1.906,1.113 2.026,1.725 0.024,0.123 0.003,0.251 -0.022,0.374 -0.127,0.648 -0.343,1.302 -0.638,1.919"
       style="fill:#231f20;fill-opacity:1;fill-rule:evenodd;stroke:none"
       transform="matrix(1.3333333,0,0,-1.3333333,923.40573,154.53733)"
       clip-path="url(#clipPath672)" />
  </g>
</svg>
