<?xml version="1.0" encoding="UTF-8" standalone="no"?>
<!-- Created with Inkscape (http://www.inkscape.org/) -->

<svg
   version="1.1"
   id="svg1"
   width="71.628632"
   height="379.75818"
   viewBox="0 0 71.62863 379.75818"
   sodipodi:docname="标准字竖排.pdf"
   xmlns:inkscape="http://www.inkscape.org/namespaces/inkscape"
   xmlns:sodipodi="http://sodipodi.sourceforge.net/DTD/sodipodi-0.dtd"
   xmlns="http://www.w3.org/2000/svg"
   xmlns:svg="http://www.w3.org/2000/svg">
  <defs
     id="defs1">
    <clipPath
       clipPathUnits="userSpaceOnUse"
       id="clipPath448">
      <path
         d="M 0,595.276 H 841.89 V 0 H 0 Z"
         transform="translate(-351.99701,-362.87231)"
         id="path448" />
    </clipPath>
    <clipPath
       clipPathUnits="userSpaceOnUse"
       id="clipPath450">
      <path
         d="M 0,595.276 H 841.89 V 0 H 0 Z"
         transform="translate(-368.63271,-344.41331)"
         id="path450" />
    </clipPath>
    <clipPath
       clipPathUnits="userSpaceOnUse"
       id="clipPath452">
      <path
         d="M 0,595.276 H 841.89 V 0 H 0 Z"
         transform="translate(-337.18741,-290.86931)"
         id="path452" />
    </clipPath>
    <clipPath
       clipPathUnits="userSpaceOnUse"
       id="clipPath454">
      <path
         d="M 0,595.276 H 841.89 V 0 H 0 Z"
         transform="translate(-373.84851,-307.57871)"
         id="path454" />
    </clipPath>
    <clipPath
       clipPathUnits="userSpaceOnUse"
       id="clipPath456">
      <path
         d="M 0,595.276 H 841.89 V 0 H 0 Z"
         transform="translate(-347.73331,-291.6482)"
         id="path456" />
    </clipPath>
    <clipPath
       clipPathUnits="userSpaceOnUse"
       id="clipPath458">
      <path
         d="M 0,595.276 H 841.89 V 0 H 0 Z"
         transform="translate(-326.33981,-285.3203)"
         id="path458" />
    </clipPath>
    <clipPath
       clipPathUnits="userSpaceOnUse"
       id="clipPath460">
      <path
         d="M 0,595.276 H 841.89 V 0 H 0 Z"
         transform="translate(-356.69521,-231.50321)"
         id="path460" />
    </clipPath>
    <clipPath
       clipPathUnits="userSpaceOnUse"
       id="clipPath462">
      <path
         d="M 0,595.276 H 841.89 V 0 H 0 Z"
         transform="translate(-352.34561,-218.03501)"
         id="path462" />
    </clipPath>
    <clipPath
       clipPathUnits="userSpaceOnUse"
       id="clipPath464">
      <path
         d="M 0,595.276 H 841.89 V 0 H 0 Z"
         transform="translate(-366.91101,-205.625)"
         id="path464" />
    </clipPath>
    <clipPath
       clipPathUnits="userSpaceOnUse"
       id="clipPath466">
      <path
         d="M 0,595.276 H 841.89 V 0 H 0 Z"
         transform="translate(-326.10051,-231.28351)"
         id="path466" />
    </clipPath>
    <clipPath
       clipPathUnits="userSpaceOnUse"
       id="clipPath468">
      <path
         d="M 0,595.276 H 841.89 V 0 H 0 Z"
         transform="translate(-326.76361,-155.3261)"
         id="path468" />
    </clipPath>
    <clipPath
       clipPathUnits="userSpaceOnUse"
       id="clipPath470">
      <path
         d="M 0,595.276 H 841.89 V 0 H 0 Z"
         transform="translate(-352.03411,-127.95061)"
         id="path470" />
    </clipPath>
    <clipPath
       clipPathUnits="userSpaceOnUse"
       id="clipPath472">
      <path
         d="M 0,595.276 H 841.89 V 0 H 0 Z"
         transform="translate(-359.98821,-175.1362)"
         id="path472" />
    </clipPath>
  </defs>
  <sodipodi:namedview
     id="namedview1"
     pagecolor="#ffffff"
     bordercolor="#000000"
     borderopacity="0.25"
     inkscape:showpageshadow="2"
     inkscape:pageopacity="0.0"
     inkscape:pagecheckerboard="0"
     inkscape:deskcolor="#d1d1d1"
     showgrid="false">
    <inkscape:page
       x="0"
       y="0"
       width="71.628632"
       height="379.75818"
       id="page2"
       margin="0"
       bleed="0" />
  </sodipodi:namedview>
  <g
     id="g1"
     inkscape:groupmode="layer"
     inkscape:label="1"
     transform="translate(-426.86686,-256.69159)">
    <path
       id="path447"
       d="m 0,0 c 0.396,0.293 1.462,0.282 1.491,0.911 0.041,0.908 -3.41,2.068 -4.347,1.987 -0.93,-0.08 -2.405,-1.185 -3.31,-0.64 -0.833,0.501 -0.553,2.72 -0.455,3.533 0.087,0.722 0.472,1.019 1.142,1.074 0.88,0.072 1.74,0.255 2.614,0.347 0.637,0.068 1.373,0.057 1.707,0.737 0.177,0.362 -0.356,1.698 -0.58,1.987 -0.715,0.92 -1.16,0.246 -2.112,0 -0.791,-0.204 -2.012,-0.659 -2.321,0.215 -0.346,0.976 -0.173,2.515 -0.166,3.546 0.007,1.189 1.183,1.014 2.193,1.221 3.074,0.627 6.149,1.255 9.247,1.748 0.742,0.118 1.496,0.197 2.232,0.344 0.541,0.108 0.809,0.249 0.642,-0.409 C 7.721,15.599 7.058,14.715 6.625,13.786 6.034,12.521 5.244,11.645 4.348,10.35 3.349,8.908 2.178,7.294 0.828,5.879 0.526,5.562 -0.061,4.778 -0.579,4.637 -1.132,4.486 -1.804,4.709 -2.342,4.443 -3.201,4.019 -2.044,3.612 -1.646,3.472 -0.549,3.086 0.727,2.528 1.924,2.978 c 1.234,0.463 2.465,1.517 3.479,2.351 1.993,1.636 3.83,3.46 5.486,5.437 0.811,0.97 1.58,1.978 2.299,3.019 0.334,0.482 0.571,0.731 0.997,1.08 0.323,0.265 0.52,0.412 0.625,0.855 0.23,0.984 -0.497,1.5 -1.013,2.17 -0.607,0.785 -0.56,2.085 -1.542,2.667 -0.641,0.38 -1.569,0.331 -2.26,0.203 -0.866,-0.159 -12.619,-2.652 -14.218,-3.04 -1.035,-0.252 -1.641,-0.502 -1.844,0.85 -0.175,1.164 -0.265,2.191 0.044,3.332 0.26,0.963 0.501,0.806 1.393,0.825 0.596,0.013 1.198,0.011 1.79,0.081 1.162,0.138 -1.906,3.5 -2.115,3.9 -0.493,0.95 -0.011,2.249 -0.148,3.264 -0.193,1.445 0.013,3.116 0.324,4.547 0.187,0.865 0.226,1.762 0.113,2.639 -0.059,0.454 -0.16,0.91 -0.386,1.307 -0.473,0.831 -1.436,1.288 -2.386,1.392 -0.229,0.025 -0.456,0.032 -0.681,0.026 -0.917,-0.027 -1.811,-0.274 -2.712,-0.418 -0.826,-0.132 -1.922,-0.131 -2.541,-0.796 -0.66,-0.711 0.533,-1.545 1.035,-1.901 0.338,-0.238 0.774,-0.419 0.984,-0.774 0.219,-0.369 0.275,-0.976 0.361,-1.397 0.5,-2.441 0.326,-4.939 0.286,-7.415 -0.022,-1.324 -0.303,-1.34 -1.466,-1.679 -2.693,-0.785 -5.577,-1.347 -8.394,-1.32 -0.187,0.002 -1.559,-0.123 -1.541,-0.17 0.268,-0.728 1.845,-1.644 2.421,-2.047 0.682,-0.477 1.569,-0.879 2.546,-1.183 1.521,-0.472 1.615,-0.347 3.293,0.185 1.34,0.425 2.147,0.561 3.165,0.561 0.118,0 -0.023,-3.384 -0.034,-3.65 -0.071,-1.726 -0.597,-1.65 -2.226,-2.016 -1.506,-0.338 -3.022,-0.625 -4.529,-0.959 -0.9,-0.199 -1.641,-0.517 -2.649,-0.828 -0.924,-0.284 -2.709,-1.113 -4.224,-1.076 0,-0.099 2.274,-1.11 2.568,-1.242 0.813,-0.366 1.666,-0.562 2.318,-0.497 1.308,0.131 2.791,0.714 4.104,0.992 0.912,0.193 3.161,1.285 4,1.061 0.99,-0.265 0.566,-2.125 0.481,-2.926 -0.057,-0.538 -0.042,-1.53 -0.34,-1.991 -0.494,-0.766 -2.004,-0.781 -2.78,-1.028 -1.406,-0.447 -7.286,-1.791 -7.286,-3.063 0,-0.101 1.938,-0.342 2.093,-0.366 0.443,-0.069 0.856,-0.198 1.284,-0.289 0.603,-0.128 1.197,0.086 1.774,0.278 1.023,0.342 2.092,0.522 3.155,0.686 0.781,0.119 1.772,0.602 2.017,-0.385 0.128,-0.513 0.034,-0.952 0.043,-1.466 0.016,-0.907 -0.097,-1.676 -0.275,-2.537 -0.026,-0.12 -0.156,-0.194 -0.278,-0.198 -0.485,-0.014 -0.94,0.047 -1.442,-0.054 -0.473,-0.095 -1.172,-0.116 -1.582,-0.389 -0.934,-0.375 -1.785,-0.925 -2.673,-1.394 -0.584,-0.31 -1.878,-1.205 -2.426,-0.377 -0.188,0.285 -0.209,0.645 -0.244,0.985 -0.215,2.054 -1.179,3.944 -2.125,5.78 -0.218,0.423 -0.437,0.787 -0.716,1.162 -0.264,0.355 -0.376,0.769 -0.722,1.072 -0.364,0.32 -0.806,0.549 -1.264,0.703 -1.066,0.359 -2.24,0.454 -3.353,0.532 -0.465,0.032 -2.106,0.18 -2.078,-0.602 0.02,-0.506 0.665,-1.008 0.954,-1.377 0.466,-0.594 0.965,-1.174 1.316,-1.847 0.503,-0.965 1.16,-2.209 1.734,-3.173 0.546,-0.918 1.328,-2.286 2.27,-2.823 0.249,-0.142 0.571,-0.183 0.838,-0.285 0.234,-0.089 0.468,-0.207 0.659,-0.371 0.121,-0.104 0.195,-0.247 0.295,-0.37 0.076,-0.095 0.271,-0.198 0.284,-0.328 0.024,-0.232 -0.408,-0.299 -0.565,-0.341 -0.405,-0.107 -0.258,-0.514 0.036,-0.652 0.903,-0.422 2.266,-0.099 3.189,0.095 0.749,0.158 1.498,0.315 2.247,0.473 0.665,0.139 1.33,0.279 1.981,0.472 0.559,0.165 1.106,0.368 1.655,0.563 0.495,0.175 0.993,0.345 1.501,0.479 0.217,0.057 0.421,0.142 0.612,0.246 0.439,-0.801 0.174,-2.142 0.193,-3.034 0.027,-1.258 -1.577,-2.547 -2.32,-3.412 -0.96,-1.116 -1.949,-2.207 -2.961,-3.277 -1.997,-2.114 -4.08,-4.144 -6.202,-6.132 -0.882,-0.825 -1.787,-1.624 -2.717,-2.395 -0.464,-0.385 -0.934,-0.763 -1.411,-1.134 -0.084,-0.066 -1.04,-0.832 -0.988,-0.849 -0.375,0.124 -0.448,-0.239 -0.123,-0.373 0.161,-0.066 0.511,0.112 0.787,0.124 0.897,0.039 1.83,0.536 2.62,0.925 0.929,0.459 1.858,0.917 2.788,1.375 1.812,0.893 3.505,2.111 5.055,3.398 1.487,1.235 2.969,2.394 4.297,3.815 0.201,0.214 0.478,0.78 0.724,0.375 0.143,-0.233 0.013,-0.672 0.018,-0.932 0.015,-0.78 0.038,-1.559 0.06,-2.339 0.042,-1.515 0.098,-3.031 0.087,-4.547 -0.002,-0.325 0.139,-1.827 -0.004,-2.398 -0.389,-1.567 -2.837,-1.028 -3.97,-0.914 -1.052,0.106 -2.003,0.56 -3.088,0.443 -0.97,-0.103 0.31,-1.194 0.521,-1.436 1.271,-1.465 3.387,-2.663 5.134,-3.395 1.077,-0.452 2.701,-1.617 3.93,-1.185 0.493,0.174 0.787,0.645 0.894,1.132 0.123,0.557 0.279,1.102 0.343,1.677 0.08,0.725 0.194,1.427 0.222,2.159 0.092,2.47 0.183,4.94 0.207,7.412 0.021,2.408 -0.147,4.811 -0.139,7.216 0.003,1.119 -0.03,1.989 0.743,2.868 0.61,0.693 1.396,1.205 1.997,1.905 0.815,0.949 1.671,1.942 2.527,2.799 C -1.238,-1.296 -0.609,-0.452 0,0"
       style="fill:#231f20;fill-opacity:1;fill-rule:evenodd;stroke:none"
       transform="matrix(1.3333333,0,0,-1.3333333,469.32933,309.8716)"
       clip-path="url(#clipPath448)" />
    <path
       id="path449"
       d="m 0,0 c -0.257,0.827 -0.617,1.647 -1.291,2.219 -1.534,1.304 -3.638,1.807 -5.531,2.389 -2.186,0.672 -4.407,1.23 -6.648,1.681 -0.471,0.095 -0.949,0.162 -1.426,0.229 -0.381,0.053 -3.76,0.302 -3.809,0.597 0.245,-1.468 2.792,-3.068 4.057,-3.56 1.764,-0.688 3.191,-1.564 4.802,-2.195 0.525,-0.205 2.886,-0.821 3.147,-1.283 1.066,-1.889 -3.858,-3.558 -4.46,-5.052 0.36,-0.134 0.752,-0.039 1.118,0.047 1.183,0.277 2.324,0.357 3.473,0.769 1.999,0.716 4.058,1.438 6.002,2.29 1,0.439 0.867,0.9 0.566,1.869"
       style="fill:#231f20;fill-opacity:1;fill-rule:evenodd;stroke:none"
       transform="matrix(1.3333333,0,0,-1.3333333,491.51027,334.4836)"
       clip-path="url(#clipPath450)" />
    <path
       id="path451"
       d="M 0,0 C 0.089,-0.018 0.183,-0.034 0.269,-0.007 0.488,0.061 0.792,0.491 0.976,0.656 1.379,1.015 1.776,1.374 2.148,1.768 3.189,2.87 4.147,4.123 5.062,5.332 5.404,5.783 7.303,8.062 5.696,7.866 4.182,7.681 2.802,6.818 1.67,5.853 0.769,5.086 -0.394,4.159 -1.646,4.25 -1.987,4.275 -3.171,4.141 -2.804,4.741 c 0.607,0.991 1.483,1.866 2.137,2.844 0.755,1.128 1.446,2.301 2.021,3.533 0.806,1.732 1.539,3.488 2.091,5.322 0.553,1.833 0.987,3.698 1.486,5.545 0.26,0.963 0.352,1.969 0.656,2.907 0.141,0.436 0.119,1.263 0.513,1.565 0.483,0.37 1.295,0.246 1.862,0.353 0.787,0.147 1.586,0.303 2.386,0.435 1.758,0.288 3.51,0.649 5.211,1.191 1.008,0.321 1.957,0.686 2.977,0.921 0.855,0.197 1.812,0.941 1.586,1.939 -0.174,0.767 -1.072,1.091 -1.596,1.589 -0.846,0.805 -0.741,0.841 -1.489,0.241 -0.215,-0.173 -0.191,-0.449 -0.438,-0.701 -0.253,-0.259 -0.142,0.061 -0.614,-0.175 -1.714,-0.86 -3.536,-1.357 -5.417,-1.777 -0.859,-0.192 -2.145,-0.837 -3.019,-0.463 -1.064,0.455 -0.82,2.709 -0.644,3.643 0.167,0.892 1.211,2.03 0.421,2.896 -0.104,0.115 -0.27,0.145 -0.424,0.166 C 6.148,36.819 5.388,36.869 4.628,36.866 4.394,36.865 3.383,37.018 3.191,36.892 2.793,36.63 3.064,34.871 3.081,34.49 3.124,33.503 3.19,32.515 3.275,31.531 3.32,31.015 3.611,30.062 3.22,29.617 2.763,29.099 1.271,29.105 0.625,28.997 c -2.054,-0.345 -4.143,-0.57 -6.226,-0.415 -1.948,0.144 -0.766,-1.96 0.164,-2.579 0.812,-0.54 1.84,-0.625 2.79,-0.603 0.981,0.022 1.92,0.201 2.881,0.312 0.981,0.113 2.492,0.663 2.558,-0.654 C 2.856,23.764 2.294,22.625 2.055,21.385 1.648,19.285 1.196,17.336 0.478,15.69 -0.605,13.213 -1.729,10.81 -3.203,8.593 -3.44,8.235 -4.047,7.745 -4.342,7.453 -4.83,6.971 -4.723,6.699 -5.375,6.378 -5.802,6.168 -6.406,6.475 -6.931,6.19 -7.169,6.06 -7.293,5.84 -7.506,5.68 -7.438,5.468 -7.179,5.403 -6.966,5.339 -6.203,5.107 -5.627,4.495 -5.088,3.907 -3.633,2.32 -2.234,0.454 0,0"
       style="fill:#231f20;fill-opacity:1;fill-rule:evenodd;stroke:none"
       transform="matrix(1.3333333,0,0,-1.3333333,449.5832,405.8756)"
       clip-path="url(#clipPath452)" />
    <path
       id="path453"
       d="m 0,0 c -0.035,0.123 -0.112,0.229 -0.19,0.331 -0.7,0.912 -1.642,1.958 -2.587,2.62 -0.88,0.615 -1.802,0.148 -2.695,-0.172 -1.927,-0.69 -3.847,-0.983 -5.816,-1.518 -2.225,-0.606 -4.449,-1.212 -6.675,-1.818 -1.748,-0.476 -3.536,-0.782 -5.298,-1.203 -0.83,-0.199 -2.269,-0.465 -2.901,-1.05 -1.312,-1.214 0.667,-1.352 1.862,-1.6 2.301,-0.478 4.378,-0.206 6.706,0.235 1.533,0.291 11.544,3.432 11.876,1.596 0.063,-0.346 -0.12,-0.839 -0.136,-1.197 -0.031,-0.667 0.006,-1.342 -0.011,-2.011 -0.033,-1.292 -0.117,-2.584 -0.241,-3.871 -0.249,-2.582 -0.662,-5.145 -1.162,-7.689 -0.219,-1.12 -0.456,-2.237 -0.704,-3.351 -0.487,-2.187 -1.022,-4.383 -1.98,-6.409 -0.346,-0.729 -0.759,-1.428 -1.367,-1.969 -0.702,-0.624 -1.556,-0.576 -2.456,-0.628 -0.871,-0.05 -1.743,-0.083 -2.614,-0.071 -0.546,0.007 -1.091,0.033 -1.634,0.088 -0.492,0.05 -0.893,0.157 -1.372,0.059 -0.172,-0.035 -0.613,-0.017 -0.686,-0.204 -0.08,-0.202 0.232,-0.42 0.352,-0.525 0.823,-0.726 1.833,-1.202 2.646,-1.943 1.531,-1.395 2.969,-2.945 4.381,-4.293 0.428,-0.409 0.743,-1.154 1.29,-1.417 1.716,-0.823 4.229,3.982 4.848,5.103 3.683,6.674 4.565,15.069 5.493,22.447 0.412,3.281 0.341,6.691 1.041,9.918 C 0.009,-0.363 0.05,-0.176 0,0"
       style="fill:#231f20;fill-opacity:1;fill-rule:evenodd;stroke:none"
       transform="matrix(1.3333333,0,0,-1.3333333,498.46467,383.5964)"
       clip-path="url(#clipPath454)" />
    <path
       id="path455"
       d="M 0,0 C 1.721,1.057 3.7,1.596 5.612,2.193 5.922,2.29 6.66,2.497 6.501,2.97 6.375,3.344 5.521,3.381 5.196,3.432 4.196,3.591 3.28,3.641 2.276,3.393 1.679,3.245 1.165,2.814 0.576,2.616 -0.198,2.356 -1.456,1.574 -2.262,1.906 c -0.641,0.266 -0.106,0.595 0.168,0.857 0.467,0.446 1.006,0.864 1.357,1.414 0.739,1.162 1.813,2.395 2.365,3.505 0.948,1.908 -2.094,2.41 -3.636,2.41 -0.205,0.126 0.004,-0.582 0,-1.052 C -2.015,8.238 -2.584,7.623 -2.884,6.85 -3.477,5.323 -4.116,4.328 -4.899,2.995 -5.255,2.389 -5.776,1.612 -6.214,0.892 c -1.025,-1.691 -3.546,-2.431 -5.357,-2.816 -0.782,-0.167 -1.736,-0.121 -2.423,-0.571 -1.044,-0.682 0.203,-1.543 0.879,-1.903 0.817,-0.435 1.749,-0.657 2.675,-0.625 1.3,0.046 2.372,0.735 3.285,1.584 0.742,0.692 1.902,0.833 2.3,-0.313 0.409,-1.181 0.131,-2.449 0.131,-3.505 -0.62,0.207 -1.784,-0.672 -2.356,-0.915 -0.914,-0.388 -1.809,-0.82 -2.745,-1.153 -1.105,-0.392 -2.097,-0.962 -3.175,-1.41 -0.829,-0.345 -0.217,-0.801 0.333,-1.08 1.204,-0.612 2.928,-0.304 4.176,0.046 1.045,0.293 2.009,0.84 3.061,1.097 0.15,0.037 0.305,0.068 0.454,0.037 0.627,-0.127 0.228,-1.117 0.208,-1.528 -0.034,-0.696 -0.073,-1.731 -0.087,-2.279 -0.065,-2.475 -0.434,-4.841 -0.853,-7.249 -0.175,-1.001 -0.408,-1.934 -0.655,-2.912 -0.266,-1.061 0.858,-1.058 1.532,-0.665 0.912,0.531 1.219,2.084 1.574,3.019 0.503,1.322 0.952,2.665 1.327,4.029 0.712,2.588 1.2,5.296 1.057,7.99 -0.058,1.084 -0.405,2.071 0.92,2.437 0.891,0.246 1.75,0.605 2.632,0.902 0.212,0.072 0.425,0.142 0.644,0.19 0.245,0.054 0.503,0.082 0.724,0.205 C 5.423,-5.73 3.061,-4.302 2.373,-4.19 1.319,-4.02 0.757,-4.663 -0.061,-5.159 -1.065,-5.77 -1.015,-5.734 -1.17,-4.718 -1.424,-3.047 -1.651,-1.015 0,0"
       style="fill:#231f20;fill-opacity:1;fill-rule:evenodd;stroke:none"
       transform="matrix(1.3333333,0,0,-1.3333333,463.6444,404.83707)"
       clip-path="url(#clipPath456)" />
    <path
       id="path457"
       d="m 0,0 c -0.217,1.389 -0.267,2.795 -0.273,4.199 -0.004,1.013 0.025,2.029 0.037,3.042 0.008,0.732 0.196,1.589 -0.12,2.28 -0.144,0.313 -0.48,0.576 -0.738,0.789 -0.364,0.302 -0.605,0.72 -0.916,1.071 -0.277,0.313 -0.604,0.594 -0.862,0.921 -0.116,0.146 -0.299,0.314 -0.497,0.335 -0.088,0.009 -0.18,-0.012 -0.271,-0.077 -0.174,-0.127 -0.145,-0.393 -0.096,-0.604 0.105,-0.457 0.02,-0.954 0.013,-1.418 C -3.734,9.6 -3.769,8.606 -3.93,7.68 -4.189,6.198 -4.559,4.738 -4.921,3.279 -5.009,2.927 -5.096,2.575 -5.182,2.222 c -0.536,-2.211 -0.405,-4.508 0.764,-6.498 0.738,-1.255 2.164,-3.507 3.735,-3.769 2.749,-0.458 1.824,3.867 1.35,5.286 C 0.366,-1.86 0.146,-0.936 0,0"
       style="fill:#231f20;fill-opacity:1;fill-rule:evenodd;stroke:none"
       transform="matrix(1.3333333,0,0,-1.3333333,435.11973,413.27427)"
       clip-path="url(#clipPath458)" />
    <path
       id="path459"
       d="M 0,0 C 1.783,0.76 3.571,1.609 5.418,2.222 6.173,2.472 6.947,2.681 7.741,2.756 8.323,2.811 9.26,2.546 9.687,2.938 11.063,4.199 8.649,7.701 7.827,8.684 6.716,10.014 5.971,9.582 4.678,8.766 3.627,8.103 2.637,7.348 1.521,6.791 -0.119,5.973 -1.815,5.318 -3.522,4.638 -4.723,4.16 -5.723,3.877 -6.972,3.56 -7.991,3.301 -9.026,3.089 -10.058,2.881 -11.87,2.516 -12.58,2.109 -12.795,4.204 c -0.273,2.669 -0.306,5.35 -0.323,8.031 -0.008,1.062 -0.013,2.123 -0.029,3.184 -0.043,2.624 -0.264,5.255 -0.254,7.878 0.003,0.473 0.152,1.293 0.254,1.752 0.326,1.462 0.911,1.599 -0.611,2.382 -1.169,0.601 -1.867,0.229 -2.992,-0.217 -0.184,-0.081 -0.082,-4.107 -0.098,-4.53 -0.094,-2.687 0.337,-5.355 0.086,-8.004 -0.289,-3.053 -0.087,-6.173 -0.222,-9.237 -0.046,-1.032 0.333,-2.747 -0.385,-3.623 -0.619,-0.756 -2.057,-0.415 -2.898,-0.505 -1.42,-0.152 -2.853,-0.206 -4.282,-0.161 -1.436,0.044 -2.855,-0.282 -4.305,-0.289 -0.213,-0.001 -0.421,0.007 -0.626,0.024 0,0 0.169,-0.602 0.169,-0.602 1.494,-1.013 3.194,-1.901 4.898,-2.499 1.767,-0.62 3.63,-1.108 5.501,-1.387 0.509,-0.076 1.312,-0.013 1.571,-0.562 0.303,-0.642 -0.173,-1.349 -0.303,-1.969 -0.381,-1.825 -0.751,-3.656 -1.29,-5.443 -0.465,-1.546 -0.985,-3.076 -1.569,-4.582 -0.552,-1.417 -1.626,-2.664 -2.479,-3.927 -1.994,-2.948 -4.69,-5.131 -8.194,-5.942 -0.332,-0.077 -0.692,-0.171 -0.896,-0.445 -0.209,-0.281 -0.185,-0.691 -0.009,-0.995 0.176,-0.304 0.477,-0.516 0.792,-0.67 0.602,-0.292 1.274,-0.401 1.935,-0.507 3.483,-0.556 7.755,-1.455 10.691,1.079 0.6,0.518 1.889,1.806 2.08,2.568 1.278,5.086 2.159,10.27 2.633,15.492 0.118,1.305 0.2,2.613 0.278,3.921 0.026,0.421 -0.087,1.177 0.292,1.473 0.459,0.36 1.439,0.129 1.952,0.131 1.983,0.007 3.962,0.475 5.743,1.346 0.831,0.406 1.5,0.905 2.368,1.217 C -2.193,-1.01 -1.1,-0.469 0,0"
       style="fill:#231f20;fill-opacity:1;fill-rule:evenodd;stroke:none"
       transform="matrix(1.3333333,0,0,-1.3333333,475.5936,485.0304)"
       clip-path="url(#clipPath460)" />
    <path
       id="path461"
       d="M 0,0 C -0.066,0.041 -0.116,0.07 -0.116,0.07 -0.104,0.048 -0.062,0.024 0,0"
       style="fill:#231f20;fill-opacity:1;fill-rule:evenodd;stroke:none"
       transform="matrix(1.3333333,0,0,-1.3333333,469.79413,502.988)"
       clip-path="url(#clipPath462)" />
    <path
       id="path463"
       d="m 0,0 c -0.382,1.407 -1.131,2.708 -1.937,3.911 -0.472,0.708 -0.961,1.36 -1.395,1.927 -2.162,2.822 -5.165,5.063 -8.598,6.063 -0.305,0.089 -2.15,0.319 -2.635,0.509 0.233,-0.146 0.705,-0.472 0.224,-0.463 0.481,-0.874 1.184,-1.639 1.724,-2.48 0.627,-0.977 1.248,-1.958 1.831,-2.962 0.757,-1.305 1.494,-2.749 1.957,-4.188 0.42,-1.302 0.59,-2.659 1.27,-3.894 0.758,-1.375 2.36,-2.342 3.883,-2.526 1.099,-0.133 3.627,-1.069 4.084,0.619 C 0.655,-2.572 0.244,-0.896 0,0"
       style="fill:#231f20;fill-opacity:1;fill-rule:evenodd;stroke:none"
       transform="matrix(1.3333333,0,0,-1.3333333,489.21467,519.53467)"
       clip-path="url(#clipPath464)" />
    <path
       id="path465"
       d="M 0,0 C 0.585,0.517 0.234,1.351 -0.31,1.704 -0.912,2.094 -1.617,2.24 -2.311,2.358 -2.798,2.441 -3.288,2.276 -3.605,1.874 -3.776,1.658 -3.814,1.435 -4.047,1.291 -4.254,1.163 -4.647,1.196 -4.729,0.909 -4.783,0.722 -4.619,0.546 -4.459,0.436 -3.907,0.059 -3.354,0.098 -2.725,0 -2.248,-0.075 -1.759,-0.113 -1.276,-0.091 -0.913,-0.074 -0.286,-0.252 0,0"
       style="fill:#231f20;fill-opacity:1;fill-rule:evenodd;stroke:none"
       transform="matrix(1.3333333,0,0,-1.3333333,434.80067,485.32333)"
       clip-path="url(#clipPath466)" />
    <path
       id="path467"
       d="m 0,0 c -0.862,0 -2.452,-2.341 -2.726,-2.874 -0.239,-0.465 -0.525,-1.112 -0.736,-1.556 -0.397,-0.831 -0.768,-1.577 -1.151,-2.378 -0.468,-0.981 -1.236,-1.903 -1.674,-2.863 -0.819,-1.788 -0.068,-3.008 1.927,-3.059 1.936,-0.05 3.65,1.731 4.434,3.359 0.071,0.146 0.133,0.293 0.19,0.441 0.575,1.502 0.617,2.189 0.499,3.771 C 0.644,-3.56 -0.445,-2.546 0,0"
       style="fill:#231f20;fill-opacity:1;fill-rule:evenodd;stroke:none"
       transform="matrix(1.3333333,0,0,-1.3333333,435.6848,586.59987)"
       clip-path="url(#clipPath468)" />
    <path
       id="path469"
       d="m 0,0 c -0.013,-0.093 -0.023,-0.185 -0.035,-0.277 -0.211,-1.706 -0.368,-3.285 -1.384,-4.796 -0.516,-0.769 -1.216,-1.432 -2.042,-1.858 -0.662,-0.341 -1.752,-0.76 -2.499,-0.658 -1.056,0.142 -2.017,0.416 -2.822,1.166 -1.237,1.149 -1.651,3.126 -0.933,4.663 0.696,1.489 2.266,2.276 3.762,2.741 1.089,0.338 2.22,0.463 3.349,0.588 0.651,0.072 1.341,0.307 1.999,0.174 C 0.448,1.53 0.104,0.822 0,0 M 14.009,4.406 C 12.804,4.66 11.471,4.817 10.24,4.865 8.756,4.925 7.225,4.938 5.743,4.82 5.401,4.793 4.901,4.606 4.667,4.963 4.487,5.237 4.497,5.706 4.461,6.023 4.366,6.836 4.637,7.901 4.129,8.601 3.538,9.416 2.423,9.366 1.73,9.434 0.654,9.54 -0.575,9.598 -1.381,9.598 c 0.069,1.355 0.793,2.195 1.638,3.193 1.654,1.956 3.498,3.698 5.077,5.733 0.258,0.332 1.204,1.109 1.253,1.418 0.228,1.448 -1.976,2.327 -3.102,2.254 -0.837,-0.054 -1.625,-0.464 -2.41,-0.724 -2.223,-0.738 -4.235,-1.805 -6.141,-2.866 -0.79,-0.452 -1.493,-0.997 -2.221,-1.551 -0.057,-0.043 -0.114,-0.087 -0.157,-0.145 -0.061,-0.081 -0.087,-0.181 -0.105,-0.281 -0.148,-0.811 0.349,-2.062 1.022,-2.561 0.445,-0.332 0.8,0.075 1.185,0.345 0.979,0.686 2.047,1.316 3.139,1.84 0.882,0.424 2.028,1.288 3.033,1.288 C 0.368,14.771 -1.854,13.048 -2.854,10.663 -3.277,9.657 -3.116,8.396 -2.509,7.498 -2.047,6.816 -1.254,6.131 -1.206,5.254 -1.124,3.743 -3.51,3.887 -4.61,3.654 -6.224,3.313 -7.835,2.867 -9.243,1.982 c -4.75,-2.988 -2.049,-10.918 3.03,-11.874 2.402,-0.453 4.997,0.413 6.818,1.999 1.35,1.176 2.446,2.706 3.09,4.378 0.343,0.89 0.552,1.83 0.697,2.772 0.034,0.22 0.169,2.369 0.303,2.399 0.833,0.186 1.688,0.183 2.534,0.113 1.084,-0.089 2.163,-0.238 3.23,-0.446 1.635,-0.318 3.243,-0.772 4.803,-1.359 0.34,-0.128 1.375,-0.677 1.6,-0.074 0.162,0.43 -0.679,1.695 -0.883,2.092 -0.513,1.016 -0.777,2.173 -1.97,2.424"
       style="fill:#231f20;fill-opacity:1;fill-rule:evenodd;stroke:none"
       transform="matrix(1.3333333,0,0,-1.3333333,469.3788,623.10053)"
       clip-path="url(#clipPath470)" />
    <path
       id="path471"
       d="m 0,0 c -0.098,-1.031 -0.179,-1.591 -0.245,-2.702 -0.09,-1.493 -0.399,-2.959 -0.632,-4.433 -0.061,-0.388 0.024,-0.988 -0.388,-1.2 -0.363,-0.187 -1.209,0.133 -1.483,0.41 -0.985,1 -0.13,2.894 0.479,3.819 0.647,0.98 1.53,2.199 0.392,3.188 -1.861,1.618 -4.061,-1.371 -6.148,-1.539 -0.02,0.156 -0.416,1.726 -0.246,1.638 -0.757,0 -1.119,2.15 -2.047,2.047 0.181,1.448 2.38,2.547 3.48,3.276 0.492,0.326 3.153,1.553 3.153,1.965 C -1.938,6.654 -0.34,7.907 0.246,4.832 0.499,3.503 0.106,1.113 0,0 m -1.271,-12.634 c -0.041,-0.943 -0.968,-1.087 -1.701,-1.181 -1.062,-0.138 -2.112,-0.415 -3.154,-0.662 -0.272,-0.065 -2.586,-0.431 -2.625,-0.592 0.446,1.862 0.783,3.695 0.972,5.611 0.112,1.137 0.133,2.77 0.123,4.012 -0.005,0.615 -0.326,2.049 0.041,2.416 -0.164,-0.055 -0.219,0 -0.164,0.164 0.01,0.032 0.855,0.138 0.93,0.14 0.361,0.011 0.579,-0.048 0.87,-0.287 0.5,-0.413 0.75,-1.094 0.797,-1.724 0.064,-0.854 -0.162,-1.699 -0.243,-2.551 -0.082,-0.852 0.014,-1.791 0.6,-2.415 0.482,-0.514 1.233,-0.764 1.846,-1.08 0.822,-0.424 1.408,-0.789 2.375,-0.801 -0.393,0.005 -0.654,-0.771 -0.667,-1.05 m -0.94,-4.563 c 0,0.107 -2.983,0.924 -3.193,0.819 0.315,0.631 2.876,0.467 3.521,0.573 -0.021,-0.063 -0.027,-1.474 -0.328,-1.392 m -7.72,7.801 c -0.102,-0.8 -0.223,-2.417 -0.738,-3.155 -0.906,-1.298 -1.704,-0.138 -2.269,0.677 -0.831,1.196 -0.747,2.324 -0.55,4.085 0.105,0.945 0.487,6.397 1.696,6.397 0,0.615 1.032,-0.444 1.146,-0.655 0.25,-0.464 0.172,-1.151 0.247,-1.72 0.183,-1.416 0.39,-2.939 0.491,-4.504 0.013,-0.225 0.018,-0.804 -0.023,-1.125 m 22.665,-7.645 c -0.081,0.411 -0.217,0.827 -0.405,1.218 -0.221,0.463 -0.513,0.894 -0.864,1.247 -0.895,0.897 -1.981,1.43 -3.358,1.555 -1.282,0.117 -2.788,0.172 -4.135,0.082 -0.91,-0.061 -1.486,0 -2.074,0 0.05,0 0.693,5.99 0.733,6.44 0.078,0.882 0.016,1.728 0.129,2.626 0.276,2.23 0.472,4.47 0.626,6.712 C 3.433,3.538 3.282,4.19 3.332,4.879 3.378,5.5 3.465,6.118 3.43,6.743 3.358,8.026 2.709,8.996 1.72,9.786 0.421,10.824 -1.517,9.974 -3.193,9.336 -5.271,8.545 -7.501,6.639 -8.762,4.75 -9.358,3.856 -10.208,2.729 -11.04,2.062 c -1.247,-0.999 -1.522,0.707 -1.448,1.541 0.108,1.234 0.016,2.677 0.205,4.095 0.054,0.402 0.18,1.768 0.491,2.211 0.516,0.736 2.54,1.467 3.237,1.709 0.715,0.248 1.287,0.77 1.922,0.993 0.772,0.272 2.214,0.3 2.784,0.819 1.248,1.136 -4.176,2.083 -4.176,0.983 -0.393,-0.111 -1.099,-0.723 -1.392,-0.901 -0.492,-0.298 -1.101,-0.628 -1.638,-0.901 -0.249,0.772 0.246,1.742 0.163,2.539 -0.048,0.476 -0.056,0.879 -0.409,1.433 -1.034,1.624 -2.522,0.696 -3.357,0.696 0,-0.401 0.911,-0.355 0,-0.327 1.333,-0.667 0.329,-3.652 0.205,-4.791 -0.116,-1.061 -0.176,-1.571 -0.164,-2.58 0.01,-0.815 -0.28,-1.969 -0.368,-2.866 -0.09,-0.904 -0.036,-2.666 -0.041,-3.931 -0.004,-0.698 -0.112,-1.78 0.204,-2.293 0.573,-0.928 1.467,-1.377 1.146,-2.702 -0.861,-3.559 -2.306,-7.268 -1.548,-10.963 0.116,-0.56 0.192,-1.2 0.492,-1.699 0.19,-0.316 1.026,-0.764 0.816,-1.176 -0.163,-0.321 -0.785,-0.163 -1.069,-0.206 -0.871,-0.133 -1.539,-0.467 -2.457,-0.696 0.201,0.05 0.357,3.568 0.38,3.862 0.051,0.618 0.715,4.757 -0.445,4.321 -0.044,-0.488 -0.082,-2.194 -0.833,-2.205 -0.211,-0.004 -1.785,4.208 -1.921,4.684 -0.487,1.708 -0.637,3.491 0.282,5.102 0.489,0.86 1.275,1.852 1.014,2.905 -0.104,0.422 -0.927,1.792 -1.486,1.748 -0.868,-0.069 -1.108,-2.154 -1.25,-2.811 -0.686,-3.166 -0.892,-6.439 -0.601,-9.666 0.143,-1.578 0.405,-3.147 0.793,-4.683 0.072,-0.279 1.188,-4.247 1.118,-4.24 -0.096,0.009 -0.123,0.064 -0.082,0.164 -0.801,0 -2.276,-0.814 -3.029,-1.065 0,0.495 0.417,0.956 0.491,1.515 0.081,0.62 -0.247,1.807 -0.287,2.416 -0.136,2.059 -0.358,4.956 -0.45,7.657 -0.076,2.222 -1.555,3.354 -3.439,4.299 -0.379,0.19 -1.31,0.85 -1.72,0.573 -0.35,-0.235 -0.044,-1.31 -0.327,-1.31 0.637,-1.073 1.194,-1.542 1.391,-2.621 0.111,-0.602 0.397,-1.845 0.491,-2.62 0.275,-2.233 0.414,-4.881 0.697,-6.961 0.204,-1.498 0.482,-2.519 0.778,-4.013 -0.459,0 -0.981,-1.065 -1.72,-0.818 0,-0.178 -0.082,0.013 -0.082,-0.164 2.184,-0.397 3.981,-0.131 5.978,0.246 0.832,0.156 1.835,0.813 2.527,0.323 0.195,-0.138 0.745,-1.414 0.994,-1.47 0.898,-0.2 0.467,1.949 0.738,2.375 0.416,0.655 1.868,0.789 2.54,0.924 0.594,0.12 1.192,0.219 1.792,0.312 0.783,0.122 0.907,-0.044 1.591,-0.406 0.086,-0.046 0.18,-0.09 0.277,-0.077 0.14,0.019 0.235,0.149 0.309,0.27 0.38,0.614 0.436,0.694 1.131,0.859 0.783,0.185 1.573,0.343 2.369,0.455 0.413,0.058 0.848,0.061 1.256,0.139 0.262,0.051 0.514,0.206 0.795,0.139 0.881,-0.212 0.437,-1.71 0.633,-2.369 0.245,-0.826 0.993,-1.731 1.815,-2.028 0.926,-0.333 1.85,0.422 2.309,1.18 0.479,0.791 0.755,1.679 0.98,2.57 0.161,0.629 0.601,1.315 0.632,1.948 1.339,-0.193 2.735,0.238 4.091,0.178 0.259,-0.011 0.951,0.107 1.389,-0.004 1.269,-0.32 0.624,-0.211 0.249,-0.815 -0.519,-0.832 -1.188,-1.279 -1.888,-2.058 -1.154,-1.284 -2.287,-2.554 -3.646,-3.634 -0.726,-0.577 -1.493,-1.106 -2.213,-1.689 -0.183,-0.147 -1.304,-0.676 -1.224,-0.943 0.037,-0.124 0.203,-0.143 0.333,-0.136 1.053,0.064 1.934,0.232 2.936,0.536 1.556,0.473 3.077,1.058 4.514,1.824 1.448,0.771 2.47,1.707 3.808,2.497 0.762,0.45 1.461,0.943 2.126,1.363 0.308,0.194 1.21,0.706 1.286,1.095 0.015,0.078 0.002,0.159 -0.014,0.237"
       style="fill:#231f20;fill-opacity:1;fill-rule:evenodd;stroke:none"
       transform="matrix(1.3333333,0,0,-1.3333333,479.98427,560.1864)"
       clip-path="url(#clipPath472)" />
  </g>
</svg>
