<?xml version="1.0" encoding="UTF-8" standalone="no"?>
<!-- Created with Inkscape (http://www.inkscape.org/) -->

<svg
   version="1.1"
   id="svg1"
   width="460.436"
   height="25.395996"
   viewBox="0 0 460.436 25.395996"
   sodipodi:docname="英文标准字横排.pdf"
   xmlns:inkscape="http://www.inkscape.org/namespaces/inkscape"
   xmlns:sodipodi="http://sodipodi.sourceforge.net/DTD/sodipodi-0.dtd"
   xmlns="http://www.w3.org/2000/svg"
   xmlns:svg="http://www.w3.org/2000/svg">
  <defs
     id="defs1">
    <clipPath
       clipPathUnits="userSpaceOnUse"
       id="clipPath426">
      <path
         d="M 0,595.276 H 841.89 V 0 H 0 Z"
         transform="translate(-354.60391,-392.08471)"
         id="path426" />
    </clipPath>
    <clipPath
       clipPathUnits="userSpaceOnUse"
       id="clipPath428">
      <path
         d="M 0,595.276 H 841.89 V 0 H 0 Z"
         transform="translate(-367.75821,-391.06381)"
         id="path428" />
    </clipPath>
    <clipPath
       clipPathUnits="userSpaceOnUse"
       id="clipPath430">
      <path
         d="M 0,595.276 H 841.89 V 0 H 0 Z"
         transform="translate(-379.00631,-391.66861)"
         id="path430" />
    </clipPath>
    <clipPath
       clipPathUnits="userSpaceOnUse"
       id="clipPath432">
      <path
         d="M 0,595.276 H 841.89 V 0 H 0 Z"
         transform="translate(-415.55901,-391.66861)"
         id="path432" />
    </clipPath>
    <clipPath
       clipPathUnits="userSpaceOnUse"
       id="clipPath434">
      <path
         d="M 0,595.276 H 841.89 V 0 H 0 Z"
         transform="translate(-424.06591,-382.21871)"
         id="path434" />
    </clipPath>
    <clipPath
       clipPathUnits="userSpaceOnUse"
       id="clipPath436">
      <path
         d="M 0,595.276 H 841.89 V 0 H 0 Z"
         transform="translate(-445.42431,-390.62161)"
         id="path436" />
    </clipPath>
    <clipPath
       clipPathUnits="userSpaceOnUse"
       id="clipPath438">
      <path
         d="M 0,595.276 H 841.89 V 0 H 0 Z"
         transform="translate(-467.25141,-379.64281)"
         id="path438" />
    </clipPath>
    <clipPath
       clipPathUnits="userSpaceOnUse"
       id="clipPath440">
      <path
         d="M 0,595.276 H 841.89 V 0 H 0 Z"
         transform="translate(-489.03561,-392.08471)"
         id="path440" />
    </clipPath>
    <clipPath
       clipPathUnits="userSpaceOnUse"
       id="clipPath442">
      <path
         d="M 0,595.276 H 841.89 V 0 H 0 Z"
         transform="translate(-508.75342,-391.66861)"
         id="path442" />
    </clipPath>
    <clipPath
       clipPathUnits="userSpaceOnUse"
       id="clipPath444">
      <path
         d="M 0,595.276 H 841.89 V 0 H 0 Z"
         transform="translate(-516.76901,-391.66861)"
         id="path444" />
    </clipPath>
    <clipPath
       clipPathUnits="userSpaceOnUse"
       id="clipPath446">
      <path
         d="M 0,595.276 H 841.89 V 0 H 0 Z"
         transform="translate(-542.82371,-391.66861)"
         id="path446" />
    </clipPath>
    <clipPath
       clipPathUnits="userSpaceOnUse"
       id="clipPath448">
      <path
         d="M 0,595.276 H 841.89 V 0 H 0 Z"
         transform="translate(-565.90081,-373.96621)"
         id="path448" />
    </clipPath>
    <clipPath
       clipPathUnits="userSpaceOnUse"
       id="clipPath450">
      <path
         d="M 0,595.276 H 841.89 V 0 H 0 Z"
         transform="translate(-586.10201,-391.66861)"
         id="path450" />
    </clipPath>
    <clipPath
       clipPathUnits="userSpaceOnUse"
       id="clipPath452">
      <path
         d="M 0,595.276 H 841.89 V 0 H 0 Z"
         transform="translate(-593.87452,-390.62161)"
         id="path452" />
    </clipPath>
    <clipPath
       clipPathUnits="userSpaceOnUse"
       id="clipPath454">
      <path
         d="M 0,595.276 H 841.89 V 0 H 0 Z"
         transform="translate(-612.02291,-390.68911)"
         id="path454" />
    </clipPath>
    <clipPath
       clipPathUnits="userSpaceOnUse"
       id="clipPath456">
      <path
         d="M 0,595.276 H 841.89 V 0 H 0 Z"
         transform="translate(-637.48192,-392.08471)"
         id="path456" />
    </clipPath>
    <clipPath
       clipPathUnits="userSpaceOnUse"
       id="clipPath458">
      <path
         d="M 0,595.276 H 841.89 V 0 H 0 Z"
         transform="translate(-649.93112,-373.96621)"
         id="path458" />
    </clipPath>
    <clipPath
       clipPathUnits="userSpaceOnUse"
       id="clipPath460">
      <path
         d="M 0,595.276 H 841.89 V 0 H 0 Z"
         transform="translate(-667.89791,-391.66861)"
         id="path460" />
    </clipPath>
    <clipPath
       clipPathUnits="userSpaceOnUse"
       id="clipPath462">
      <path
         d="M 0,595.276 H 841.89 V 0 H 0 Z"
         transform="translate(-688.44092,-391.66861)"
         id="path462" />
    </clipPath>
  </defs>
  <sodipodi:namedview
     id="namedview1"
     pagecolor="#ffffff"
     bordercolor="#000000"
     borderopacity="0.25"
     inkscape:showpageshadow="2"
     inkscape:pageopacity="0.0"
     inkscape:pagecheckerboard="0"
     inkscape:deskcolor="#d1d1d1">
    <inkscape:page
       x="0"
       y="0"
       width="460.436"
       height="25.395996"
       id="page2"
       margin="0"
       bleed="0" />
  </sodipodi:namedview>
  <g
     id="g1"
     inkscape:groupmode="layer"
     inkscape:label="1"
     transform="translate(-457.48521,-270.92172)">
    <path
       id="path425"
       d="m 0,0 0.148,-6.067 h -0.55 c -0.26,1.523 -0.898,2.744 -1.913,3.672 -1.015,0.924 -2.114,1.388 -3.295,1.388 -0.913,0 -1.636,-0.242 -2.169,-0.73 -0.533,-0.487 -0.798,-1.051 -0.798,-1.685 0,-0.405 0.096,-0.761 0.281,-1.073 0.26,-0.422 0.677,-0.838 1.249,-1.249 0.421,-0.297 1.392,-0.821 2.913,-1.57 2.129,-1.049 3.565,-2.036 4.309,-2.968 0.734,-0.932 1.1,-1.995 1.1,-3.193 0,-1.523 -0.593,-2.833 -1.779,-3.928 -1.184,-1.096 -2.69,-1.644 -4.516,-1.644 -0.573,0 -1.114,0.06 -1.625,0.175 -0.509,0.115 -1.148,0.337 -1.919,0.658 -0.429,0.179 -0.784,0.266 -1.06,0.266 -0.232,0 -0.48,-0.087 -0.738,-0.266 -0.26,-0.178 -0.47,-0.452 -0.631,-0.819 h -0.497 v 6.875 h 0.497 c 0.393,-1.936 1.152,-3.411 2.274,-4.426 1.124,-1.015 2.334,-1.523 3.632,-1.523 1.002,0 1.8,0.274 2.397,0.817 0.592,0.548 0.891,1.182 0.891,1.908 0,0.43 -0.114,0.844 -0.342,1.249 -0.227,0.401 -0.576,0.785 -1.04,1.146 -0.465,0.365 -1.289,0.833 -2.47,1.416 -1.657,0.817 -2.847,1.508 -3.571,2.082 -0.724,0.571 -1.281,1.211 -1.67,1.919 -0.39,0.71 -0.585,1.483 -0.585,2.336 0,1.451 0.533,2.684 1.597,3.703 1.067,1.022 2.407,1.531 4.027,1.531 0.59,0 1.165,-0.071 1.719,-0.214 0.421,-0.107 0.933,-0.307 1.536,-0.599 0.605,-0.291 1.029,-0.434 1.27,-0.434 0.232,0 0.416,0.071 0.551,0.214 0.133,0.145 0.257,0.488 0.375,1.033 z"
       style="fill:#231f20;fill-opacity:1;fill-rule:nonzero;stroke:none"
       transform="matrix(1.3333333,0,0,-1.3333333,472.8052,270.92173)"
       clip-path="url(#clipPath426)" />
    <path
       id="path427"
       d="m 0,0 c -1.663,0 -2.93,-0.851 -3.798,-2.548 -0.706,-1.4 -1.059,-3.4 -1.059,-6.016 0,-3.105 0.545,-5.401 1.637,-6.884 0.759,-1.041 1.824,-1.559 3.194,-1.559 0.922,0 1.693,0.223 2.309,0.673 0.787,0.573 1.401,1.487 1.839,2.746 0.438,1.253 0.658,2.895 0.658,4.917 0,2.407 -0.223,4.212 -0.67,5.401 C 3.66,-2.072 3.091,-1.228 2.397,-0.738 1.703,-0.244 0.904,0 0,0 m -0.16,0.859 c 2.898,0.107 5.256,-0.738 7.067,-2.536 1.812,-1.797 2.719,-4.047 2.719,-6.752 0,-2.308 -0.676,-4.338 -2.026,-6.095 -1.791,-2.324 -4.319,-3.488 -7.584,-3.488 -3.277,0 -5.811,1.109 -7.599,3.33 -1.414,1.752 -2.12,3.832 -2.12,6.241 0,2.701 0.919,4.955 2.759,6.757 1.837,1.805 4.1,2.65 6.784,2.543"
       style="fill:#231f20;fill-opacity:1;fill-rule:nonzero;stroke:none"
       transform="matrix(1.3333333,0,0,-1.3333333,490.34427,272.28293)"
       clip-path="url(#clipPath428)" />
    <path
       id="path429"
       d="m 0,0 h 9.396 v -0.498 h -0.47 c -0.705,0 -1.192,-0.071 -1.454,-0.22 C 7.206,-0.865 7.02,-1.067 6.908,-1.328 6.794,-1.59 6.74,-2.236 6.74,-3.276 v -8.914 c 0,-1.626 0.121,-2.705 0.368,-3.232 0.246,-0.53 0.65,-0.968 1.214,-1.315 0.564,-0.351 1.277,-0.523 2.136,-0.523 0.985,0 1.823,0.22 2.516,0.664 0.694,0.442 1.214,1.051 1.56,1.832 0.34,0.777 0.514,2.134 0.514,4.065 v 7.423 c 0,0.817 -0.081,1.398 -0.254,1.745 -0.171,0.349 -0.383,0.591 -0.644,0.726 -0.404,0.206 -0.972,0.307 -1.706,0.307 V 0 h 6.295 v -0.498 h -0.374 c -0.511,0 -0.935,-0.101 -1.275,-0.307 -0.343,-0.206 -0.586,-0.513 -0.738,-0.928 -0.119,-0.285 -0.178,-0.799 -0.178,-1.543 v -6.912 c 0,-2.137 -0.139,-3.682 -0.421,-4.631 -0.28,-0.948 -0.969,-1.822 -2.062,-2.618 -1.09,-0.797 -2.581,-1.193 -4.469,-1.193 -1.573,0 -2.791,0.21 -3.651,0.63 -1.172,0.573 -1.999,1.305 -2.481,2.203 -0.485,0.892 -0.726,2.096 -0.726,3.607 v 8.914 c 0,1.047 -0.058,1.698 -0.175,1.956 C 2.072,-1.067 1.872,-0.865 1.586,-0.712 1.3,-0.559 0.771,-0.488 0,-0.498 Z"
       style="fill:#231f20;fill-opacity:1;fill-rule:nonzero;stroke:none"
       transform="matrix(1.3333333,0,0,-1.3333333,505.34173,271.47653)"
       clip-path="url(#clipPath430)" />
    <path
       id="path431"
       d="m 0,0 v -4.925 h -0.483 c -0.288,1.134 -0.604,1.953 -0.952,2.451 -0.352,0.495 -0.831,0.892 -1.44,1.185 -0.34,0.163 -0.935,0.242 -1.782,0.242 h -1.357 v -14.038 c 0,-0.932 0.049,-1.515 0.156,-1.747 0.1,-0.232 0.304,-0.438 0.602,-0.609 0.302,-0.176 0.709,-0.261 1.23,-0.261 h 0.604 V -18.2 h -9.531 v 0.498 h 0.603 c 0.529,0 0.954,0.091 1.277,0.277 0.233,0.127 0.414,0.343 0.549,0.647 0.1,0.214 0.15,0.779 0.15,1.693 v 14.038 h -1.318 c -1.223,0 -2.12,-0.26 -2.672,-0.777 -0.778,-0.726 -1.269,-1.757 -1.476,-3.101 h -0.509 V 0 Z"
       style="fill:#231f20;fill-opacity:1;fill-rule:nonzero;stroke:none"
       transform="matrix(1.3333333,0,0,-1.3333333,554.07867,271.47653)"
       clip-path="url(#clipPath432)" />
    <path
       id="path433"
       d="M 0,0 V -5.635 C 0,-6.567 0.054,-7.15 0.154,-7.382 0.258,-7.614 0.46,-7.82 0.762,-7.991 1.062,-8.167 1.463,-8.253 1.975,-8.253 H 2.577 V -8.75 h -9.515 v 0.497 h 0.606 c 0.526,0 0.954,0.092 1.276,0.278 0.23,0.127 0.409,0.343 0.535,0.646 0.097,0.215 0.15,0.78 0.15,1.694 V 6.337 c 0,0.928 -0.053,1.511 -0.15,1.745 -0.098,0.23 -0.3,0.436 -0.597,0.608 -0.301,0.177 -0.705,0.262 -1.214,0.262 H -6.938 V 9.45 H 2.577 V 8.952 H 1.975 C 1.447,8.952 1.025,8.859 0.698,8.673 0.472,8.548 0.285,8.331 0.148,8.026 0.05,7.812 0,7.249 0,6.337 V 1.182 H 6.431 V 6.337 C 6.431,7.265 6.383,7.848 6.285,8.082 6.187,8.312 5.984,8.518 5.683,8.69 5.377,8.867 4.971,8.952 4.457,8.952 H 3.866 V 9.45 h 9.506 V 8.952 H 12.783 C 12.242,8.952 11.821,8.859 11.508,8.673 11.274,8.548 11.092,8.331 10.955,8.026 10.855,7.812 10.809,7.249 10.809,6.337 V -5.635 c 0,-0.932 0.046,-1.515 0.146,-1.747 0.101,-0.232 0.299,-0.438 0.607,-0.609 0.303,-0.176 0.711,-0.262 1.221,-0.262 h 0.589 V -8.75 H 3.866 v 0.497 h 0.591 c 0.537,0 0.964,0.092 1.277,0.278 0.237,0.127 0.416,0.343 0.551,0.646 0.098,0.215 0.146,0.78 0.146,1.694 V 0 Z"
       style="fill:#231f20;fill-opacity:1;fill-rule:nonzero;stroke:none"
       transform="matrix(1.3333333,0,0,-1.3333333,565.4212,284.0764)"
       clip-path="url(#clipPath434)" />
    <path
       id="path435"
       d="m 0,0 v -7.41 h 0.363 c 1.154,0 1.992,0.363 2.512,1.089 0.52,0.722 0.847,1.793 0.991,3.208 h 0.512 v -9.529 H 3.866 c -0.108,1.035 -0.333,1.887 -0.678,2.546 -0.344,0.664 -0.743,1.11 -1.202,1.34 C 1.533,-8.53 0.869,-8.415 0,-8.415 v -5.127 c 0,-1.004 0.044,-1.614 0.131,-1.84 0.083,-0.225 0.244,-0.409 0.473,-0.552 0.235,-0.142 0.61,-0.214 1.127,-0.214 h 1.088 c 1.702,0 3.062,0.393 4.087,1.182 1.028,0.787 1.763,1.987 2.211,3.597 H 9.613 L 8.792,-17.153 H -6.939 v 0.498 h 0.606 c 0.527,0 0.952,0.091 1.271,0.277 0.236,0.127 0.413,0.343 0.541,0.647 0.1,0.214 0.147,0.779 0.147,1.693 v 11.972 c 0,0.821 -0.023,1.329 -0.065,1.515 -0.091,0.315 -0.258,0.555 -0.498,0.726 -0.341,0.249 -0.805,0.374 -1.396,0.374 H -6.939 V 1.047 H 8.298 V -4.334 H 7.79 C 7.526,-3.02 7.162,-2.078 6.692,-1.503 6.223,-0.932 5.56,-0.509 4.699,-0.242 4.195,-0.079 3.26,0 1.88,0 Z"
       style="fill:#231f20;fill-opacity:1;fill-rule:nonzero;stroke:none"
       transform="matrix(1.3333333,0,0,-1.3333333,593.89907,272.87253)"
       clip-path="url(#clipPath436)" />
    <path
       id="path437"
       d="M 0,0 -2.713,6.268 -5.501,0 Z m 0.454,-0.997 h -6.429 l -0.763,-1.769 c -0.253,-0.591 -0.377,-1.078 -0.377,-1.463 0,-0.512 0.207,-0.886 0.617,-1.127 0.24,-0.142 0.839,-0.249 1.789,-0.321 v -0.497 h -6.054 v 0.497 c 0.651,0.098 1.186,0.369 1.606,0.811 0.423,0.44 0.944,1.356 1.558,2.747 l 6.51,14.521 h 0.256 L 5.728,-2.524 c 0.628,-1.414 1.146,-2.306 1.548,-2.673 0.306,-0.275 0.728,-0.44 1.287,-0.48 V -6.174 H -0.24 v 0.497 h 0.358 c 0.71,0 1.206,0.098 1.491,0.294 0.199,0.143 0.298,0.349 0.298,0.615 0,0.164 -0.03,0.329 -0.081,0.497 -0.018,0.081 -0.155,0.417 -0.403,1.01 z"
       style="fill:#231f20;fill-opacity:1;fill-rule:nonzero;stroke:none"
       transform="matrix(1.3333333,0,0,-1.3333333,623.00187,287.51093)"
       clip-path="url(#clipPath438)" />
    <path
       id="path439"
       d="m 0,0 0.149,-6.067 h -0.547 c -0.262,1.523 -0.902,2.744 -1.914,3.672 -1.017,0.924 -2.117,1.388 -3.299,1.388 -0.908,0 -1.636,-0.242 -2.167,-0.73 -0.534,-0.487 -0.797,-1.051 -0.797,-1.685 0,-0.405 0.096,-0.761 0.281,-1.073 0.26,-0.422 0.677,-0.838 1.247,-1.249 0.427,-0.297 1.393,-0.821 2.915,-1.57 2.13,-1.049 3.568,-2.036 4.307,-2.968 0.735,-0.932 1.102,-1.995 1.102,-3.193 0,-1.523 -0.592,-2.833 -1.774,-3.928 -1.19,-1.096 -2.696,-1.644 -4.522,-1.644 -0.577,0 -1.113,0.06 -1.626,0.175 -0.508,0.115 -1.147,0.337 -1.918,0.658 -0.428,0.179 -0.78,0.266 -1.059,0.266 -0.232,0 -0.48,-0.087 -0.737,-0.266 -0.262,-0.178 -0.471,-0.452 -0.631,-0.819 h -0.496 v 6.875 h 0.496 c 0.39,-1.936 1.15,-3.411 2.276,-4.426 1.12,-1.015 2.328,-1.523 3.628,-1.523 1.002,0 1.799,0.274 2.396,0.817 0.594,0.548 0.892,1.182 0.892,1.908 0,0.43 -0.111,0.844 -0.337,1.249 -0.232,0.401 -0.581,0.785 -1.043,1.146 -0.466,0.365 -1.289,0.833 -2.47,1.416 -1.659,0.817 -2.844,1.508 -3.572,2.082 -0.723,0.571 -1.278,1.211 -1.67,1.919 -0.392,0.71 -0.584,1.483 -0.584,2.336 0,1.451 0.532,2.684 1.598,3.703 C -8.81,-0.509 -7.469,0 -5.854,0 c 0.592,0 1.165,-0.071 1.722,-0.214 0.42,-0.107 0.93,-0.307 1.535,-0.599 0.605,-0.291 1.029,-0.434 1.271,-0.434 0.234,0 0.418,0.071 0.55,0.214 0.132,0.145 0.258,0.488 0.378,1.033 z"
       style="fill:#231f20;fill-opacity:1;fill-rule:nonzero;stroke:none"
       transform="matrix(1.3333333,0,0,-1.3333333,652.04747,270.92173)"
       clip-path="url(#clipPath440)" />
    <path
       id="path441"
       d="m 0,0 v -4.925 h -0.482 c -0.288,1.134 -0.601,1.953 -0.953,2.451 -0.346,0.495 -0.824,0.892 -1.439,1.185 -0.335,0.163 -0.932,0.242 -1.784,0.242 h -1.357 v -14.038 c 0,-0.932 0.056,-1.515 0.156,-1.747 0.102,-0.232 0.305,-0.438 0.604,-0.609 0.302,-0.176 0.712,-0.261 1.232,-0.261 h 0.604 V -18.2 h -9.533 v 0.498 h 0.606 c 0.525,0 0.952,0.091 1.274,0.277 0.227,0.127 0.416,0.343 0.549,0.647 0.097,0.214 0.151,0.779 0.151,1.693 v 14.038 h -1.319 c -1.227,0 -2.118,-0.26 -2.666,-0.777 -0.783,-0.726 -1.274,-1.757 -1.484,-3.101 h -0.504 V 0 Z"
       style="fill:#231f20;fill-opacity:1;fill-rule:nonzero;stroke:none"
       transform="matrix(1.3333333,0,0,-1.3333333,678.33787,271.47653)"
       clip-path="url(#clipPath442)" />
    <path
       id="path443"
       d="M 0,0 H 9.396 V -0.498 H 8.927 c -0.706,0 -1.194,-0.071 -1.455,-0.22 C 7.208,-0.865 7.02,-1.067 6.904,-1.328 6.797,-1.59 6.74,-2.236 6.74,-3.276 v -8.914 c 0,-1.626 0.123,-2.705 0.368,-3.232 0.245,-0.53 0.649,-0.968 1.214,-1.315 0.561,-0.351 1.277,-0.523 2.14,-0.523 0.979,0 1.819,0.22 2.512,0.664 0.694,0.442 1.214,1.051 1.556,1.832 0.345,0.777 0.52,2.134 0.52,4.065 v 7.423 c 0,0.817 -0.086,1.398 -0.256,1.745 -0.173,0.349 -0.383,0.591 -0.645,0.726 -0.402,0.206 -0.971,0.307 -1.705,0.307 V 0 h 6.298 v -0.498 h -0.379 c -0.506,0 -0.932,-0.101 -1.275,-0.307 -0.337,-0.206 -0.583,-0.513 -0.737,-0.928 -0.118,-0.285 -0.177,-0.799 -0.177,-1.543 v -6.912 c 0,-2.137 -0.139,-3.682 -0.422,-4.631 -0.28,-0.948 -0.97,-1.822 -2.061,-2.618 -1.088,-0.797 -2.581,-1.193 -4.466,-1.193 -1.579,0 -2.794,0.21 -3.653,0.63 -1.172,0.573 -1.999,1.305 -2.484,2.203 -0.483,0.892 -0.726,2.096 -0.726,3.607 v 8.914 c 0,1.047 -0.057,1.698 -0.173,1.956 C 2.07,-1.067 1.872,-0.865 1.587,-0.712 1.297,-0.559 0.768,-0.488 0,-0.498 Z"
       style="fill:#231f20;fill-opacity:1;fill-rule:nonzero;stroke:none"
       transform="matrix(1.3333333,0,0,-1.3333333,689.02533,271.47653)"
       clip-path="url(#clipPath444)" />
    <path
       id="path445"
       d="m 0,0 8.979,-11.288 v 7.826 c 0,1.091 -0.154,1.828 -0.469,2.215 -0.425,0.517 -1.149,0.771 -2.159,0.749 V 0 H 12.36 V -0.498 C 11.595,-0.595 11.079,-0.724 10.81,-0.879 10.548,-1.035 10.346,-1.293 10.195,-1.642 10.048,-1.997 9.973,-2.604 9.973,-3.462 V -18.617 H 9.517 L -2.792,-3.462 v -11.572 c 0,-1.048 0.242,-1.752 0.72,-2.119 0.477,-0.369 1.029,-0.549 1.643,-0.549 H 0 V -18.2 h -6.454 v 0.498 c 0.997,0.004 1.701,0.214 2.092,0.614 0.396,0.405 0.591,1.089 0.591,2.054 v 12.847 l -0.393,0.482 c -0.379,0.484 -0.722,0.803 -1.018,0.955 -0.295,0.151 -0.721,0.234 -1.272,0.252 V 0 Z"
       style="fill:#231f20;fill-opacity:1;fill-rule:nonzero;stroke:none"
       transform="matrix(1.3333333,0,0,-1.3333333,723.76493,271.47653)"
       clip-path="url(#clipPath446)" />
    <path
       id="path447"
       d="M 0,0 V -0.498 H -9.521 V 0 h 0.604 c 0.528,0 0.954,0.091 1.277,0.277 0.235,0.127 0.412,0.344 0.536,0.647 0.095,0.214 0.151,0.779 0.151,1.693 v 11.972 c 0,0.928 -0.056,1.511 -0.151,1.745 -0.095,0.23 -0.295,0.437 -0.599,0.609 -0.295,0.176 -0.702,0.262 -1.214,0.262 h -0.604 v 0.497 H 0 v -0.497 h -0.604 c -0.532,0 -0.957,-0.093 -1.278,-0.28 C -2.115,16.8 -2.298,16.584 -2.433,16.279 -2.53,16.065 -2.575,15.501 -2.575,14.589 V 2.617 c 0,-0.932 0.047,-1.515 0.148,-1.747 C -2.319,0.638 -2.119,0.432 -1.822,0.262 -1.521,0.085 -1.114,0 -0.604,0 Z"
       style="fill:#231f20;fill-opacity:1;fill-rule:nonzero;stroke:none"
       transform="matrix(1.3333333,0,0,-1.3333333,754.5344,295.07973)"
       clip-path="url(#clipPath448)" />
    <path
       id="path449"
       d="m 0,0 v -0.498 c -0.665,-0.107 -1.25,-0.458 -1.775,-1.058 -0.376,-0.45 -0.928,-1.497 -1.677,-3.155 l -6.27,-13.906 h -0.438 l -6.244,14.469 c -0.751,1.745 -1.255,2.77 -1.515,3.073 -0.25,0.306 -0.729,0.496 -1.439,0.577 V 0 h 8.728 v -0.498 h -0.302 c -0.781,0 -1.318,-0.097 -1.601,-0.295 -0.211,-0.133 -0.314,-0.329 -0.314,-0.587 0,-0.165 0.032,-0.353 0.107,-0.571 0.067,-0.222 0.313,-0.809 0.727,-1.769 l 3.879,-9.057 3.595,8.066 c 0.428,0.975 0.696,1.63 0.793,1.959 0.1,0.333 0.147,0.613 0.147,0.845 0,0.269 -0.072,0.507 -0.211,0.714 -0.146,0.206 -0.356,0.362 -0.633,0.469 -0.388,0.153 -0.895,0.226 -1.532,0.226 V 0 Z"
       style="fill:#231f20;fill-opacity:1;fill-rule:nonzero;stroke:none"
       transform="matrix(1.3333333,0,0,-1.3333333,781.46933,271.47653)"
       clip-path="url(#clipPath450)" />
    <path
       id="path451"
       d="m 0,0 v -7.41 h 0.362 c 1.155,0 1.988,0.363 2.511,1.089 0.516,0.722 0.844,1.793 0.989,3.208 h 0.516 v -9.529 H 3.862 c -0.105,1.035 -0.331,1.887 -0.675,2.546 -0.344,0.664 -0.747,1.11 -1.203,1.34 C 1.528,-8.53 0.866,-8.415 0,-8.415 v -5.127 c 0,-1.004 0.041,-1.614 0.127,-1.84 0.087,-0.225 0.244,-0.409 0.476,-0.552 0.236,-0.142 0.604,-0.214 1.127,-0.214 h 1.089 c 1.7,0 3.06,0.393 4.086,1.182 1.024,0.787 1.761,1.987 2.205,3.597 H 9.612 L 8.789,-17.153 H -6.942 v 0.498 h 0.607 c 0.523,0 0.953,0.091 1.273,0.277 0.23,0.127 0.412,0.343 0.535,0.647 0.099,0.214 0.151,0.779 0.151,1.693 v 11.972 c 0,0.821 -0.024,1.329 -0.067,1.515 -0.088,0.315 -0.258,0.555 -0.498,0.726 -0.339,0.249 -0.803,0.374 -1.394,0.374 H -6.942 V 1.047 H 8.292 V -4.334 H 7.784 C 7.524,-3.02 7.159,-2.078 6.691,-1.503 6.22,-0.932 5.558,-0.509 4.697,-0.242 4.195,-0.079 3.256,0 1.875,0 Z"
       style="fill:#231f20;fill-opacity:1;fill-rule:nonzero;stroke:none"
       transform="matrix(1.3333333,0,0,-1.3333333,791.83267,272.87253)"
       clip-path="url(#clipPath452)" />
    <path
       id="path453"
       d="m 0,0 v -7.975 h 0.763 c 1.243,0 2.175,0.115 2.794,0.343 0.615,0.228 1.102,0.641 1.455,1.237 0.353,0.593 0.532,1.369 0.532,2.326 0,1.388 -0.329,2.411 -0.974,3.076 C 3.918,-0.329 2.875,0 1.436,0 Z m 0,-8.926 v -5.1 c 0,-0.984 0.06,-1.606 0.179,-1.86 0.12,-0.254 0.333,-0.456 0.637,-0.611 0.306,-0.153 0.873,-0.226 1.705,-0.226 v -0.498 h -9.314 v 0.498 c 0.841,0 1.407,0.076 1.709,0.23 0.302,0.159 0.516,0.365 0.631,0.615 0.122,0.25 0.182,0.868 0.182,1.852 v 11.809 c 0,0.986 -0.06,1.606 -0.182,1.86 -0.115,0.258 -0.332,0.458 -0.639,0.613 -0.302,0.152 -0.866,0.226 -1.701,0.226 v 0.497 h 8.456 c 2.199,0 3.81,-0.152 4.832,-0.456 1.02,-0.303 1.855,-0.864 2.498,-1.683 0.643,-0.821 0.964,-1.778 0.964,-2.877 0,-1.344 -0.483,-2.455 -1.449,-3.331 -0.62,-0.555 -1.48,-0.972 -2.59,-1.249 l 4.375,-6.163 c 0.574,-0.797 0.981,-1.293 1.225,-1.489 0.363,-0.275 0.793,-0.426 1.273,-0.454 v -0.498 h -5.73 l -5.868,8.295 z"
       style="fill:#231f20;fill-opacity:1;fill-rule:nonzero;stroke:none"
       transform="matrix(1.3333333,0,0,-1.3333333,816.03053,272.78253)"
       clip-path="url(#clipPath454)" />
    <path
       id="path455"
       d="M 0,0 0.148,-6.067 H -0.4 c -0.258,1.523 -0.897,2.744 -1.908,3.672 -1.021,0.924 -2.118,1.388 -3.303,1.388 -0.909,0 -1.632,-0.242 -2.163,-0.73 -0.535,-0.487 -0.801,-1.051 -0.801,-1.685 0,-0.405 0.095,-0.761 0.283,-1.073 0.262,-0.422 0.678,-0.838 1.249,-1.249 0.423,-0.297 1.392,-0.821 2.911,-1.57 2.129,-1.049 3.569,-2.036 4.309,-2.968 0.735,-0.932 1.099,-1.995 1.099,-3.193 0,-1.523 -0.592,-2.833 -1.774,-3.928 -1.189,-1.096 -2.694,-1.644 -4.521,-1.644 -0.573,0 -1.112,0.06 -1.624,0.175 -0.511,0.115 -1.15,0.337 -1.919,0.658 -0.43,0.179 -0.781,0.266 -1.063,0.266 -0.229,0 -0.476,-0.087 -0.735,-0.266 -0.26,-0.178 -0.47,-0.452 -0.631,-0.819 h -0.495 v 6.875 h 0.495 c 0.39,-1.936 1.152,-3.411 2.276,-4.426 1.125,-1.015 2.332,-1.523 3.633,-1.523 1.001,0 1.798,0.274 2.394,0.817 0.596,0.548 0.893,1.182 0.893,1.908 0,0.43 -0.116,0.844 -0.341,1.249 -0.229,0.401 -0.577,0.785 -1.045,1.146 -0.462,0.365 -1.291,0.833 -2.468,1.416 -1.654,0.817 -2.843,1.508 -3.571,2.082 -0.723,0.571 -1.275,1.211 -1.67,1.919 -0.388,0.71 -0.583,1.483 -0.583,2.336 0,1.451 0.532,2.684 1.598,3.703 C -8.81,-0.509 -7.47,0 -5.852,0 c 0.591,0 1.165,-0.071 1.72,-0.214 0.42,-0.107 0.934,-0.307 1.536,-0.599 0.605,-0.291 1.028,-0.434 1.272,-0.434 0.231,0 0.418,0.071 0.547,0.214 0.134,0.145 0.257,0.488 0.377,1.033 z"
       style="fill:#231f20;fill-opacity:1;fill-rule:nonzero;stroke:none"
       transform="matrix(1.3333333,0,0,-1.3333333,849.97587,270.92173)"
       clip-path="url(#clipPath456)" />
    <path
       id="path457"
       d="M 0,0 V -0.498 H -9.522 V 0 h 0.602 c 0.529,0 0.958,0.091 1.279,0.277 0.232,0.127 0.414,0.344 0.536,0.647 0.102,0.214 0.152,0.779 0.152,1.693 v 11.972 c 0,0.928 -0.05,1.511 -0.152,1.745 -0.098,0.23 -0.3,0.437 -0.597,0.609 -0.296,0.176 -0.702,0.262 -1.218,0.262 h -0.602 v 0.497 H 0 v -0.497 h -0.608 c -0.526,0 -0.95,-0.093 -1.277,-0.28 C -2.115,16.8 -2.3,16.584 -2.431,16.279 -2.527,16.065 -2.579,15.501 -2.579,14.589 V 2.617 c 0,-0.932 0.054,-1.515 0.154,-1.747 C -2.323,0.638 -2.123,0.432 -1.819,0.262 -1.522,0.085 -1.118,0 -0.608,0 Z"
       style="fill:#231f20;fill-opacity:1;fill-rule:nonzero;stroke:none"
       transform="matrix(1.3333333,0,0,-1.3333333,866.5748,295.07973)"
       clip-path="url(#clipPath458)" />
    <path
       id="path459"
       d="m 0,0 v -4.925 h -0.479 c -0.285,1.134 -0.602,1.953 -0.953,2.451 -0.348,0.495 -0.831,0.892 -1.439,1.185 -0.341,0.163 -0.932,0.242 -1.782,0.242 H -6.01 v -14.038 c 0,-0.932 0.054,-1.515 0.155,-1.747 0.103,-0.232 0.303,-0.438 0.6,-0.609 0.3,-0.176 0.71,-0.261 1.234,-0.261 h 0.6 V -18.2 h -9.53 v 0.498 h 0.602 c 0.53,0 0.953,0.091 1.279,0.277 0.232,0.127 0.415,0.343 0.546,0.647 0.1,0.214 0.152,0.779 0.152,1.693 v 14.038 h -1.316 c -1.228,0 -2.119,-0.26 -2.669,-0.777 -0.782,-0.726 -1.274,-1.757 -1.476,-3.101 h -0.514 V 0 Z"
       style="fill:#231f20;fill-opacity:1;fill-rule:nonzero;stroke:none"
       transform="matrix(1.3333333,0,0,-1.3333333,890.53053,271.47653)"
       clip-path="url(#clipPath460)" />
    <path
       id="path461"
       d="m 0,0 v -0.498 c -0.601,-0.081 -1.064,-0.252 -1.383,-0.521 -0.444,-0.377 -1.154,-1.4 -2.124,-3.074 l -3.946,-6.59 v -4.402 c 0,-0.94 0.052,-1.527 0.147,-1.753 0.101,-0.23 0.293,-0.432 0.585,-0.603 0.293,-0.176 0.68,-0.261 1.162,-0.261 h 1.021 V -18.2 h -10.213 v 0.498 h 0.951 c 0.535,0 0.962,0.091 1.276,0.277 0.232,0.127 0.414,0.343 0.55,0.647 0.098,0.214 0.149,0.779 0.149,1.693 v 3.648 l -4.282,7.799 c -0.855,1.54 -1.452,2.448 -1.801,2.718 -0.351,0.274 -0.811,0.416 -1.394,0.422 V 0 h 8.723 v -0.498 h -0.385 c -0.534,0 -0.9,-0.073 -1.11,-0.226 -0.211,-0.155 -0.316,-0.315 -0.316,-0.485 0,-0.322 0.357,-1.131 1.075,-2.429 l 3.29,-6.026 3.275,5.49 c 0.809,1.343 1.219,2.231 1.219,2.671 0,0.242 -0.12,0.444 -0.351,0.603 -0.301,0.224 -0.862,0.361 -1.677,0.402 V 0 Z"
       style="fill:#231f20;fill-opacity:1;fill-rule:nonzero;stroke:none"
       transform="matrix(1.3333333,0,0,-1.3333333,917.9212,271.47653)"
       clip-path="url(#clipPath462)" />
  </g>
</svg>
