<?xml version="1.0" encoding="UTF-8" standalone="no"?>
<!-- Created with Inkscape (http://www.inkscape.org/) -->

<svg
   width="67.140976mm"
   height="137.40479mm"
   viewBox="0 0 67.140976 137.40479"
   version="1.1"
   id="svg1"
   sodipodi:docname="标准色卡.svg"
   inkscape:version="1.4 (e7c3feb100, 2024-10-09)"
   xmlns:inkscape="http://www.inkscape.org/namespaces/inkscape"
   xmlns:sodipodi="http://sodipodi.sourceforge.net/DTD/sodipodi-0.dtd"
   xmlns="http://www.w3.org/2000/svg"
   xmlns:svg="http://www.w3.org/2000/svg">
  <sodipodi:namedview
     id="namedview1"
     pagecolor="#ffffff"
     bordercolor="#000000"
     borderopacity="0.25"
     inkscape:showpageshadow="2"
     inkscape:pageopacity="0.0"
     inkscape:pagecheckerboard="0"
     inkscape:deskcolor="#d1d1d1"
     inkscape:document-units="mm"
     inkscape:zoom="2.8756734"
     inkscape:cx="110.23505"
     inkscape:cy="183.4353"
     inkscape:window-width="1920"
     inkscape:window-height="1009"
     inkscape:window-x="2552"
     inkscape:window-y="-8"
     inkscape:window-maximized="1"
     inkscape:current-layer="layer1" />
  <defs
     id="defs1">
    <rect
       x="47.29327"
       y="9.7368498"
       width="154.39862"
       height="31.992508"
       id="rect14" />
    <rect
       x="48.194946"
       y="17.212481"
       width="133.27377"
       height="25.572828"
       id="rect13" />
    <rect
       x="47.29327"
       y="9.7368498"
       width="154.39862"
       height="31.992508"
       id="rect27" />
  </defs>
  <g
     inkscape:groupmode="layer"
     id="layer2"
     inkscape:label="Bg"
     transform="translate(-9.6287441,-7.5468535)">
    <rect
       style="fill:#ffffff;fill-opacity:1;stroke-width:0.264583"
       id="rect38"
       width="67.140976"
       height="137.40479"
       x="9.6287441"
       y="7.5468535"
       inkscape:export-filename="标准色卡.svg"
       inkscape:export-xdpi="96"
       inkscape:export-ydpi="96" />
  </g>
  <g
     inkscape:label="图层 1"
     inkscape:groupmode="layer"
     id="layer1"
     transform="translate(-9.6287441,-7.5468535)">
    <rect
       style="fill:#587558;fill-opacity:1;stroke-width:0.0460103"
       id="rect1"
       width="13.229167"
       height="13.229167"
       x="13.229167"
       y="13.229167" />
    <rect
       style="fill:#587558;fill-opacity:0.8;stroke-width:0.0460103"
       id="rect2"
       width="13.229167"
       height="13.229167"
       x="13.229167"
       y="29.104166" />
    <rect
       style="fill:#587558;fill-opacity:0.5;stroke-width:0.0460103"
       id="rect3"
       width="13.229167"
       height="13.229167"
       x="13.229167"
       y="44.979168" />
    <rect
       style="fill:#587558;fill-opacity:0.2;stroke-width:0.0460103"
       id="rect4"
       width="13.229167"
       height="13.229167"
       x="13.229167"
       y="60.854168" />
    <rect
       style="fill:#fdd000;fill-opacity:1;stroke-width:0.0460103"
       id="rect5"
       width="13.229167"
       height="13.229167"
       x="29.104166"
       y="13.229167" />
    <rect
       style="fill:#fdd000;fill-opacity:0.8;stroke-width:0.0460103"
       id="rect6"
       width="13.229167"
       height="13.229167"
       x="29.104166"
       y="29.104166" />
    <rect
       style="fill:#fdd000;fill-opacity:0.501961;stroke-width:0.0460103"
       id="rect7"
       width="13.229167"
       height="13.229167"
       x="29.104166"
       y="44.979168" />
    <rect
       style="fill:#fdd000;fill-opacity:0.2;stroke-width:0.0460103"
       id="rect8"
       width="13.229167"
       height="13.229167"
       x="29.104166"
       y="60.854168" />
    <rect
       style="fill:#231815;fill-opacity:1;stroke-width:0.0460103"
       id="rect9"
       width="13.229167"
       height="13.229167"
       x="44.979168"
       y="13.229167" />
    <rect
       style="fill:#231815;fill-opacity:0.8;stroke-width:0.0460103"
       id="rect10"
       width="13.229167"
       height="13.229167"
       x="44.979168"
       y="29.104166" />
    <rect
       style="fill:#231815;fill-opacity:0.501961;stroke-width:0.0460103"
       id="rect11"
       width="13.229167"
       height="13.229167"
       x="44.979168"
       y="44.979168" />
    <rect
       style="fill:#231815;fill-opacity:0.2;stroke-width:0.0460103"
       id="rect12"
       width="13.229167"
       height="13.229167"
       x="44.979168"
       y="60.854168" />
    <path
       style="font-family:'Noto Sans SC';-inkscape-font-specification:'Noto Sans SC';white-space:pre;fill:#231815"
       d="m 52.884969,12.628328 h 5.232 v 0.852 h -5.232 z m -0.528,2.868 h 6.408 v 0.852 h -6.408 z m 2.568,0.42 h 0.912 v 5.676 q 0,0.384 -0.096,0.6 -0.096,0.228 -0.36,0.348 -0.264,0.108 -0.696,0.132 -0.42,0.036 -1.044,0.036 -0.024,-0.204 -0.108,-0.468 -0.084,-0.252 -0.18,-0.456 0.468,0.012 0.84,0.012 0.384,0 0.504,0 0.132,-0.012 0.18,-0.048 0.048,-0.048 0.048,-0.168 z m 1.716,1.98 0.768,-0.24 q 0.3,0.588 0.564,1.26 0.276,0.66 0.492,1.284 0.216,0.624 0.312,1.104 l -0.828,0.3 q -0.096,-0.48 -0.3,-1.116 -0.192,-0.636 -0.456,-1.308 -0.264,-0.684 -0.552,-1.284 z m -3.456,-0.204 0.828,0.18 q -0.18,0.696 -0.444,1.38 -0.252,0.672 -0.552,1.272 -0.3,0.6 -0.624,1.056 -0.084,-0.06 -0.216,-0.144 -0.132,-0.096 -0.276,-0.18 -0.132,-0.096 -0.24,-0.144 0.504,-0.648 0.9,-1.56 0.396,-0.912 0.624,-1.86 z m -5.304,-3.432 h 4.308 v 0.84 h -4.308 z m 1.836,-2.544 h 0.9 v 11.028 h -0.9 z m -0.108,3.048 0.612,0.192 q -0.156,0.66 -0.384,1.38 -0.216,0.72 -0.504,1.416 -0.276,0.684 -0.6,1.284 -0.312,0.6 -0.648,1.02 -0.048,-0.12 -0.144,-0.276 -0.084,-0.156 -0.18,-0.3 -0.096,-0.156 -0.18,-0.264 0.408,-0.492 0.804,-1.236 0.408,-0.744 0.72,-1.596 0.324,-0.852 0.504,-1.62 z m 0.948,0.588 q 0.108,0.12 0.336,0.42 0.24,0.288 0.516,0.636 0.276,0.348 0.504,0.648 0.228,0.288 0.324,0.42 l -0.528,0.708 q -0.12,-0.204 -0.336,-0.54 -0.204,-0.348 -0.456,-0.72 -0.24,-0.372 -0.468,-0.684 -0.216,-0.312 -0.348,-0.48 z m 13.704,0.912 h 5.988 v 0.792 h -5.988 z m 0.012,2.388 h 5.964 v 0.792 h -5.964 z m 0,2.436 h 6.468 v 0.816 h -6.468 z m 0.36,-9.264 0.84,0.204 q -0.348,0.996 -0.816,1.956 -0.468,0.96 -1.02,1.788 -0.54,0.828 -1.152,1.464 -0.06,-0.084 -0.192,-0.204 -0.12,-0.132 -0.252,-0.24 -0.12,-0.12 -0.216,-0.192 0.6,-0.576 1.116,-1.332 0.528,-0.768 0.96,-1.644 0.432,-0.888 0.732,-1.8 z m -0.12,2.04 h 5.988 v 0.78 h -5.988 v 8.112 h -0.84 v -8.184 l 0.66,-0.708 z m 2.532,0.444 h 0.876 v 7.224 h -0.876 z m -0.468,-2.172 0.756,-0.336 q 0.288,0.396 0.552,0.864 0.264,0.468 0.408,0.816 l -0.816,0.408 q -0.132,-0.36 -0.396,-0.852 -0.252,-0.492 -0.504,-0.9 z m -6.708,0.48 0.78,-0.372 q 0.312,0.408 0.636,0.9 0.324,0.48 0.6,0.948 0.288,0.456 0.444,0.804 l -0.84,0.444 q -0.156,-0.36 -0.432,-0.828 -0.264,-0.48 -0.576,-0.972 -0.312,-0.504 -0.612,-0.924 z m 0,9.156 q 0.276,-0.504 0.6,-1.176 0.324,-0.672 0.648,-1.416 0.324,-0.744 0.588,-1.452 l 0.804,0.432 q -0.252,0.672 -0.552,1.392 -0.288,0.708 -0.588,1.392 -0.3,0.672 -0.588,1.248 z m 12.66,-7.656 h 9.528 v 0.876 h -9.528 z m 0.552,3.516 h 8.484 v 0.876 h -8.484 z m -1.116,3.84 h 10.704 v 0.876 h -10.704 z m 4.836,-6.648 h 0.972 v 7.104 h -0.972 z m -1.02,-2.568 0.732,-0.492 q 0.384,0.264 0.804,0.612 0.432,0.348 0.804,0.696 0.372,0.336 0.612,0.624 l -0.78,0.564 q -0.216,-0.276 -0.588,-0.624 -0.36,-0.36 -0.78,-0.72 -0.408,-0.372 -0.804,-0.66 z m 13.2,3.072 h 0.876 v 3.18 h -0.876 z m -1.68,-2.568 h 3.84 v 0.816 h -4.248 z m 3.552,0 h 0.216 l 0.18,-0.048 0.588,0.42 q -0.288,0.456 -0.672,0.948 -0.372,0.48 -0.792,0.912 -0.408,0.42 -0.792,0.744 -0.096,-0.132 -0.264,-0.276 -0.156,-0.156 -0.276,-0.252 0.348,-0.288 0.696,-0.684 0.348,-0.408 0.636,-0.816 0.3,-0.408 0.48,-0.756 z m -5.52,2.28 h 0.876 v 5.796 q 0,0.36 0.108,0.552 0.12,0.192 0.456,0.264 0.336,0.072 0.996,0.072 0.192,0 0.648,0 0.456,0 1.044,0 0.588,0 1.176,0 0.6,0 1.092,0 0.492,0 0.732,0 0.6,0 0.888,-0.144 0.3,-0.144 0.42,-0.564 0.132,-0.42 0.204,-1.212 0.18,0.108 0.432,0.204 0.252,0.096 0.444,0.132 -0.084,0.696 -0.216,1.176 -0.132,0.468 -0.384,0.732 -0.24,0.276 -0.672,0.384 -0.432,0.12 -1.104,0.12 -0.12,0 -0.48,0 -0.348,0 -0.84,0 -0.48,0 -1.02,0 -0.528,0 -1.02,0 -0.48,0 -0.828,0 -0.348,0 -0.456,0 -0.948,0 -1.5,-0.144 -0.54,-0.132 -0.768,-0.516 -0.228,-0.372 -0.228,-1.068 z m 2.196,-3.36 0.828,0.3 q -0.468,0.9 -1.128,1.74 -0.66,0.84 -1.416,1.548 -0.756,0.708 -1.548,1.236 -0.036,-0.096 -0.132,-0.252 -0.084,-0.156 -0.192,-0.324 -0.096,-0.168 -0.18,-0.264 0.744,-0.456 1.452,-1.08 0.708,-0.624 1.308,-1.356 0.6,-0.744 1.008,-1.548 z m -1.56,3.36 h 7.656 v 4.332 h -0.9 v -3.48 h -6.756 z m 0,2.928 h 7.188 v 0.864 h -7.188 z"
       id="text13"
       transform="matrix(0.26458333,0,0,0.26458333,0.84576806,5.6601401)"
       aria-label="标准主色" />
    <rect
       style="fill:#f6ab00;fill-opacity:1;stroke-width:0.0460103"
       id="rect15"
       width="13.229167"
       height="13.229177"
       x="13.229167"
       y="81.777893" />
    <rect
       style="fill:#f6ab00;fill-opacity:0.8;stroke-width:0.0460103"
       id="rect16"
       width="13.229167"
       height="13.229177"
       x="13.229167"
       y="97.653053" />
    <rect
       style="fill:#f6ab00;fill-opacity:0.501961;stroke-width:0.0460103"
       id="rect17"
       width="13.229167"
       height="13.229177"
       x="13.229167"
       y="113.52805" />
    <rect
       style="fill:#f6ab00;fill-opacity:0.2;stroke-width:0.0460103"
       id="rect18"
       width="13.229167"
       height="13.229177"
       x="13.229167"
       y="129.40289" />
    <rect
       style="fill:#151e49;fill-opacity:1;stroke-width:0.0460103"
       id="rect19"
       width="13.229167"
       height="13.229177"
       x="29.104166"
       y="81.777893" />
    <rect
       style="fill:#151e49;fill-opacity:0.8;stroke-width:0.0460103"
       id="rect20"
       width="13.229167"
       height="13.229177"
       x="29.104166"
       y="97.653053" />
    <rect
       style="fill:#151e49;fill-opacity:0.501961;stroke-width:0.0460103"
       id="rect21"
       width="13.229167"
       height="13.229177"
       x="29.104166"
       y="113.52805" />
    <rect
       style="fill:#151e49;fill-opacity:0.2;stroke-width:0.0460103"
       id="rect22"
       width="13.229167"
       height="13.229177"
       x="29.104166"
       y="129.40289" />
    <rect
       style="fill:#ad986e;fill-opacity:1;stroke-width:0.0460103"
       id="rect23"
       width="13.229167"
       height="13.229177"
       x="44.979168"
       y="81.777893" />
    <rect
       style="fill:#ad986e;fill-opacity:0.80000001;stroke-width:0.0460103"
       id="rect24"
       width="13.229167"
       height="13.229177"
       x="44.979168"
       y="97.653053" />
    <rect
       style="fill:#ad986e;fill-opacity:0.50196081;stroke-width:0.0460103"
       id="rect25"
       width="13.229167"
       height="13.229177"
       x="44.979168"
       y="113.52805" />
    <rect
       style="fill:#ad986e;fill-opacity:0.2;stroke-width:0.0460103"
       id="rect26"
       width="13.229167"
       height="13.229177"
       x="44.979168"
       y="129.40289" />
    <path
       style="font-size:12px;font-family:'Noto Sans SC';-inkscape-font-specification:'Noto Sans SC';white-space:pre;fill:#231815"
       d="m 52.884969,12.628328 h 5.232 v 0.852 h -5.232 z m -0.528,2.868 h 6.408 v 0.852 h -6.408 z m 2.568,0.42 h 0.912 v 5.676 q 0,0.384 -0.096,0.6 -0.096,0.228 -0.36,0.348 -0.264,0.108 -0.696,0.132 -0.42,0.036 -1.044,0.036 -0.024,-0.204 -0.108,-0.468 -0.084,-0.252 -0.18,-0.456 0.468,0.012 0.84,0.012 0.384,0 0.504,0 0.132,-0.012 0.18,-0.048 0.048,-0.048 0.048,-0.168 z m 1.716,1.98 0.768,-0.24 q 0.3,0.588 0.564,1.26 0.276,0.66 0.492,1.284 0.216,0.624 0.312,1.104 l -0.828,0.3 q -0.096,-0.48 -0.3,-1.116 -0.192,-0.636 -0.456,-1.308 -0.264,-0.684 -0.552,-1.284 z m -3.456,-0.204 0.828,0.18 q -0.18,0.696 -0.444,1.38 -0.252,0.672 -0.552,1.272 -0.3,0.6 -0.624,1.056 -0.084,-0.06 -0.216,-0.144 -0.132,-0.096 -0.276,-0.18 -0.132,-0.096 -0.24,-0.144 0.504,-0.648 0.9,-1.56 0.396,-0.912 0.624,-1.86 z m -5.304,-3.432 h 4.308 v 0.84 h -4.308 z m 1.836,-2.544 h 0.9 v 11.028 h -0.9 z m -0.108,3.048 0.612,0.192 q -0.156,0.66 -0.384,1.38 -0.216,0.72 -0.504,1.416 -0.276,0.684 -0.6,1.284 -0.312,0.6 -0.648,1.02 -0.048,-0.12 -0.144,-0.276 -0.084,-0.156 -0.18,-0.3 -0.096,-0.156 -0.18,-0.264 0.408,-0.492 0.804,-1.236 0.408,-0.744 0.72,-1.596 0.324,-0.852 0.504,-1.62 z m 0.948,0.588 q 0.108,0.12 0.336,0.42 0.24,0.288 0.516,0.636 0.276,0.348 0.504,0.648 0.228,0.288 0.324,0.42 l -0.528,0.708 q -0.12,-0.204 -0.336,-0.54 -0.204,-0.348 -0.456,-0.72 -0.24,-0.372 -0.468,-0.684 -0.216,-0.312 -0.348,-0.48 z m 13.704,0.912 h 5.988 v 0.792 h -5.988 z m 0.012,2.388 h 5.964 v 0.792 h -5.964 z m 0,2.436 h 6.468 v 0.816 h -6.468 z m 0.36,-9.264 0.84,0.204 q -0.348,0.996 -0.816,1.956 -0.468,0.96 -1.02,1.788 -0.54,0.828 -1.152,1.464 -0.06,-0.084 -0.192,-0.204 -0.12,-0.132 -0.252,-0.24 -0.12,-0.12 -0.216,-0.192 0.6,-0.576 1.116,-1.332 0.528,-0.768 0.96,-1.644 0.432,-0.888 0.732,-1.8 z m -0.12,2.04 h 5.988 v 0.78 h -5.988 v 8.112 h -0.84 v -8.184 l 0.66,-0.708 z m 2.532,0.444 h 0.876 v 7.224 h -0.876 z m -0.468,-2.172 0.756,-0.336 q 0.288,0.396 0.552,0.864 0.264,0.468 0.408,0.816 l -0.816,0.408 q -0.132,-0.36 -0.396,-0.852 -0.252,-0.492 -0.504,-0.9 z m -6.708,0.48 0.78,-0.372 q 0.312,0.408 0.636,0.9 0.324,0.48 0.6,0.948 0.288,0.456 0.444,0.804 l -0.84,0.444 q -0.156,-0.36 -0.432,-0.828 -0.264,-0.48 -0.576,-0.972 -0.312,-0.504 -0.612,-0.924 z m 0,9.156 q 0.276,-0.504 0.6,-1.176 0.324,-0.672 0.648,-1.416 0.324,-0.744 0.588,-1.452 l 0.804,0.432 q -0.252,0.672 -0.552,1.392 -0.288,0.708 -0.588,1.392 -0.3,0.672 -0.588,1.248 z m 16.716,-8.412 h 6.192 v 0.768 h -6.192 z m 0.84,3.876 h 4.416 v 0.768 h -4.416 z m 0,2.1 h 4.416 v 0.768 h -4.416 z m -0.48,-4.14 h 4.956 v 0.78 h -4.152 v 6.744 h -0.804 z m 4.596,0 h 0.816 v 6.564 q 0,0.312 -0.06,0.492 -0.06,0.192 -0.264,0.312 -0.192,0.096 -0.504,0.12 -0.312,0.024 -0.744,0.024 -0.012,-0.168 -0.084,-0.396 -0.072,-0.228 -0.168,-0.396 0.312,0.012 0.54,0.012 0.24,0 0.336,0 0.132,-0.012 0.132,-0.168 z m -2.316,-3.48 h 0.864 v 4.26 h -0.048 v 6.696 h -0.768 v -6.696 h -0.048 z m 1.248,0.444 0.552,-0.42 q 0.36,0.228 0.78,0.54 0.42,0.3 0.672,0.516 l -0.576,0.492 q -0.228,-0.228 -0.648,-0.552 -0.408,-0.324 -0.78,-0.576 z m -8.664,0.972 h 4.332 v 0.84 h -4.332 z m 2.496,1.836 h 0.816 v 7.728 h -0.816 z m -2.568,4.824 q 0.576,-0.096 1.32,-0.216 0.744,-0.12 1.572,-0.276 0.84,-0.156 1.68,-0.3 l 0.048,0.792 q -1.176,0.24 -2.34,0.48 -1.164,0.228 -2.088,0.396 z m 0.468,-1.98 q -0.012,-0.084 -0.06,-0.228 -0.036,-0.156 -0.096,-0.3 -0.06,-0.156 -0.108,-0.264 0.144,-0.036 0.276,-0.3 0.144,-0.276 0.288,-0.672 0.072,-0.192 0.216,-0.636 0.144,-0.444 0.312,-1.044 0.168,-0.612 0.312,-1.296 0.156,-0.684 0.252,-1.356 l 0.876,0.18 q -0.18,0.96 -0.444,1.932 -0.264,0.972 -0.576,1.872 -0.312,0.9 -0.636,1.608 v 0.024 q 0,0 -0.096,0.048 -0.084,0.048 -0.216,0.132 -0.12,0.072 -0.216,0.156 -0.084,0.084 -0.084,0.144 z m 0,0 v -0.72 l 0.48,-0.24 h 3.492 v 0.792 h -3.096 q -0.312,0 -0.564,0.048 -0.24,0.048 -0.312,0.12 z m 16.68,-3.372 h 5.088 v 0.852 h -5.088 z m 4.692,0 h 0.864 q 0,0 0,0.096 0,0.084 0,0.192 0,0.096 0,0.156 -0.048,1.908 -0.096,3.228 -0.048,1.308 -0.12,2.148 -0.06,0.828 -0.168,1.284 -0.108,0.456 -0.252,0.648 -0.168,0.24 -0.372,0.336 -0.204,0.096 -0.492,0.132 -0.276,0.024 -0.732,0.012 -0.444,0 -0.924,-0.024 -0.012,-0.192 -0.084,-0.444 -0.072,-0.24 -0.192,-0.42 0.516,0.036 0.948,0.048 0.432,0.012 0.612,0.012 0.156,0 0.264,-0.036 0.108,-0.036 0.192,-0.144 0.12,-0.144 0.204,-0.576 0.084,-0.432 0.144,-1.236 0.072,-0.816 0.12,-2.1 0.048,-1.284 0.084,-3.12 z m -2.688,-2.724 h 0.876 q 0,1.38 -0.036,2.712 -0.036,1.32 -0.192,2.544 -0.156,1.224 -0.516,2.304 -0.348,1.068 -0.984,1.956 -0.636,0.888 -1.632,1.548 -0.108,-0.168 -0.3,-0.36 -0.192,-0.192 -0.36,-0.312 0.96,-0.6 1.56,-1.416 0.6,-0.828 0.924,-1.836 0.336,-1.02 0.468,-2.172 0.132,-1.152 0.156,-2.4 0.036,-1.26 0.036,-2.568 z m -6.324,0.588 h 3.924 v 7.812 h -0.852 v -6.996 h -2.256 v 7.752 h -0.816 z m -0.864,8.352 q 0.672,-0.132 1.56,-0.312 0.888,-0.18 1.884,-0.396 1.008,-0.216 2.004,-0.432 l 0.072,0.816 q -0.948,0.216 -1.908,0.444 -0.96,0.228 -1.848,0.432 -0.876,0.204 -1.596,0.372 z m 1.296,-5.772 h 3.036 v 0.804 h -3.036 z m 0,2.568 h 3.036 v 0.804 h -3.036 z m 15.984001,-2.124 h 0.876 v 3.18 h -0.876 z m -1.680001,-2.568 h 3.840001 v 0.816 h -4.248001 z m 3.552001,0 h 0.216 l 0.18,-0.048 0.588,0.42 q -0.288,0.456 -0.672,0.948 -0.372,0.48 -0.792,0.912 -0.408,0.42 -0.792,0.744 -0.096,-0.132 -0.264,-0.276 -0.156,-0.156 -0.276,-0.252 0.348,-0.288 0.696,-0.684 0.348,-0.408 0.636,-0.816 0.3,-0.408 0.48,-0.756 z m -5.520001,2.28 h 0.876 v 5.796 q 0,0.36 0.108,0.552 0.12,0.192 0.456,0.264 0.336,0.072 0.996,0.072 0.192,0 0.648001,0 0.456,0 1.044,0 0.588,0 1.176,0 0.6,0 1.092,0 0.492,0 0.732,0 0.6,0 0.888,-0.144 0.3,-0.144 0.42,-0.564 0.132,-0.42 0.204,-1.212 0.18,0.108 0.432,0.204 0.252,0.096 0.444,0.132 -0.084,0.696 -0.216,1.176 -0.132,0.468 -0.384,0.732 -0.24,0.276 -0.672,0.384 -0.432,0.12 -1.104,0.12 -0.12,0 -0.48,0 -0.348,0 -0.84,0 -0.48,0 -1.02,0 -0.528,0 -1.02,0 -0.48,0 -0.828,0 -0.348001,0 -0.456001,0 -0.948,0 -1.5,-0.144 -0.54,-0.132 -0.768,-0.516 -0.228,-0.372 -0.228,-1.068 z m 2.196,-3.36 0.828001,0.3 q -0.468001,0.9 -1.128001,1.74 -0.66,0.84 -1.416,1.548 -0.756,0.708 -1.548,1.236 -0.036,-0.096 -0.132,-0.252 -0.084,-0.156 -0.192,-0.324 -0.096,-0.168 -0.18,-0.264 0.744,-0.456 1.452,-1.08 0.708,-0.624 1.308,-1.356 0.6,-0.744 1.008,-1.548 z m -1.56,3.36 h 7.656001 v 4.332 h -0.9 v -3.48 h -6.756001 z m 0,2.928 h 7.188001 v 0.864 h -7.188001 z"
       id="text26"
       transform="matrix(0.26458333,0,0,0.26458351,0.84576806,74.209578)"
       aria-label="标准辅助色" />
    <rect
       style="fill:#b4b7b9;fill-opacity:1;stroke-width:0.0460103"
       id="rect34"
       width="13.229167"
       height="13.229177"
       x="60.854168"
       y="81.777893" />
    <rect
       style="fill:#b4b7b9;fill-opacity:0.80000001;stroke-width:0.0460103"
       id="rect35"
       width="13.229167"
       height="13.229177"
       x="60.854168"
       y="97.653053" />
    <rect
       style="fill:#b4b7b9;fill-opacity:0.50196081;stroke-width:0.0460103"
       id="rect36"
       width="13.229167"
       height="13.229177"
       x="60.854168"
       y="113.52805" />
    <rect
       style="fill:#b4b7b9;fill-opacity:0.2;stroke-width:0.0460103"
       id="rect37"
       width="13.229167"
       height="13.229177"
       x="60.854168"
       y="129.40289" />
  </g>
</svg>
