<?xml version="1.0" encoding="UTF-8" standalone="no"?>
<!-- Created with Inkscape (http://www.inkscape.org/) -->

<svg
   version="1.1"
   id="svg1"
   width="365.89142"
   height="85.533112"
   viewBox="0 0 365.89141 85.533111"
   sodipodi:docname="校训横排.pdf"
   xmlns:inkscape="http://www.inkscape.org/namespaces/inkscape"
   xmlns:sodipodi="http://sodipodi.sourceforge.net/DTD/sodipodi-0.dtd"
   xmlns="http://www.w3.org/2000/svg"
   xmlns:svg="http://www.w3.org/2000/svg">
  <defs
     id="defs1">
    <clipPath
       clipPathUnits="userSpaceOnUse"
       id="clipPath608">
      <path
         d="M 0,595.276 H 841.89 V 0 H 0 Z"
         transform="translate(-382.80871,-423.73141)"
         id="path608" />
    </clipPath>
    <clipPath
       clipPathUnits="userSpaceOnUse"
       id="clipPath610">
      <path
         d="M 0,595.276 H 841.89 V 0 H 0 Z"
         transform="translate(-429.68181,-450.31761)"
         id="path610" />
    </clipPath>
    <clipPath
       clipPathUnits="userSpaceOnUse"
       id="clipPath612">
      <path
         d="M 0,595.276 H 841.89 V 0 H 0 Z"
         transform="translate(-410.05971,-449.43371)"
         id="path612" />
    </clipPath>
    <clipPath
       clipPathUnits="userSpaceOnUse"
       id="clipPath614">
      <path
         d="M 0,595.276 H 841.89 V 0 H 0 Z"
         transform="translate(-476.65741,-448.06021)"
         id="path614" />
    </clipPath>
    <clipPath
       clipPathUnits="userSpaceOnUse"
       id="clipPath616">
      <path
         d="M 0,595.276 H 841.89 V 0 H 0 Z"
         transform="translate(-503.91712,-455.22421)"
         id="path616" />
    </clipPath>
    <clipPath
       clipPathUnits="userSpaceOnUse"
       id="clipPath618">
      <path
         d="M 0,595.276 H 841.89 V 0 H 0 Z"
         transform="translate(-487.83121,-437.27731)"
         id="path618" />
    </clipPath>
    <clipPath
       clipPathUnits="userSpaceOnUse"
       id="clipPath620">
      <path
         d="M 0,595.276 H 841.89 V 0 H 0 Z"
         transform="translate(-497.74621,-414.33341)"
         id="path620" />
    </clipPath>
    <clipPath
       clipPathUnits="userSpaceOnUse"
       id="clipPath622">
      <path
         d="M 0,595.276 H 841.89 V 0 H 0 Z"
         transform="translate(-553.92301,-436.09501)"
         id="path622" />
    </clipPath>
    <clipPath
       clipPathUnits="userSpaceOnUse"
       id="clipPath624">
      <path
         d="M 0,595.276 H 841.89 V 0 H 0 Z"
         transform="translate(-535.92892,-447.49981)"
         id="path624" />
    </clipPath>
    <clipPath
       clipPathUnits="userSpaceOnUse"
       id="clipPath626">
      <path
         d="M 0,595.276 H 841.89 V 0 H 0 Z"
         transform="translate(-568.32832,-445.97691)"
         id="path626" />
    </clipPath>
    <clipPath
       clipPathUnits="userSpaceOnUse"
       id="clipPath628">
      <path
         d="M 0,595.276 H 841.89 V 0 H 0 Z"
         transform="translate(-648.89282,-433.83731)"
         id="path628" />
    </clipPath>
    <clipPath
       clipPathUnits="userSpaceOnUse"
       id="clipPath630">
      <path
         d="M 0,595.276 H 841.89 V 0 H 0 Z"
         transform="translate(-604.47581,-433.89831)"
         id="path630" />
    </clipPath>
    <clipPath
       clipPathUnits="userSpaceOnUse"
       id="clipPath632">
      <path
         d="M 0,595.276 H 841.89 V 0 H 0 Z"
         transform="translate(-629.73461,-412.68881)"
         id="path632" />
    </clipPath>
    <clipPath
       clipPathUnits="userSpaceOnUse"
       id="clipPath634">
      <path
         d="M 0,595.276 H 841.89 V 0 H 0 Z"
         transform="translate(-603.61252,-426.24411)"
         id="path634" />
    </clipPath>
    <clipPath
       clipPathUnits="userSpaceOnUse"
       id="clipPath636">
      <path
         d="M 0,595.276 H 841.89 V 0 H 0 Z"
         transform="translate(-620.54321,-430.20351)"
         id="path636" />
    </clipPath>
    <clipPath
       clipPathUnits="userSpaceOnUse"
       id="clipPath638">
      <path
         d="M 0,595.276 H 841.89 V 0 H 0 Z"
         transform="translate(-634.17011,-468.33951)"
         id="path638" />
    </clipPath>
    <clipPath
       clipPathUnits="userSpaceOnUse"
       id="clipPath640">
      <path
         d="M 0,595.276 H 841.89 V 0 H 0 Z"
         transform="translate(-615.23651,-467.94151)"
         id="path640" />
    </clipPath>
  </defs>
  <sodipodi:namedview
     id="namedview1"
     pagecolor="#ffffff"
     bordercolor="#000000"
     borderopacity="0.25"
     inkscape:showpageshadow="2"
     inkscape:pageopacity="0.0"
     inkscape:pagecheckerboard="0"
     inkscape:deskcolor="#d1d1d1"
     showgrid="false">
    <inkscape:page
       x="0"
       y="0"
       width="365.89142"
       height="85.533112"
       id="page2"
       margin="0"
       bleed="0" />
  </sodipodi:namedview>
  <g
     id="layer-MC0"
     inkscape:groupmode="layer"
     inkscape:label="图层 1"
     transform="translate(-499.29902,-160.54248)">
    <path
       id="path607"
       d="m 0,0 c 1.905,0.424 3.801,0.9 5.718,1.261 3.378,0.636 6.771,1.183 10.152,1.802 2.639,0.484 5.272,1.001 7.899,1.545 0.974,0.202 2.023,0.349 2.862,0.829 1.25,0.717 2.491,1.569 3.473,2.611 1.705,1.809 3.873,2.259 6.09,1.022 C 37.624,8.273 39.17,7.66 40.512,6.742 41.4,6.135 42.341,5.25 42.689,4.284 43.416,2.272 42.495,0.873 40.326,0.681 37.575,0.437 34.794,0.558 32.032,0.403 27.467,0.145 22.906,-0.201 18.345,-0.53 17.796,-0.57 17.246,-0.871 16.714,-0.83 12.627,-0.514 8.852,-1.999 5.165,-3.268 2.791,-4.085 -0.057,-4.516 -1.736,-6.982 c -0.73,-1.071 -4.15,-0.617 -4.808,0.542 -0.702,1.236 -1.563,2.512 -1.767,3.859 -0.16,1.066 0.538,2.277 0.916,3.402 0.257,0.761 0.765,1.457 0.917,2.229 0.774,3.912 1.637,7.819 2.104,11.77 0.186,1.573 0.149,3.403 -1.168,4.85 -0.331,0.363 -0.155,1.381 0.076,1.987 0.125,0.326 0.942,0.674 1.314,0.564 1.348,-0.396 2.623,-1.04 3.961,-1.483 2.23,-0.74 2.584,-2.639 2.951,-4.554 C 2.791,16.02 2.704,15.792 2.789,15.686 4.539,13.5 2.817,11.683 2.163,9.763 1.776,8.628 1.251,7.536 0.92,6.387 0.375,4.49 -0.062,2.562 -0.546,0.646 -0.364,0.431 -0.182,0.215 0,0"
       style="fill:#231f20;fill-opacity:1;fill-rule:nonzero;stroke:none"
       transform="matrix(1.3333333,0,0,-1.3333333,510.4116,228.72613)"
       clip-path="url(#clipPath608)" />
    <path
       id="path609"
       d="m 0,0 c -1.82,0.554 -3.356,0.84 -4.693,1.519 -0.513,0.26 -0.715,1.396 -0.81,2.164 -0.222,1.821 -0.3,3.659 -0.427,5.492 -0.084,1.21 0.156,2.216 1.549,2.557 1.763,0.43 4.304,0.333 5.944,-1.738 C 2.378,8.965 3.442,8.136 4.37,7.194 6.453,5.079 6.119,2.894 3.489,1.575 2.314,0.986 1.093,0.49 0,0"
       style="fill:#231f20;fill-opacity:1;fill-rule:nonzero;stroke:none"
       transform="matrix(1.3333333,0,0,-1.3333333,572.90907,193.27787)"
       clip-path="url(#clipPath610)" />
    <path
       id="path611"
       d="m 0,0 c -0.617,-0.912 -1.16,-1.45 -1.388,-2.099 -0.642,-1.835 -1.245,-3.694 -1.698,-5.583 -0.439,-1.834 -2.543,-2.788 -4.303,-1.774 -1.231,0.709 -2.371,1.597 -3.644,2.212 -2.973,1.436 -3.093,5.459 -1.222,7.653 0.234,0.274 1.064,0.405 1.349,0.21 2.49,-1.697 5.289,-1.602 7.744,0.287 0.457,0.352 1.194,0.724 1.655,0.588 C -0.971,1.335 -0.596,0.628 0,0"
       style="fill:#231f20;fill-opacity:1;fill-rule:nonzero;stroke:none"
       transform="matrix(1.3333333,0,0,-1.3333333,546.74627,194.4564)"
       clip-path="url(#clipPath612)" />
    <path
       id="path613"
       d="m 0,0 c 0.645,0.809 1.312,1.602 1.93,2.43 1.067,1.428 2.186,2.827 3.132,4.333 0.975,1.552 1.946,3.153 2.564,4.861 0.293,0.808 -0.22,1.919 -0.407,2.885 -0.152,0.775 -0.68,1.655 -0.453,2.272 0.196,0.532 1.213,1.049 1.88,1.063 1.359,0.028 2.677,-0.213 3.568,-1.607 0.682,-1.067 1.768,-1.867 2.576,-2.866 0.291,-0.359 0.52,-1.03 0.385,-1.424 C 14.697,10.552 14.104,9.189 13.454,7.864 12.672,6.268 11.87,4.671 10.924,3.172 10.087,1.846 9.127,0.574 8.067,-0.58 6.075,-2.752 3.813,-4.543 1.185,-6.004 -0.23,-6.79 -1.231,-8.337 -1.348,-10.493 c -0.135,-2.533 -1.249,-5.012 -1.919,-7.519 -0.142,-0.532 -0.252,-1.082 -0.295,-1.631 -0.243,-3.093 -0.248,-6.224 -0.764,-9.27 -0.321,-1.89 -1.332,-3.686 -2.179,-5.455 -0.411,-0.859 -3.58,-1.214 -4.35,-0.567 -1.212,1.017 -2.488,2 -3.497,3.199 -0.564,0.67 -0.647,1.746 -0.857,2.374 1.815,0.904 3.275,1.593 4.689,2.369 0.269,0.147 0.462,0.623 0.5,0.967 0.246,2.228 0.468,4.458 0.639,6.692 0.151,1.962 0.258,3.93 0.304,5.897 0.01,0.421 -0.223,1.031 -0.541,1.217 -0.252,0.148 -0.915,-0.102 -1.206,-0.376 -1.275,-1.199 -2.505,-2.447 -3.702,-3.723 -1.716,-1.828 -3.212,-3.914 -5.133,-5.484 -1.724,-1.409 -3.857,-2.346 -5.893,-3.317 -0.499,-0.238 -1.323,0.206 -1.998,0.337 0.354,0.933 0.444,2.372 1.104,2.716 3.642,1.897 6.569,4.363 8.991,7.783 1.459,2.06 3.125,4.023 4.499,6.183 0.704,1.107 1.433,2.199 2.154,3.305 -1.394,1.249 -3.447,0.703 -5.271,-1.059 -1.63,-1.575 -3.157,-3.306 -5.835,-3.471 -1.26,-0.077 -2.615,-1.182 -3.609,-2.149 -0.749,-0.73 -1.366,-0.874 -2.182,-0.576 -0.959,0.349 -1.669,0.281 -2.275,-0.659 -0.281,-0.436 -0.801,-0.834 -1.295,-0.989 -0.636,-0.201 -1.549,-0.417 -1.981,-0.112 -0.4,0.283 -0.581,1.315 -0.414,1.888 0.609,2.099 1.309,4.187 2.195,6.18 0.228,0.511 1.491,1.096 1.903,0.891 1.446,-0.72 2.78,-0.026 3.584,0.632 1.755,1.438 3.793,1.031 5.681,1.449 1.107,0.245 2.289,-0.05 3.204,1.005 0.337,0.39 1.203,0.651 1.702,0.514 2.369,-0.65 3.963,1.249 5.211,2.293 1.528,1.277 2.579,3.85 2.696,5.927 0.198,3.504 -0.427,7.068 -0.889,10.582 -0.083,0.634 -1.059,1.138 -1.591,1.731 -0.27,0.3 -0.469,0.664 -0.699,0.999 0.375,0.23 0.724,0.592 1.128,0.669 3.893,0.744 7.554,-0.956 7.484,-5.53 C -2.097,12.64 -2.415,9.866 -2.545,7.086 -2.572,6.491 -2.521,5.702 -2.165,5.314 -0.838,3.865 -0.122,2.284 -0.622,0.249 -0.415,0.166 -0.207,0.083 0,0"
       style="fill:#231f20;fill-opacity:1;fill-rule:nonzero;stroke:none"
       transform="matrix(1.3333333,0,0,-1.3333333,635.5432,196.28773)"
       clip-path="url(#clipPath614)" />
    <path
       id="path615"
       d="m 0,0 c 2.918,-0.164 4.8,-1.486 6.383,-3.029 0.664,-0.647 0.96,-2.263 0.652,-3.178 -0.476,-1.417 -2,-1.767 -3.49,-1.678 -1.785,0.105 -3.571,0.294 -5.356,0.283 -2.68,-0.015 -5.359,-0.184 -8.04,-0.264 -1.242,-0.036 -2.337,0.211 -3.273,1.214 -0.837,0.897 -0.772,1.658 0.153,2.163 0.908,0.496 1.989,0.694 3.009,0.963 2.282,0.599 4.581,1.137 6.858,1.758 0.459,0.126 0.841,0.521 1.274,0.766 C -1.109,-0.594 -0.377,-0.206 0,0"
       style="fill:#231f20;fill-opacity:1;fill-rule:nonzero;stroke:none"
       transform="matrix(1.3333333,0,0,-1.3333333,671.88947,186.73573)"
       clip-path="url(#clipPath616)" />
    <path
       id="path617"
       d="M 0,0 C 0.865,2.732 1.868,3.385 4.358,2.786 5.792,2.442 7.19,1.948 8.592,1.485 10.474,0.864 11.494,-1.096 10.875,-2.966 9.831,-6.117 7.274,-7.943 4.731,-9.734 4.112,-10.17 3.327,-9.95 3.285,-9.023 3.247,-8.168 3.183,-7.152 3.581,-6.471 4.765,-4.447 4.559,-3.138 2.629,-1.91 1.702,-1.32 0.846,-0.619 0,0"
       style="fill:#231f20;fill-opacity:1;fill-rule:nonzero;stroke:none"
       transform="matrix(1.3333333,0,0,-1.3333333,650.4416,210.66493)"
       clip-path="url(#clipPath618)" />
    <path
       id="path619"
       d="m 0,0 c -0.008,-2.301 -0.53,-2.872 -3.162,-3.454 -1.973,-0.437 -2.379,-0.05 -3.534,2.045 -0.602,1.09 -1.992,1.75 -2.574,2.845 -0.742,1.397 -1.372,3.027 -1.415,4.574 -0.042,1.546 1.901,2.089 3.074,0.953 C -5.94,5.346 -4.262,3.896 -1.916,3.217 -0.124,2.699 0.007,2.12 0,0"
       style="fill:#231f20;fill-opacity:1;fill-rule:nonzero;stroke:none"
       transform="matrix(1.3333333,0,0,-1.3333333,663.6616,241.2568)"
       clip-path="url(#clipPath620)" />
    <path
       id="path621"
       d="M 0,0 C 2.15,0.434 4.005,1.031 5.881,1.105 7.035,1.15 8.446,0.669 9.339,-0.066 10.701,-1.185 10.28,-2.943 8.558,-3.615 7.034,-4.208 5.398,-4.577 3.778,-4.846 -0.25,-5.515 -0.351,-6.272 -1.258,-9.361 c -0.456,-1.552 -1.274,-2.995 -1.872,-4.51 -0.305,-0.773 -0.483,-1.596 -0.719,-2.396 0.136,-0.175 0.273,-0.35 0.409,-0.526 1.747,0.286 3.584,0.323 5.223,0.91 3.503,1.254 7.067,1.244 10.62,0.755 1.114,-0.153 2.281,-1.149 3.053,-2.069 0.431,-0.513 0.448,-2.13 0.042,-2.433 -0.898,-0.67 -2.252,-1.273 -3.295,-1.11 -4.433,0.697 -8.811,1.356 -13.312,0.425 -1.549,-0.32 -3.232,0.066 -4.829,-0.1 -1.334,-0.138 -2.869,-0.279 -3.899,-1.007 -1.901,-1.344 -4.071,-1.045 -6.09,-1.562 -2.635,-0.676 -5.321,-2.006 -8.002,-1.33 -1.698,0.428 -3.203,1.961 -4.552,3.251 -0.495,0.472 -0.662,1.785 0.804,2.064 0.434,0.083 0.775,0.586 1.212,0.732 0.494,0.164 1.184,0.377 1.557,0.163 2.529,-1.45 5.179,-1.284 7.873,-0.772 1.866,0.355 3.785,0.574 5.562,1.194 0.754,0.263 1.554,1.328 1.716,2.151 0.286,1.452 0.115,2.998 0.107,4.504 -0.008,1.49 -0.985,2.407 -2.37,1.846 -1.727,-0.699 -3.43,-0.6 -5.03,-0.135 -1.696,0.493 -3.653,0.755 -4.756,2.463 -0.694,1.076 -0.194,1.869 1.099,2.046 3.66,0.502 7.326,0.991 10.958,1.659 0.951,0.175 1.96,0.686 2.145,2.057 0.263,1.952 0.836,3.861 1.138,5.811 0.245,1.584 1.57,2.388 3.094,1.787 C -1.384,5.723 -1.184,3.832 -0.598,2.181 -0.354,1.494 -0.208,0.772 0,0"
       style="fill:#231f20;fill-opacity:1;fill-rule:nonzero;stroke:none"
       transform="matrix(1.3333333,0,0,-1.3333333,738.564,212.24133)"
       clip-path="url(#clipPath622)" />
    <path
       id="path623"
       d="M 0,0 C 3.014,0.133 5.947,0.262 8.881,0.391 8.94,0.17 9,-0.051 9.06,-0.272 7.742,-0.96 6.479,-1.801 5.094,-2.295 3.357,-2.914 1.5,-3.185 -0.27,-3.724 c -1.696,-0.518 -3.313,-1.327 -5.029,-1.74 -1.167,-0.281 -2.925,-0.621 -3.576,-0.021 -1.475,1.361 -2.173,3.403 -1.714,5.511 0.104,0.473 0.906,0.981 1.476,1.129 1.836,0.475 3.517,1.056 4.932,2.474 1.096,1.098 2.582,1.796 3.824,2.764 1.223,0.956 2.388,1.995 3.507,3.071 0.284,0.271 0.508,1.116 0.397,1.197 -0.503,0.366 -1.145,0.78 -1.723,0.761 -2.413,-0.078 -4.806,-0.069 -6.971,1.143 -0.816,0.456 -1.546,1.143 -2.165,1.855 -0.675,0.778 0.093,2.151 1.241,2.266 3.45,0.345 6.907,0.616 10.353,0.991 2.52,0.275 5.027,0.669 7.539,1.01 0.107,0.015 0.249,-0.004 0.312,0.057 2.535,2.484 6.097,1.982 9.13,2.999 2.011,0.674 4.483,0.378 6.654,-0.011 0.893,-0.16 2.007,-1.353 1.854,-2.907 -0.123,-1.261 -1.097,-1.094 -1.791,-1.563 -2.088,-1.41 -4.308,-0.753 -6.495,-0.944 -2.578,-0.224 -5.124,-0.832 -7.672,-1.334 -0.243,-0.048 -0.5,-0.5 -0.576,-0.808 -0.113,-0.46 -0.109,-0.961 -0.088,-1.442 C 13.287,9.569 11.008,8.378 8.708,7.097 6.991,6.141 5.406,4.947 3.759,3.865 3.537,3.719 3.304,3.526 3.058,3.494 1.089,3.236 0.366,1.894 0,0"
       style="fill:#231f20;fill-opacity:1;fill-rule:nonzero;stroke:none"
       transform="matrix(1.3333333,0,0,-1.3333333,714.57187,197.03493)"
       clip-path="url(#clipPath624)" />
    <path
       id="path625"
       d="m 0,0 c -0.246,-0.392 -0.527,-1.397 -1.054,-1.548 -0.811,-0.234 -1.991,-0.181 -2.665,0.271 -3.221,2.161 -6.556,3.977 -10.431,4.641 -0.355,0.061 -0.673,0.335 -1.008,0.51 0.232,0.377 0.378,0.88 0.712,1.11 2.083,1.433 4.373,1.218 6.686,0.73 C -7.036,5.561 -6.305,5.382 -5.571,5.355 -3.465,5.276 -1.058,3.642 -0.3,1.656 -0.152,1.268 -0.145,0.826 0,0"
       style="fill:#231f20;fill-opacity:1;fill-rule:nonzero;stroke:none"
       transform="matrix(1.3333333,0,0,-1.3333333,757.77107,199.06547)"
       clip-path="url(#clipPath626)" />
    <path
       id="path627"
       d="m 0,0 c -1.384,-3.023 -2.407,-3.171 -6.008,-2.177 -3.816,1.053 -7.779,1.573 -11.731,2.336 0.367,0.51 0.063,1.845 1.771,1.945 1.105,0.065 2.167,0.698 3.271,0.995 1.253,0.337 2.482,1.076 3.824,0.034 0.389,-0.301 1.272,-0.339 1.735,-0.108 3.2,1.6 5.394,0.36 7.138,-2.349 z"
       style="fill:#231f20;fill-opacity:1;fill-rule:nonzero;stroke:none"
       transform="matrix(1.3333333,0,0,-1.3333333,865.1904,215.2516)"
       clip-path="url(#clipPath628)" />
    <path
       id="path629"
       d="m 0,0 c -0.847,0.543 -1.845,0.977 -2.539,1.702 -0.454,0.475 -0.645,1.384 -0.601,2.076 0.022,0.336 0.817,0.738 1.327,0.893 0.454,0.137 1.094,0.142 1.489,-0.082 C 2.528,2.972 5.127,5.243 7.893,5.192 8.409,5.182 9.118,7.224 9.429,8.401 9.554,8.875 8.975,9.906 8.49,10.089 7.584,10.433 6.505,10.475 5.515,10.404 3.889,10.288 2.277,9.87 0.654,9.838 0.271,9.83 -0.133,10.85 -0.527,11.397 c 0.609,0.419 1.235,1.219 1.825,1.194 3.148,-0.134 5.628,1.803 8.47,2.579 0.273,0.075 0.601,1.285 0.4,1.504 -0.517,0.56 -1.382,1.274 -1.99,1.178 -1.322,-0.209 -2.56,-0.91 -3.849,-1.363 -2.111,-0.742 -3.359,-0.353 -4.58,1.484 -0.457,0.687 -0.551,1.351 0.582,1.591 3.2,0.677 6.427,1.27 9.569,2.158 2.094,0.591 3.996,1.911 6.101,2.396 2.348,0.541 4.095,2.859 6.799,2.19 0.539,-0.133 1.102,-0.168 1.65,-0.268 1.796,-0.327 2.3,-0.941 2.054,-2.48 -0.255,-1.594 -1.198,-2.154 -2.796,-2.233 -1.319,-0.066 -2.613,-0.603 -3.923,-0.91 -0.459,-0.107 -0.932,-0.153 -1.4,-0.225 -0.44,-0.067 -1.182,-0.014 -1.261,-0.219 -0.224,-0.58 -0.337,-1.312 -0.169,-1.889 0.085,-0.29 0.884,-0.545 1.344,-0.52 1.369,0.076 2.752,0.196 4.087,0.492 1.483,0.329 2.879,-0.052 3.114,-1.069 C 25.71,16.08 24.408,14.72 23.13,14.472 21.454,14.148 19.753,13.905 18.12,13.429 15.817,12.757 14.934,10.604 15.849,8.373 16.308,7.254 16.071,6.456 14.917,5.742 13.183,4.667 11.476,3.912 9.372,4.25 8.945,4.318 8.439,3.797 7.951,3.594 6.274,2.9 4.573,2.26 2.911,1.532 1.957,1.114 1.062,0.564 0,0"
       style="fill:#231f20;fill-opacity:1;fill-rule:nonzero;stroke:none"
       transform="matrix(1.3333333,0,0,-1.3333333,805.96773,215.17027)"
       clip-path="url(#clipPath630)" />
    <path
       id="path631"
       d="m 0,0 c -2.943,-0.316 -6.08,-0.703 -9.228,-0.961 -0.924,-0.076 -1.877,0.281 -2.822,0.318 -0.873,0.034 -1.804,0.07 -2.62,-0.181 -2.421,-0.744 -2.101,-0.482 -3.454,1.784 -0.702,1.175 -0.692,2.756 -1.282,4.024 -0.807,1.735 -0.924,3.922 -3.141,4.849 -0.572,0.24 -0.824,1.246 -1.223,1.9 0.625,0.263 1.235,0.702 1.877,0.759 2.191,0.192 4.557,-1.467 5.323,-3.552 0.632,-1.723 1.221,-3.469 1.995,-5.129 0.505,-1.083 1.24,-2.03 2.783,-1.65 2.192,0.54 4.429,0.902 6.614,1.464 0.495,0.127 1.253,0.8 1.218,1.156 -0.163,1.687 0.829,2.894 1.449,4.263 0.083,0.185 0.012,0.44 0.012,1.031 h -5.564 c -0.322,1.336 -0.425,2.446 1.412,2.664 0.561,0.067 1.134,0.421 1.608,0.771 3.031,2.243 5.982,1.222 8.895,-0.213 C 5.246,12.609 5.767,11.542 5.016,9.978 4.314,8.517 3.78,7.169 2.41,5.944 1.096,4.768 0.883,2.361 0,0"
       style="fill:#231f20;fill-opacity:1;fill-rule:nonzero;stroke:none"
       transform="matrix(1.3333333,0,0,-1.3333333,839.64613,243.4496)"
       clip-path="url(#clipPath632)" />
    <path
       id="path633"
       d="m 0,0 c -1.238,0.252 -2.101,0.489 -2.979,0.59 -1.058,0.122 -2.163,0.322 -3.189,0.144 -2.145,-0.37 -4.294,-0.834 -6.357,-1.515 -1.381,-0.455 -2.545,-1.607 -3.933,-1.994 -2.771,-0.772 -5.629,-1.486 -8.019,1.149 -0.746,0.823 -0.837,1.378 0.044,1.999 1.367,0.963 2.819,1.351 4.41,0.514 0.965,-0.508 1.722,-0.455 2.717,0.288 0.777,0.579 2.354,0.97 3.082,0.563 2.064,-1.153 4.202,-0.41 5.604,0.374 1.944,1.088 4.105,0.775 5.922,1.808 1.027,0.584 2.048,1.181 3.09,1.739 1.876,1.007 3.807,1.72 6.019,1.416 C 7.451,6.933 8.545,7.165 9.58,7.002 10.271,6.893 10.9,6.388 11.558,6.06 11.239,5.479 11.016,4.811 10.585,4.331 8.767,2.307 6.481,1.599 3.835,2.234 2.733,2.498 2.11,2.166 1.544,1.178 1.218,0.61 0.427,0.309 0,0"
       style="fill:#231f20;fill-opacity:1;fill-rule:nonzero;stroke:none"
       transform="matrix(1.3333333,0,0,-1.3333333,804.81667,225.37587)"
       clip-path="url(#clipPath634)" />
    <path
       id="path635"
       d="M 0,0 C -0.589,1.765 0.963,2.682 1.648,3.873 2.328,5.052 3.43,5.979 4.202,7.115 5.07,8.392 4.553,9.37 3.024,9.762 2.45,9.909 1.816,10.135 1.402,10.528 0.743,11.153 0.59,11.941 1.65,12.382 c 1.221,0.508 2.479,0.924 3.718,1.387 1.175,0.439 2.482,0.69 3.485,1.381 1.372,0.945 2.79,1.036 4.316,0.956 1.163,-0.06 1.891,-0.632 1.996,-1.808 C 15.279,13.038 14.77,12.081 13.49,11.761 12.311,11.467 11.102,11.28 9.899,11.09 8.819,10.92 7.723,10.852 6.649,10.651 6.339,10.593 5.883,10.254 5.853,10 5.807,9.62 5.952,9.033 6.232,8.826 8.602,7.078 8.853,6.761 7.379,4.236 6.669,3.018 5.264,2.092 3.989,1.352 2.856,0.694 1.469,0.475 0,0"
       style="fill:#231f20;fill-opacity:1;fill-rule:nonzero;stroke:none"
       transform="matrix(1.3333333,0,0,-1.3333333,827.39093,220.09667)"
       clip-path="url(#clipPath636)" />
    <path
       id="path637"
       d="m 0,0 c -0.275,-1.603 -2.156,-4.006 -3.578,-4.34 -1.575,-0.37 -3.244,-0.382 -4.293,-2.072 -0.264,-0.425 -1.796,-0.551 -2.362,-0.198 -1.129,0.704 -1.223,2.126 -0.368,3.044 2.276,2.443 1.705,5.566 2.336,8.402 0.135,0.603 0.446,1.632 0.732,1.652 0.993,0.069 2.325,0.123 2.948,-0.449 C -3.5,5.043 -2.811,3.693 -1.456,2.816 -0.686,2.317 -0.467,0.967 0,0"
       style="fill:#231f20;fill-opacity:1;fill-rule:nonzero;stroke:none"
       transform="matrix(1.3333333,0,0,-1.3333333,845.56013,169.24867)"
       clip-path="url(#clipPath638)" />
    <path
       id="path639"
       d="m 0,0 c 0.948,-3.358 -0.656,-6.411 -3.771,-7.27 -1.301,-0.359 -2.962,0.595 -3.414,1.879 -0.45,1.279 -1.028,2.513 -1.465,3.796 -0.143,0.419 -0.181,1.233 0.012,1.335 0.437,0.23 1.307,0.374 1.547,0.122 2.117,-2.228 4.101,-1.546 6.144,0.066 C -0.738,0.094 -0.312,-0.017 0,0"
       style="fill:#231f20;fill-opacity:1;fill-rule:nonzero;stroke:none"
       transform="matrix(1.3333333,0,0,-1.3333333,820.31533,169.77933)"
       clip-path="url(#clipPath640)" />
  </g>
</svg>
